<svg width="40" height="40" viewBox="0 0 40 40" fill="none" xmlns="http://www.w3.org/2000/svg">
<path d="M22.5 13.75C22.5 10.2982 19.7018 7.5 16.25 7.5C12.7982 7.5 10 10.2982 10 13.75C10 17.2018 12.7982 20 16.25 20C19.7018 20 22.5 17.2018 22.5 13.75Z" stroke="#019DE7" stroke-width="2.4"/>
<path d="M25 7.5L25.1493 7.53733C28.0001 8.25002 30 10.8115 30 13.75C30 16.6885 28.0001 19.25 25.1493 19.9626L25 20" stroke="#8DD3F4" stroke-width="2.4" stroke-linecap="round"/>
<path d="M5 33.75V30C5 26.5483 7.79822 23.75 11.25 23.75H21.25C24.7017 23.75 27.5 26.5483 27.5 30V33.75" stroke="#019DE7" stroke-width="2.4" stroke-linecap="round"/>
<path d="M35 33.75V28.9039C35 25.8749 32.9385 23.2346 30 22.5" stroke="#8DD3F4" stroke-width="2.4" stroke-linecap="round"/>
</svg>
