<svg width="40" height="40" viewBox="0 0 40 40" fill="none" xmlns="http://www.w3.org/2000/svg">
<path d="M26.25 16.5V5C26.25 4.30965 25.6904 3.75 25 3.75H11.25L3.75 11.25V30C3.75 30.6904 4.30965 31.25 5 31.25H21.25M3.75 11.25H10C10.6903 11.25 11.25 10.6903 11.25 10V3.75" stroke="#8DD3F4" stroke-width="2.4" stroke-linecap="round"/>
<path d="M7.5 16.25H22.5" stroke="#8DD3F4" stroke-width="2.4" stroke-linecap="round"/>
<path d="M7.5 22.5H18.75" stroke="#8DD3F4" stroke-width="2.4" stroke-linecap="round"/>
<path d="M30 17.5V36.25M35.2084 20.9091H27.3959C26.4289 20.9091 25.5016 21.2234 24.8179 21.7828C24.1341 22.3423 23.75 23.1009 23.75 23.892C23.75 24.6831 24.1341 25.4419 24.8179 26.0014C25.5016 26.5607 26.4289 26.875 27.3959 26.875H32.6041C33.5711 26.875 34.4984 27.1892 35.1821 27.7487C35.8659 28.3081 36.25 29.0669 36.25 29.858C36.25 30.6491 35.8659 31.4077 35.1821 31.9672C34.4984 32.5266 33.5711 32.8409 32.6041 32.8409H23.75" stroke="#019DE7" stroke-width="2.4" stroke-linecap="round" stroke-linejoin="round"/>
</svg>
