<svg width="40" height="40" viewBox="0 0 40 40" fill="none" xmlns="http://www.w3.org/2000/svg">
<path d="M28.75 17.5C28.75 24.4035 23.1535 30 16.25 30M28.75 17.5C28.75 10.5964 23.1535 5 16.25 5M28.75 17.5H3.75M16.25 30C9.34644 30 3.75 24.4035 3.75 17.5M16.25 30C19.3766 26.577 21.1535 22.135 21.25 17.5C21.1535 12.865 19.3766 8.42294 16.25 5M16.25 30C13.1234 26.577 11.3466 22.135 11.25 17.5C11.3466 12.865 13.1234 8.42294 16.25 5M16.25 5C9.34644 5 3.75 10.5964 3.75 17.5" stroke="#8DD3F4" stroke-width="2.4" stroke-linecap="round" stroke-linejoin="round"/>
<path d="M17.8025 37.3056L13.2549 34.6117C13.0844 34.5107 13.0935 34.2608 13.2712 34.1727L14.8889 33.3692C14.9342 33.3468 14.985 33.3386 15.035 33.3456L17.7723 33.7317L22.5749 31.3466L16.5612 25.7383C16.4335 25.6193 16.4642 25.4093 16.6205 25.3316L18.2868 24.5041C18.3559 24.4698 18.437 24.4693 18.5065 24.5027L27.5683 28.8668L33.166 26.0868C34.506 25.4213 35.948 26.2287 36.8367 27.0108C37.1407 27.2783 37.045 27.7492 36.6824 27.9293L17.8025 37.3056Z" fill="#019DE7"/>
</svg>
