<svg width="40" height="40" viewBox="0 0 40 40" fill="none" xmlns="http://www.w3.org/2000/svg">
<path d="M33.75 8.75H6.25C5.55964 8.75 5 9.30964 5 10V25C5 25.6904 5.55964 26.25 6.25 26.25H33.75C34.4404 26.25 35 25.6904 35 25V10C35 9.30964 34.4404 8.75 33.75 8.75Z" stroke="#019DE7" stroke-width="2.4"/>
<path d="M22.5 17.5C22.5 16.1193 21.3807 15 20 15C18.6193 15 17.5 16.1193 17.5 17.5C17.5 18.8807 18.6193 20 20 20C21.3807 20 22.5 18.8807 22.5 17.5Z" fill="#019DE7"/>
<path d="M30 17.5C30 16.8096 29.4404 16.25 28.75 16.25C28.0596 16.25 27.5 16.8096 27.5 17.5C27.5 18.1904 28.0596 18.75 28.75 18.75C29.4404 18.75 30 18.1904 30 17.5Z" fill="#019DE7"/>
<path d="M12.5 17.5C12.5 16.8096 11.9404 16.25 11.25 16.25C10.5596 16.25 10 16.8096 10 17.5C10 18.1904 10.5596 18.75 11.25 18.75C11.9404 18.75 12.5 18.1904 12.5 17.5Z" fill="#019DE7"/>
<path d="M33.125 30H6.875C5.83947 30 5 30.6716 5 31.5C5 32.3284 5.83947 33 6.875 33H33.125C34.1605 33 35 32.3284 35 31.5C35 30.6716 34.1605 30 33.125 30Z" fill="#8DD3F4"/>
</svg>
