<svg width="40" height="40" viewBox="0 0 40 40" fill="none" xmlns="http://www.w3.org/2000/svg">
<path d="M32.75 23.5C32.75 21.2909 30.9591 19.5 28.75 19.5C26.5409 19.5 24.75 21.2909 24.75 23.5C24.75 25.7091 26.5409 27.5 28.75 27.5C30.9591 27.5 32.75 25.7091 32.75 23.5Z" stroke="#8DD3F4" stroke-width="2"/>
<path d="M22.5 35C22.5 32.2386 24.7386 30 27.5 30H30C32.7614 30 35 32.2386 35 35" stroke="#8DD3F4" stroke-width="2" stroke-linecap="round"/>
<path d="M15.25 8.75C15.25 6.54086 13.4591 4.75 11.25 4.75C9.04086 4.75 7.25 6.54086 7.25 8.75C7.25 10.9591 9.04086 12.75 11.25 12.75C13.4591 12.75 15.25 10.9591 15.25 8.75Z" stroke="#8DD3F4" stroke-width="2"/>
<path d="M5 20.25C5 17.4886 7.23857 15.25 10 15.25H12.5C15.2614 15.25 17.5 17.4886 17.5 20.25" stroke="#8DD3F4" stroke-width="2" stroke-linecap="round"/>
<path d="M35 13.75V12.5C35 8.35786 31.6421 5 27.5 5H21.25M5 26.25V27.5C5 31.6421 8.35786 35 12.5 35H18.75" stroke="#019DE7" stroke-width="2.4"/>
</svg>
