<svg width="40" height="40" viewBox="0 0 40 40" fill="none" xmlns="http://www.w3.org/2000/svg">
<path d="M19 12.5C19 9.6005 16.6495 7.25 13.75 7.25C10.8505 7.25 8.5 9.6005 8.5 12.5C8.5 15.3995 10.8505 17.75 13.75 17.75C16.6495 17.75 19 15.3995 19 12.5Z" stroke="#8DD3F4" stroke-width="2.4"/>
<path d="M5 28.75V27.5C5 24.0483 7.79822 21.25 11.25 21.25H17.7465C19.1544 21.25 20.4691 21.9536 21.25 23.125" stroke="#8DD3F4" stroke-width="2.4" stroke-linecap="round"/>
<path d="M30.8336 35V21.6666C30.8336 21.2246 30.658 20.8007 30.3455 20.4881C30.0329 20.1756 29.609 20 29.167 20H25.8336C25.3916 20 24.9676 20.1756 24.6551 20.4881C24.3425 20.8007 24.167 21.2246 24.167 21.6666V35M20.8336 23.3334H34.167C35.0875 23.3334 35.8336 24.0795 35.8336 25V33.3334C35.8336 34.2538 35.0875 35 34.167 35H20.8336C19.9131 35 19.167 34.2538 19.167 33.3334V25C19.167 24.0795 19.9131 23.3334 20.8336 23.3334Z" stroke="#019DE7" stroke-width="2" stroke-linecap="round" stroke-linejoin="round"/>
</svg>
