<svg width="32" height="32" viewBox="0 0 32 32" fill="none" xmlns="http://www.w3.org/2000/svg">
<path d="M30 22C30 25.866 26.866 29 23 29M30 22C30 18.134 26.866 15 23 15M30 22H16M23 29C19.134 29 16 25.866 16 22M23 29C24.7509 27.0832 25.7459 24.5956 25.8 22C25.7459 19.4044 24.7509 16.9168 23 15M23 29C21.2491 27.0832 20.2541 24.5956 20.2 22C20.2541 19.4044 21.2491 16.9168 23 15M16 22C16 18.134 19.134 15 23 15" stroke="#8DD3F4" stroke-width="1.6" stroke-linecap="round" stroke-linejoin="round"/>
<path d="M3 22.25C3 21.5207 3.29632 20.8212 3.82376 20.3055C4.35121 19.7897 5.06658 19.5 5.8125 19.5H14M21 13V3H5.8125C5.06658 3 4.35121 3.28973 3.82376 3.80546C3.29632 4.32118 3 5.02065 3 5.75V22.25C3 22.9793 3.29632 23.6788 3.82376 24.1945C4.35121 24.7103 5.06658 25 5.8125 25H14" stroke="#019DE7" stroke-width="1.6" stroke-linecap="round" stroke-linejoin="round"/>
<path d="M12 6V16M14.5 7.81818H10.75C10.2859 7.81818 9.84075 7.9858 9.51256 8.28415C9.18437 8.5825 9 8.98716 9 9.40909C9 9.83103 9.18437 10.2357 9.51256 10.534C9.84075 10.8324 10.2859 11 10.75 11H13.25C13.7141 11 14.1592 11.1676 14.4874 11.466C14.8156 11.7643 15 12.169 15 12.5909C15 13.0128 14.8156 13.4175 14.4874 13.7159C14.1592 14.0142 13.7141 14.1818 13.25 14.1818H9" stroke="#8DD3F4" stroke-width="1.6" stroke-linecap="round" stroke-linejoin="round"/>
</svg>
