<svg width="32" height="32" viewBox="0 0 32 32" fill="none" xmlns="http://www.w3.org/2000/svg">
<path d="M3 22.25C3 21.5207 3.29632 20.8212 3.82376 20.3055C4.35121 19.7897 5.06658 19.5 5.8125 19.5H14M21 13V3H5.8125C5.06658 3 4.35121 3.28973 3.82376 3.80546C3.29632 4.32118 3 5.02065 3 5.75V22.25C3 22.9793 3.29632 23.6788 3.82376 24.1945C4.35121 24.7103 5.06658 25 5.8125 25H13" stroke="#019DE7" stroke-width="1.6" stroke-linecap="round" stroke-linejoin="round"/>
<path d="M12 6V16M14.5 7.81818H10.75C10.2859 7.81818 9.84075 7.9858 9.51256 8.28415C9.18437 8.5825 9 8.98716 9 9.40909C9 9.83103 9.18437 10.2357 9.51256 10.534C9.84075 10.8324 10.2859 11 10.75 11H13.25C13.7141 11 14.1592 11.1676 14.4874 11.466C14.8156 11.7643 15 12.169 15 12.5909C15 13.0128 14.8156 13.4175 14.4874 13.7159C14.1592 14.0142 13.7141 14.1818 13.25 14.1818H9" stroke="#8DD3F4" stroke-width="1.6" stroke-linecap="round" stroke-linejoin="round"/>
<rect x="16.8" y="15.8" width="6.4" height="6.4" rx="3.2" stroke="#019DE7" stroke-width="1.6"/>
<path d="M25 16L25.2111 16.1056C26.3075 16.6537 27 17.7743 27 19C27 20.2257 26.3075 21.3463 25.2111 21.8944L25 22" stroke="#8DD3F4" stroke-width="1.6" stroke-linecap="round"/>
<path d="M14 29C14 26.2386 16.2386 24 19 24H21C23.7614 24 26 26.2386 26 29" stroke="#019DE7" stroke-width="1.6" stroke-linecap="round"/>
<path d="M29 29V27.2361C29 25.8657 28.2257 24.6129 27 24" stroke="#8DD3F4" stroke-width="1.6" stroke-linecap="round"/>
</svg>
