<svg width="32" height="32" viewBox="0 0 32 32" fill="none" xmlns="http://www.w3.org/2000/svg">
<path d="M3 22.25C3 21.5207 3.29632 20.8212 3.82376 20.3055C4.35121 19.7897 5.06658 19.5 5.8125 19.5H16M21 12V3H5.8125C5.06658 3 4.35121 3.28973 3.82376 3.80546C3.29632 4.32118 3 5.02065 3 5.75V22.25C3 22.9793 3.29632 23.6788 3.82376 24.1945C4.35121 24.7103 5.06658 25 5.8125 25H16" stroke="#019DE7" stroke-width="1.6" stroke-linecap="round" stroke-linejoin="round"/>
<path d="M29 30H19C18.4477 30 18 29.5523 18 29V15C18 14.4477 18.4477 14 19 14H29C29.5523 14 30 14.4477 30 15V29C30 29.5523 29.5523 30 29 30Z" stroke="#019DE7"/>
<path d="M12 6V16M14.5 7.81818H10.75C10.2859 7.81818 9.84075 7.9858 9.51256 8.28415C9.18437 8.5825 9 8.98716 9 9.40909C9 9.83103 9.18437 10.2357 9.51256 10.534C9.84075 10.8324 10.2859 11 10.75 11H13.25C13.7141 11 14.1592 11.1676 14.4874 11.466C14.8156 11.7643 15 12.169 15 12.5909C15 13.0128 14.8156 13.4175 14.4874 13.7159C14.1592 14.0142 13.7141 14.1818 13.25 14.1818H9" stroke="#8DD3F4" stroke-width="1.6" stroke-linecap="round" stroke-linejoin="round"/>
<path d="M27 16H21C20.4477 16 20 16.4477 20 17V18C20 18.5523 20.4477 19 21 19H27C27.5523 19 28 18.5523 28 18V17C28 16.4477 27.5523 16 27 16Z" stroke="#019DE7"/>
<circle cx="21" cy="22" r="1" fill="#019DE7"/>
<circle cx="21" cy="25" r="1" fill="#019DE7"/>
<circle cx="27" cy="22" r="1" fill="#0173A9"/>
<circle cx="27" cy="25" r="1" fill="#0173A9"/>
<circle cx="24" cy="22" r="1" fill="#019DE7"/>
<circle cx="24" cy="25" r="1" fill="#019DE7"/>
<circle cx="27" cy="28" r="1" fill="#0173A9"/>
<rect x="20" y="27" width="5" height="2" rx="1" fill="#019DE7"/>
</svg>
