<svg width="960" height="600" viewBox="0 0 960 600" fill="none" xmlns="http://www.w3.org/2000/svg">
<g clip-path="url(#clip0_5355_4215)">
<path d="M508.588 754.145C723.016 692.835 984.818 664.248 971.674 404.661C942.6 -169.509 400.974 -96.9573 446.563 73.1833C531.293 389.397 416.679 249.323 210.303 502.141C3.92746 754.959 240.552 830.782 508.588 754.145Z" stroke="#6C76D4" stroke-opacity="0.5"/>
<path d="M507.258 737.149C717.894 680.499 974.352 656.578 965.498 402.522C945.914 -159.413 415.137 -96.8126 457.097 70.2726C535.082 380.808 425.159 242.061 219.447 486.114C13.7344 730.167 243.963 807.963 507.258 737.149Z" stroke="#6C76D4" stroke-opacity="0.5"/>
<path d="M506.152 720.494C712.903 668.367 963.937 648.938 959.196 400.482C948.71 -149.066 428.957 -96.0556 467.396 67.903C538.836 372.628 433.533 235.321 228.708 470.693C23.8831 706.066 247.713 785.652 506.152 720.494Z" stroke="#6C76D4" stroke-opacity="0.5"/>
<path d="M505.26 704.183C708.036 656.444 953.57 641.329 952.763 398.539C950.98 -138.478 442.419 -94.6945 477.445 66.069C542.544 364.855 441.787 229.098 238.071 455.881C34.3551 682.663 251.789 763.857 505.26 704.183Z" stroke="#6C76D4" stroke-opacity="0.5"/>
<path d="M504.578 688.22C703.295 644.73 943.255 633.751 946.204 396.687C952.725 -127.663 455.514 -92.7413 487.239 64.7613C546.202 357.487 449.916 223.388 247.527 441.675C45.1386 659.962 256.182 742.583 504.578 688.22Z" stroke="#6C76D4" stroke-opacity="0.5"/>
<path d="M504.093 672.611C698.668 633.229 932.988 626.206 939.51 394.925C953.936 -116.633 468.227 -90.2036 496.762 63.9748C549.795 350.522 457.903 218.188 257.057 428.079C56.2118 637.97 260.875 721.837 504.093 672.611Z" stroke="#6C76D4" stroke-opacity="0.5"/>
<path d="M503.802 657.357C694.155 621.943 922.771 618.696 932.685 393.251C954.615 -105.401 480.547 -87.092 506.005 63.7017C553.319 343.958 465.74 213.494 266.651 415.093C67.5622 616.692 265.86 701.625 503.802 657.357Z" stroke="#6C76D4" stroke-opacity="0.5"/>
<path d="M503.689 642.462C689.746 610.872 912.597 611.219 925.722 391.658C954.753 -93.9806 492.459 -83.4191 514.954 63.9322C556.761 337.791 473.412 209.298 276.29 402.714C79.1675 596.129 271.118 681.95 503.689 642.462Z" stroke="#6C76D4" stroke-opacity="0.5"/>
<path d="M503.752 627.93C685.44 600.02 902.473 603.779 918.625 390.144C954.351 -82.3834 503.956 -79.1936 523.602 64.6602C560.115 332.019 480.913 205.597 285.965 390.943C91.0161 576.289 276.642 662.818 503.752 627.93Z" stroke="#6C76D4" stroke-opacity="0.5"/>
<path d="M503.976 613.764C681.227 589.388 892.39 596.375 911.386 388.707C953.403 -70.6225 515.019 -74.4268 531.933 65.8774C563.368 326.639 488.226 202.387 295.655 379.781C103.085 557.174 282.413 644.234 503.976 613.764Z" stroke="#6C76D4" stroke-opacity="0.5"/>
<path d="M504.358 599.966C677.106 578.977 882.353 589.008 904.01 387.343C951.91 -58.7116 525.644 -69.1307 539.943 67.5745C566.517 321.647 495.346 199.66 305.354 369.224C115.362 538.788 288.423 626.202 504.358 599.966Z" stroke="#6C76D4" stroke-opacity="0.5"/>
<path d="M504.886 586.538C673.07 568.788 872.359 581.68 896.491 386.047C949.867 -46.6639 535.816 -63.3168 547.617 69.7426C569.548 317.04 502.258 197.411 315.043 359.272C127.827 521.132 294.656 608.725 504.886 586.538Z" stroke="#6C76D4" stroke-opacity="0.5"/>
<path d="M505.555 573.486C669.117 558.826 862.41 574.392 888.833 384.818C947.277 -34.4903 545.528 -56.9948 554.95 72.3751C572.46 312.815 508.958 195.636 324.713 349.924C140.468 504.212 301.102 591.81 505.555 573.486Z" stroke="#6C76D4" stroke-opacity="0.5"/>
<path d="M506.35 560.806C665.236 549.085 852.501 567.14 881.03 383.648C944.133 -22.2085 554.765 -50.1812 561.926 75.4582C575.236 308.965 515.428 194.325 334.345 341.175C153.261 488.025 307.743 575.456 506.35 560.806Z" stroke="#6C76D4" stroke-opacity="0.5"/>
<path d="M507.265 548.507C661.423 539.575 842.629 559.933 873.08 382.541C940.433 -9.82489 563.515 -42.8813 568.537 78.9894C577.869 305.492 521.659 193.477 343.924 333.028C166.19 472.58 314.566 559.672 507.265 548.507Z" stroke="#6C76D4" stroke-opacity="0.5"/>
<path d="M508.294 536.589C657.678 530.294 832.801 552.768 864.989 381.489C936.183 2.64452 571.776 -35.1106 574.778 82.9562C580.357 302.389 527.646 193.083 353.444 325.479C179.242 457.875 321.563 544.458 508.294 536.589Z" stroke="#6C76D4" stroke-opacity="0.5"/>
<path d="M509.421 525.054C653.987 521.242 823.008 545.647 856.747 380.49C931.373 15.1875 579.528 -26.8804 580.632 87.3501C582.683 299.653 533.373 193.137 362.883 318.525C192.393 443.913 328.713 529.818 509.421 525.054Z" stroke="#6C76D4" stroke-opacity="0.5"/>
<path d="M510.642 513.901C650.351 512.421 813.252 538.569 848.358 379.54C926.009 27.7894 586.769 -18.2052 586.096 92.1594C584.845 297.277 538.833 193.631 372.231 312.161C205.63 430.692 336.007 515.752 510.642 513.901Z" stroke="#6C76D4" stroke-opacity="0.5"/>
<path d="M511.946 503.134C646.761 503.83 803.531 531.536 839.82 378.634C920.086 40.4383 593.484 -9.09655 591.157 97.3755C586.831 295.259 544.014 194.559 381.474 306.387C218.934 418.214 343.429 502.265 511.946 503.134Z" stroke="#6C76D4" stroke-opacity="0.5"/>
<path d="M513.326 492.754C643.214 495.472 793.846 524.548 831.134 377.771C913.609 53.1213 599.67 0.432611 595.81 102.988C588.637 293.593 548.911 195.914 390.6 301.197C232.289 406.48 350.967 489.357 513.326 492.754Z" stroke="#6C76D4" stroke-opacity="0.5"/>
<path d="M514.771 482.758C639.702 487.342 784.194 517.603 822.297 376.943C906.574 65.8219 605.313 10.3657 600.044 108.984C590.252 292.271 553.511 197.684 399.593 296.585C245.676 395.486 358.607 477.028 514.771 482.758Z" stroke="#6C76D4" stroke-opacity="0.5"/>
<path d="M516.273 473.153C636.223 479.448 774.576 510.707 813.31 376.151C898.984 78.5329 610.408 20.6951 603.853 115.358C591.671 291.294 557.806 199.868 408.442 292.552C259.079 385.236 366.335 465.284 516.273 473.153Z" stroke="#6C76D4" stroke-opacity="0.5"/>
<path d="M517.821 463.937C632.768 471.788 764.987 503.859 804.171 375.391C890.839 91.2385 614.944 31.4045 607.226 122.097C592.883 290.655 561.786 202.455 417.132 289.092C272.479 375.728 374.137 454.123 517.821 463.937Z" stroke="#6C76D4" stroke-opacity="0.5"/>
<path d="M519.409 455.11C629.335 464.36 755.432 497.06 794.883 374.659C882.142 103.926 618.917 42.481 610.16 129.191C593.885 290.347 565.445 205.438 425.654 286.199C285.863 366.96 382.002 443.547 519.409 455.11Z" stroke="#6C76D4" stroke-opacity="0.5"/>
<path d="M521.026 446.671C625.916 457.164 745.904 490.306 785.441 373.948C872.892 116.581 622.316 53.9079 612.643 136.627C594.666 290.363 568.771 208.806 433.99 283.868C299.209 358.929 389.913 433.554 521.026 446.671Z" stroke="#6C76D4" stroke-opacity="0.5"/>
<path d="M522.661 438.623C622.506 450.203 736.403 483.604 775.847 373.259C863.09 129.193 625.134 65.675 614.669 144.396C595.218 290.702 571.756 212.554 442.128 282.095C312.501 351.635 397.856 424.147 522.661 438.623Z" stroke="#6C76D4" stroke-opacity="0.5"/>
<path d="M524.308 430.963C619.099 443.474 726.93 476.951 766.1 372.587C852.739 141.748 627.365 77.7664 616.23 152.486C595.537 291.354 574.393 216.672 450.058 280.874C325.722 345.075 405.818 415.325 524.308 430.963Z" stroke="#6C76D4" stroke-opacity="0.5"/>
<path d="M525.957 423.694C615.693 436.979 717.483 470.348 756.202 371.927C841.843 154.234 629.003 90.1686 617.323 160.885C595.616 292.316 576.675 221.152 457.766 280.199C338.857 339.246 413.789 407.087 525.957 423.694Z" stroke="#6C76D4" stroke-opacity="0.5"/>
<path d="M527.599 416.812C612.278 430.716 708.06 463.797 746.151 371.278C830.402 166.638 630.04 102.867 617.938 169.584C595.445 293.58 578.591 225.984 465.239 280.065C351.887 334.146 421.75 399.433 527.599 416.812Z" stroke="#6C76D4" stroke-opacity="0.5"/>
<path d="M529.222 410.317C608.849 424.683 698.659 457.295 735.945 370.631C818.418 178.944 630.468 115.844 618.067 178.567C595.018 295.139 580.133 231.157 472.463 280.462C364.793 329.768 429.688 392.359 529.222 410.317Z" stroke="#6C76D4" stroke-opacity="0.5"/>
<path d="M530.82 404.209C605.403 418.883 689.28 450.846 725.588 369.989C805.896 191.145 630.285 129.09 617.707 187.826C594.33 296.989 581.296 236.666 479.429 281.389C377.562 326.112 437.592 385.868 530.82 404.209Z" stroke="#6C76D4" stroke-opacity="0.5"/>
<path d="M532.383 398.489C601.932 413.314 679.921 444.45 715.078 369.346C792.838 203.226 629.483 142.589 616.851 197.349C593.373 299.123 582.071 242.501 486.123 282.837C390.174 323.173 445.446 379.957 532.383 398.489Z" stroke="#6C76D4" stroke-opacity="0.5"/>
<path d="M533.903 393.152C598.434 407.974 670.583 438.106 704.416 368.697C779.248 215.174 628.06 156.324 615.495 207.122C592.143 301.533 582.453 248.651 492.534 284.799C402.616 320.946 453.239 374.624 533.903 393.152Z" stroke="#6C76D4" stroke-opacity="0.5"/>
<path d="M535.371 388.199C594.902 402.864 661.263 431.816 693.602 368.041C765.131 226.978 626.009 170.283 613.633 217.136C590.633 304.214 582.433 255.107 498.651 287.267C414.87 319.427 460.956 369.868 535.371 388.199Z" stroke="#6C76D4" stroke-opacity="0.5"/>
<path d="M536.776 383.626C591.33 397.98 651.959 425.577 682.636 367.37C750.489 238.623 623.323 184.447 611.258 227.374C588.834 307.156 582.004 261.857 504.461 290.233C426.917 318.608 468.583 365.683 536.776 383.626Z" stroke="#6C76D4" stroke-opacity="0.5"/>
<path d="M538.11 379.433C587.713 393.324 642.671 419.394 671.519 366.685C735.326 250.1 620.002 198.804 608.367 237.828C586.743 310.356 581.16 268.895 509.952 293.691C438.744 318.487 476.107 362.07 538.11 379.433Z" stroke="#6C76D4" stroke-opacity="0.5"/>
<path d="M539.364 375.619C584.044 388.893 633.396 413.266 660.25 365.981C719.647 261.395 616.039 213.339 604.954 248.485C584.353 313.806 579.894 276.21 515.113 297.633C450.332 319.057 483.514 359.025 539.364 375.619Z" stroke="#6C76D4" stroke-opacity="0.5"/>
<path d="M540.531 372.178C580.322 384.686 624.136 407.19 648.832 365.254C703.458 272.496 611.432 228.035 601.017 259.331C581.66 317.495 578.202 283.788 519.935 302.049C461.668 320.31 490.793 356.543 540.531 372.178Z" stroke="#6C76D4" stroke-opacity="0.5"/>
<path d="M541.602 369.11C576.539 380.7 614.887 401.168 637.266 364.499C686.764 283.391 606.179 242.877 596.552 270.353C578.658 321.418 576.078 291.622 524.406 306.931C472.735 322.241 497.929 354.622 541.602 369.11Z" stroke="#6C76D4" stroke-opacity="0.5"/>
<path d="M542.565 366.414C572.69 376.937 605.649 395.203 625.55 363.716C669.568 294.071 600.274 257.851 591.552 281.541C575.341 325.57 573.513 299.703 528.514 312.273C483.516 324.844 504.909 353.26 542.565 366.414Z" stroke="#6C76D4" stroke-opacity="0.5"/>
<path d="M543.413 364.084C568.768 373.392 596.418 389.292 613.685 362.899C651.877 304.521 593.715 272.94 586.015 292.88C571.702 329.94 570.503 308.017 532.249 318.063C493.995 328.109 511.72 352.45 543.413 364.084Z" stroke="#6C76D4" stroke-opacity="0.5"/>
</g>
<defs>
<clipPath id="clip0_5355_4215">
<rect width="960" height="600" fill="white"/>
</clipPath>
</defs>
</svg>
