<svg width="1600" height="600" viewBox="0 0 1600 600" fill="none" xmlns="http://www.w3.org/2000/svg">
<g clip-path="url(#clip0_5299_3401)">
<path d="M0.00149167 484.407C89.9665 476.716 223.838 348.697 350.398 349.277C476.958 349.857 466.582 425.774 650.315 426.617C834.049 427.459 837.187 246.171 958.751 246.729C1080.31 247.286 1043.13 355.998 1189.73 344.516C1318.57 334.426 1309.05 130.21 1375.18 115.953C1456.24 98.4775 1431.78 230.666 1599.41 231.435" stroke="#6C76D4" stroke-opacity="0.7"/>
<path d="M0.0214473 481.369C89.9847 474.027 223.829 351.54 350.388 352.12C476.948 352.701 466.588 425.351 650.322 426.193C834.055 427.036 837.154 253.545 958.718 254.103C1080.28 254.66 1043.12 358.689 1189.72 347.73C1318.55 338.099 1308.99 142.665 1375.12 129.034C1456.17 112.326 1431.74 238.824 1599.38 239.593" stroke="#6C76D4" stroke-opacity="0.7"/>
<path d="M0.0289634 479.349C89.9907 472.29 223.812 354.298 350.372 354.878C476.931 355.459 466.585 425.454 650.319 426.297C834.052 427.139 837.119 259.984 958.683 260.542C1080.25 261.099 1043.1 361.323 1189.7 350.789C1318.53 341.531 1308.94 153.232 1375.06 140.109C1456.11 124.025 1431.7 245.9 1599.34 246.669" stroke="#6C76D4" stroke-opacity="0.7"/>
<path d="M0.0428193 477.323C90.0029 470.591 223.798 357.786 350.358 358.366C476.917 358.946 466.586 425.879 650.32 426.721C834.053 427.564 837.083 267.72 958.647 268.277C1080.21 268.834 1043.09 364.668 1189.69 354.624C1318.51 345.797 1308.88 165.73 1375 153.195C1456.04 137.83 1431.66 254.371 1599.3 255.139" stroke="#6C76D4" stroke-opacity="0.7"/>
<path d="M0.053017 475.3C90.0116 468.873 223.782 360.908 350.342 361.489C476.901 362.069 466.585 426.142 650.319 426.985C834.052 427.827 837.047 274.806 958.611 275.364C1080.18 275.921 1043.07 367.657 1189.67 358.07C1318.49 349.645 1308.82 177.262 1374.94 165.275C1455.98 150.582 1431.62 262.143 1599.26 262.912" stroke="#6C76D4" stroke-opacity="0.7"/>
<path d="M0.0666088 472.266C90.023 466.274 223.758 365.225 350.318 365.805C476.878 366.386 466.582 426.375 650.316 427.218C834.049 428.06 836.995 284.786 958.559 285.344C1080.12 285.901 1043.05 371.784 1189.64 362.85C1318.47 354.999 1308.74 193.593 1374.85 182.388C1455.88 168.655 1431.57 273.104 1599.2 273.872" stroke="#6C76D4" stroke-opacity="0.7"/>
<path d="M0.0806968 470.241C90.0351 464.642 223.739 369.817 350.299 370.397C476.858 370.977 466.581 427.291 650.315 428.134C834.048 428.976 836.95 294.475 958.514 295.032C1080.08 295.59 1043.03 376.204 1189.62 367.858C1318.44 360.524 1308.66 208.997 1374.77 198.497C1455.8 185.627 1431.52 283.674 1599.15 284.443" stroke="#6C76D4" stroke-opacity="0.7"/>
<path d="M0.0818494 468.215C90.0344 462.986 223.709 374.04 350.268 374.62C476.828 375.2 466.568 428.043 650.302 428.885C834.035 429.728 836.895 303.511 958.459 304.069C1080.02 304.626 1043 380.265 1189.59 372.475C1318.41 365.629 1308.58 223.432 1374.69 213.597C1455.71 201.543 1431.46 293.544 1599.09 294.313" stroke="#6C76D4" stroke-opacity="0.7"/>
<path d="M0.103478 464.172C90.0532 459.487 223.684 379.185 350.243 379.765C476.803 380.346 466.569 428.083 650.303 428.926C834.036 429.768 836.834 315.736 958.398 316.293C1079.96 316.851 1042.98 385.172 1189.56 378.198C1318.37 372.07 1308.48 243.594 1374.58 234.738C1455.6 223.883 1431.39 306.994 1599.03 307.762" stroke="#6C76D4" stroke-opacity="0.7"/>
<path d="M0.114372 462.144C90.0616 457.96 223.652 385.611 350.211 386.191C476.771 386.772 466.561 429.812 650.295 430.655C834.028 431.497 836.769 328.674 958.333 329.232C1079.9 329.789 1042.95 391.379 1189.53 385.157C1318.34 379.689 1308.38 263.836 1374.47 255.88C1455.49 246.129 1431.32 321.06 1598.95 321.828" stroke="#6C76D4" stroke-opacity="0.7"/>
<path d="M0.122816 460.12C90.0673 456.481 223.614 392.777 350.173 393.357C476.733 393.937 466.549 431.873 650.283 432.715C834.016 433.558 836.695 342.919 958.259 343.476C1079.82 344.034 1042.91 398.306 1189.49 392.901C1318.29 388.151 1308.26 286.019 1374.35 279.042C1455.36 270.489 1431.24 336.529 1598.87 337.298" stroke="#6C76D4" stroke-opacity="0.7"/>
<path d="M0.141283 458.099C90.0833 454.939 223.591 398.842 350.151 399.422C476.71 400.002 466.549 433.446 650.283 434.288C834.016 435.131 836.641 355.214 958.205 355.771C1079.77 356.328 1042.89 404.161 1189.46 399.475C1318.26 395.357 1308.17 305.299 1374.26 299.183C1455.26 291.686 1431.18 349.902 1598.82 350.671" stroke="#6C76D4" stroke-opacity="0.7"/>
<path d="M0.157764 455.061C90.0965 452.555 223.552 406.831 350.111 407.411C476.671 407.992 466.541 435.309 650.274 436.151C834.008 436.994 836.559 371.698 958.123 372.255C1079.69 372.812 1042.85 411.865 1189.42 408.159C1318.22 404.902 1308.04 331.309 1374.12 326.367C1455.12 320.31 1431.09 367.856 1598.73 368.625" stroke="#6C76D4" stroke-opacity="0.7"/>
<path d="M0.163039 453.04C90.0991 451.056 223.512 413.631 350.072 414.211C476.632 414.792 466.526 437.208 650.26 438.051C833.993 438.893 836.485 385.294 958.049 385.851C1079.61 386.408 1042.81 418.436 1189.38 415.514C1318.17 412.946 1307.93 352.526 1374.01 348.523C1455 343.617 1431.01 382.629 1598.65 383.397" stroke="#6C76D4" stroke-opacity="0.7"/>
</g>
<defs>
<clipPath id="clip0_5299_3401">
<rect width="1600" height="600" fill="white"/>
</clipPath>
</defs>
</svg>
