<svg width="600" height="600" viewBox="0 0 600 600" fill="none" xmlns="http://www.w3.org/2000/svg">
<path d="M448.14 411.66C388.419 491.522 273.529 506.166 191.516 444.305C109.503 382.443 91.4841 267.547 151.205 187.685C210.926 107.823 325.816 93.1784 407.829 155.04C489.842 216.901 507.861 331.798 448.14 411.66Z" stroke="#6C76D4" stroke-opacity="0.7" stroke-width="1.5"/>
<path d="M444.738 413.91C386.313 492.078 272.993 505.737 191.615 444.324C110.238 382.911 91.7076 269.747 150.132 191.578C208.557 113.41 321.878 99.7512 403.255 161.165C484.632 222.578 503.162 335.742 444.738 413.91Z" stroke="#6C76D4" stroke-opacity="0.7" stroke-width="1.5"/>
<path d="M441.253 416.9C384.32 493.073 272.563 505.414 191.616 444.325C110.669 383.236 91.3146 271.949 148.248 195.777C205.181 119.604 316.937 107.263 397.884 168.352C478.832 229.441 498.186 340.728 441.253 416.9Z" stroke="#6C76D4" stroke-opacity="0.7" stroke-width="1.5"/>
<path d="M437.478 420.475C382.25 494.366 272.188 505.132 191.615 444.326C111.043 383.52 90.6553 274.308 145.883 200.416C201.111 126.525 311.173 115.76 391.745 176.566C472.318 237.372 492.705 346.584 437.478 420.475Z" stroke="#6C76D4" stroke-opacity="0.7" stroke-width="1.5"/>
<path d="M432.796 424.162C379.486 495.488 271.525 504.626 191.615 444.321C111.705 384.015 90.3473 277.283 143.658 205.957C196.968 134.632 304.93 125.494 384.839 185.8C464.749 246.105 486.106 352.837 432.796 424.162Z" stroke="#6C76D4" stroke-opacity="0.7" stroke-width="1.5"/>
<path d="M427.559 427.436C376.165 496.198 270.552 503.894 191.613 444.321C112.674 384.748 90.5925 280.684 141.987 211.923C193.381 143.161 298.993 135.466 377.932 195.039C456.871 254.612 478.952 358.675 427.559 427.436Z" stroke="#6C76D4" stroke-opacity="0.7" stroke-width="1.5"/>
<path d="M422.703 430.999C373.226 497.195 269.795 503.323 191.615 444.323C113.435 385.323 90.4639 283.801 139.94 217.605C189.417 151.409 292.848 145.28 371.028 204.28C449.209 263.281 472.179 364.803 422.703 430.999Z" stroke="#6C76D4" stroke-opacity="0.7" stroke-width="1.5"/>
<path d="M416.224 434.94C369.09 498.001 268.566 502.397 191.615 444.324C114.664 386.251 90.8467 288.018 137.98 224.957C185.114 161.895 285.637 157.5 362.589 215.573C439.54 273.646 463.357 371.878 416.224 434.94Z" stroke="#6C76D4" stroke-opacity="0.7" stroke-width="1.5"/>
<path d="M409.727 438.465C364.829 498.535 267.221 501.38 191.615 444.322C116.009 387.264 91.5237 292.279 136.422 232.208C181.32 172.138 278.927 169.292 354.533 226.35C430.139 283.408 454.625 378.394 409.727 438.465Z" stroke="#6C76D4" stroke-opacity="0.7" stroke-width="1.5"/>
<path d="M403.052 442.855C381.848 471.225 347.621 485.632 309.348 485.923C271.075 486.213 228.798 472.381 191.615 444.32C154.433 416.259 129.429 379.317 119.039 342.301C108.649 305.286 112.879 268.241 134.083 239.871C155.287 211.501 189.514 197.094 227.787 196.803C266.061 196.512 308.337 210.346 345.52 238.406C382.702 266.467 407.707 303.409 418.097 340.425C428.486 377.44 424.256 414.485 403.052 442.855Z" stroke="#6C76D4" stroke-opacity="0.7" stroke-width="1.5"/>
<path d="M394.628 445.05C374.557 471.904 341.843 485.315 305.092 485.21C268.342 485.105 227.604 471.479 191.617 444.32C155.629 417.161 131.251 381.647 120.908 346.211C110.565 310.775 114.264 275.468 134.335 248.613C154.407 221.759 187.121 208.349 223.871 208.453C260.622 208.558 301.36 222.183 337.347 249.342C373.335 276.501 397.712 312.016 408.056 347.452C418.399 382.888 414.7 418.195 394.628 445.05Z" stroke="#6C76D4" stroke-opacity="0.7" stroke-width="1.5"/>
<path d="M385.409 448.484C366.716 473.493 335.731 485.608 300.645 484.885C265.561 484.162 226.438 470.595 191.621 444.32C156.803 418.044 132.932 384.07 122.462 350.415C111.992 316.758 114.934 283.48 133.627 258.471C152.319 233.462 183.304 221.347 218.39 222.07C253.475 222.793 292.598 236.36 327.415 262.636C362.233 288.912 386.103 322.884 396.573 356.54C407.043 390.197 404.101 423.475 385.409 448.484Z" stroke="#6C76D4" stroke-opacity="0.7" stroke-width="1.5"/>
<path d="M376.865 453.182C359.654 476.209 330.376 486.827 296.828 485.258C263.284 483.689 225.554 469.932 191.617 444.321C157.681 418.71 134.016 386.134 123.168 354.201C112.317 322.263 114.305 291.05 131.515 268.024C148.726 244.997 178.003 234.38 211.551 235.949C245.095 237.518 282.826 251.275 316.763 276.886C350.699 302.497 374.363 335.073 385.212 367.006C396.062 398.943 394.075 430.156 376.865 453.182Z" stroke="#6C76D4" stroke-opacity="0.7" stroke-width="1.5"/>
<path d="M364.699 456.886C349.199 477.623 322.151 486.701 290.795 484.465C259.448 482.23 223.902 468.684 191.619 444.321C159.336 419.958 136.482 389.431 125.609 359.804C114.733 330.168 115.87 301.535 131.369 280.798C146.868 260.061 173.917 250.983 205.273 253.219C236.62 255.454 272.165 268.999 304.448 293.363C336.732 317.726 359.585 348.253 370.459 377.88C381.335 407.516 380.198 436.149 364.699 456.886Z" stroke="#6C76D4" stroke-opacity="0.7" stroke-width="1.5"/>
<path d="M351.926 457.941C337.844 476.781 312.939 484.803 283.889 482.377C254.851 479.953 221.791 467.087 191.62 444.319C161.45 421.55 139.939 393.231 129.528 365.885C119.113 338.527 119.838 312.258 133.92 293.417C148.001 274.577 172.907 266.554 201.957 268.98C230.994 271.404 264.056 284.27 294.226 307.039C324.397 329.808 345.907 358.126 356.318 385.472C366.733 412.83 366.007 439.1 351.926 457.941Z" stroke="#6C76D4" stroke-opacity="0.7" stroke-width="1.5"/>
<path d="M340.535 462.298C328.179 478.829 305.43 485.243 278.424 482.032C251.439 478.825 220.361 466.014 191.619 444.322C162.876 422.631 141.971 396.211 131.384 371.065C120.788 345.898 120.578 322.157 132.933 305.627C145.289 289.096 168.038 282.681 195.044 285.891C222.029 289.099 253.106 301.911 281.848 323.601C310.591 345.293 331.498 371.712 342.085 396.859C352.68 422.026 352.89 445.767 340.535 462.298Z" stroke="#6C76D4" stroke-opacity="0.7" stroke-width="1.5"/>
<path d="M322.246 464.738C312.052 478.377 292.45 483.111 268.731 479.461C245.047 475.815 217.461 463.825 191.617 444.321C165.774 424.818 146.626 401.539 136.54 379.699C126.44 357.828 125.502 337.592 135.696 323.953C145.889 310.315 165.491 305.581 189.209 309.232C212.893 312.877 240.48 324.866 266.323 344.37C292.167 363.873 311.315 387.153 321.4 408.993C331.501 430.864 332.439 451.099 322.246 464.738Z" stroke="#6C76D4" stroke-opacity="0.7" stroke-width="1.5"/>
<path d="M307.407 468.66C299.238 479.588 282.345 482.599 261.27 478.235C240.257 473.885 215.37 462.245 191.618 444.32C167.866 426.395 149.805 405.623 139.79 386.557C129.746 367.436 127.914 350.295 136.082 339.366C144.251 328.437 161.144 325.426 182.22 329.79C203.232 334.14 228.12 345.779 251.872 363.704C275.624 381.629 293.685 402.402 303.7 421.467C313.744 440.589 315.575 457.731 307.407 468.66Z" stroke="#6C76D4" stroke-opacity="0.7" stroke-width="1.5"/>
<path d="M281.515 469.07C278.772 472.739 274.27 474.903 268.343 475.587C262.414 476.271 255.129 475.462 246.955 473.251C230.611 468.83 210.865 458.844 191.619 444.319C172.373 429.795 157.325 413.523 148.544 398.983C144.153 391.711 141.349 384.907 140.35 378.994C139.352 373.084 140.166 368.136 142.908 364.467C145.651 360.798 150.153 358.633 156.08 357.949C162.009 357.265 169.294 358.074 177.468 360.285C193.812 364.707 213.558 374.692 232.804 389.217C252.05 403.741 267.098 420.013 275.879 434.553C280.27 441.825 283.074 448.63 284.073 454.542C285.071 460.452 284.257 465.4 281.515 469.07Z" stroke="#6C76D4" stroke-opacity="0.7" stroke-width="1.5"/>
<path d="M262.297 472.937C260.84 474.887 257.905 475.802 253.5 475.5C249.133 475.199 243.538 473.711 237.082 471.148C224.18 466.028 208 456.684 191.617 444.32C175.235 431.957 161.794 418.947 153.305 407.924C149.056 402.408 146.075 397.424 144.571 393.293C143.053 389.126 143.11 386.039 144.567 384.09C146.025 382.14 148.959 381.225 153.364 381.528C157.732 381.828 163.326 383.316 169.782 385.879C182.683 390.999 198.863 400.343 215.246 412.707C231.629 425.07 245.069 438.08 253.559 449.103C257.807 454.619 260.789 459.603 262.294 463.734C263.811 467.901 263.754 470.988 262.297 472.937Z" stroke="#6C76D4" stroke-opacity="0.7" stroke-width="1.5"/>
<path d="M230.84 462.565C230.577 462.917 230.13 463.194 229.411 463.336C228.686 463.479 227.735 463.472 226.561 463.293C224.214 462.934 221.133 461.912 217.516 460.286C210.293 457.04 201.086 451.463 191.619 444.319C182.153 437.174 174.256 429.844 169.14 423.778C166.579 420.741 164.742 418.052 163.745 415.887C163.247 414.804 162.975 413.888 162.91 413.149C162.845 412.415 162.986 411.907 163.248 411.556C163.511 411.204 163.958 410.926 164.677 410.784C165.402 410.641 166.353 410.648 167.527 410.827C169.874 411.185 172.955 412.209 176.572 413.835C183.795 417.081 193.003 422.657 202.47 429.802C211.936 436.946 219.833 444.277 224.948 450.343C227.509 453.38 229.346 456.067 230.343 458.232C230.842 459.315 231.113 460.231 231.178 460.971C231.243 461.705 231.103 462.214 230.84 462.565Z" stroke="#6C76D4" stroke-opacity="0.7" stroke-width="1.5"/>
</svg>
