<svg width="960" height="600" viewBox="0 0 960 600" fill="none" xmlns="http://www.w3.org/2000/svg">
<g clip-path="url(#clip0_5299_3318)">
<path d="M65.6804 625.965C125.676 586.176 160.868 545.071 181.997 514.612C203.363 483.81 215.72 456.105 249.681 426.211C287.1 393.169 317.356 382.155 329.718 378.517C346.86 373.479 347.164 376.286 376.468 370.344C432.761 358.931 438.234 347.253 465.223 345.356C509.97 342.207 513.034 373.029 565.597 380.222C603.665 385.439 657.218 376.818 691.65 343.503C724.074 312.129 713.989 283.587 752.086 257.833C767.734 247.254 783.307 243.115 814.444 234.842C854.323 224.193 883.768 221.897 895.273 220.454C929.363 216.196 978.379 198.38 1040.08 135.949" stroke="#6C76D4" stroke-opacity="0.7" stroke-miterlimit="10"/>
<path d="M69.908 634.667C128.244 596.726 165.4 556.604 188.88 524.167C207.862 497.649 220.073 473.298 241.841 448.737C246.606 443.371 251.724 437.899 257.476 432.442C293.726 398.067 322.521 384.643 334.738 379.398C351.116 372.355 352.054 374.064 380.738 368.175C400.948 364.014 414.929 360.299 425.561 357.061C443.63 351.551 451.871 347.326 468.241 346.824C474.338 346.616 480.439 347.112 486.422 348.3C514.093 353.79 524.347 374.378 567.501 378.478C605.064 382.047 657.27 371.678 691.053 338.82C693.729 336.215 696.271 333.476 698.67 330.614C722.869 301.718 718.2 276.826 751.659 254.143C755.182 251.748 758.861 249.59 762.672 247.684C775.455 241.241 790.137 237.253 813.45 231.051C852.1 220.827 881.069 218.53 893.76 216.949C903.04 215.762 912.204 213.799 921.155 211.08C952.172 201.748 991.764 180.809 1038.7 135.394" stroke="#6C76D4" stroke-opacity="0.7" stroke-miterlimit="10"/>
<path d="M74.5475 644.116C131.204 608.009 170.441 568.97 196.133 534.393C216.54 506.943 229.279 481.39 250.279 456.613C255.066 450.948 260.058 445.132 265.696 439.4C300.772 403.683 327.578 386.977 340.193 381.001C356.458 373.32 357.405 372.563 385.424 366.738C405.05 362.674 419.225 359.427 429.922 356.74C447.931 352.189 455.96 348.855 471.641 349.055C477.632 349.159 483.597 349.865 489.445 351.164C516.415 356.901 527.714 375.341 569.851 377.499C606.905 379.411 657.764 367.295 690.898 334.893C693.684 332.114 696.219 329.472 698.458 326.744C723.506 297.094 719.489 273.119 751.716 251.263C755.205 248.874 758.848 246.72 762.621 244.813C775.578 238.186 790.193 234.123 812.981 228.147C850.391 218.304 878.881 216.045 892.715 214.223C901.918 213.043 911.012 211.125 919.909 208.489C950.75 199.429 990.523 179.253 1037.73 135.636" stroke="#6C76D4" stroke-opacity="0.7" stroke-miterlimit="10"/>
<path d="M79.5387 654.185C134.537 619.951 175.758 581.885 203.764 545.287C225.516 516.849 238.837 490.127 259.044 465.135C263.864 459.164 268.745 453.01 274.245 447.004C308.157 409.963 333.98 391.923 345.971 383.24C360.81 372.505 363.078 371.697 390.443 365.933C409.492 361.934 423.868 359.165 434.678 357.003C452.611 353.406 460.459 350.971 475.446 351.865C481.297 352.304 487.101 353.235 492.796 354.649C519.058 360.624 531.455 376.874 572.494 377.123C609.076 377.357 658.555 363.524 691.035 331.569C693.792 328.806 696.308 326.175 698.543 323.485C724.394 293.045 721.081 270.008 752.002 248.894C755.46 246.511 759.07 244.358 762.809 242.448C775.936 235.628 790.533 231.487 812.74 225.705C848.885 216.244 876.91 214.003 891.919 212.023C901.052 210.823 910.083 208.943 918.936 206.399C949.602 197.61 989.561 178.207 1037.03 136.384" stroke="#6C76D4" stroke-opacity="0.7" stroke-miterlimit="10"/>
<path d="M84.5305 664.279C137.869 631.893 181.065 594.829 211.391 556.196C234.491 526.754 248.38 498.858 267.824 473.661C272.667 467.39 277.422 460.892 282.808 454.611C315.572 416.276 339.854 396.021 351.774 385.502C365.856 373.071 368.738 370.876 395.487 365.15C414.014 361.226 428.516 358.937 439.405 357.282C457.256 354.629 464.924 353.118 479.222 354.69C484.922 355.462 490.565 356.614 496.112 358.139C521.667 364.327 535.166 378.398 575.148 376.79C611.253 375.336 659.348 359.802 691.188 328.298C693.906 325.556 696.404 322.935 698.64 320.27C725.309 289.044 722.732 267.052 752.326 246.616C755.761 244.252 759.338 242.101 763.035 240.174C776.317 233.181 790.834 228.985 812.536 223.354C847.446 214.284 875.002 212.076 891.171 209.909C900.234 208.71 909.202 206.873 918.006 204.41C948.511 195.897 988.646 177.247 1036.4 137.232" stroke="#6C76D4" stroke-opacity="0.7" stroke-miterlimit="10"/>
<path d="M87.6171 670.857C139.296 640.32 184.482 604.262 217.117 563.599C241.551 533.15 256.002 504.046 274.704 478.681C279.554 472.106 284.224 465.293 289.472 458.713C321.068 419.095 343.864 396.656 355.638 384.255C369.01 370.189 372.521 366.5 398.591 360.858C412.996 357.756 427.57 355.504 442.239 354.114C460.032 352.38 467.512 351.822 481.064 354.041C486.99 355.024 492.177 356.687 497.581 358.107C522.407 364.471 537.055 376.423 575.926 372.926C611.578 369.76 658.274 352.543 689.465 321.496C692.154 318.77 694.633 316.159 696.86 313.524C724.372 281.535 722.442 260.425 750.783 240.802C754.189 238.453 757.731 236.308 761.39 234.378C774.857 227.222 789.296 222.93 810.412 217.46C844.061 208.757 871.168 206.596 888.486 204.247C897.486 203.043 906.395 201.241 915.155 198.853C945.489 190.62 985.801 172.748 1033.82 134.522" stroke="#6C76D4" stroke-opacity="0.7" stroke-miterlimit="10"/>
<path d="M89.6641 675.632C139.664 646.929 186.835 611.869 221.799 569.189C247.567 537.733 262.549 507.412 280.566 481.936C285.428 475.042 289.988 467.915 295.116 461.05C325.61 420.151 346.934 395.533 358.542 381.236C371.202 365.6 375.305 360.373 400.73 354.786C414.977 351.655 429.465 349.746 444.036 349.079C461.722 348.266 469.062 348.66 481.931 351.591C487.633 352.872 492.64 354.821 498.036 356.295C522.185 362.906 537.892 372.552 575.689 367.283C610.897 362.374 656.195 343.5 686.732 312.899C689.383 310.194 691.833 307.6 694.07 304.984C722.442 272.26 721.203 252.045 748.263 233.276C751.637 230.932 755.146 228.788 758.772 226.856C772.394 219.527 786.786 215.149 807.361 209.9C839.766 201.593 866.397 199.455 884.896 196.934C893.823 195.722 902.667 193.959 911.377 191.654C941.55 183.698 982.049 166.598 1030.33 130.151" stroke="#6C76D4" stroke-opacity="0.7" stroke-miterlimit="10"/>
<path d="M91.7763 680.458C140.117 653.628 189.233 619.537 226.546 574.831C253.633 542.363 269.126 510.812 286.426 485.167C291.29 477.935 295.759 470.482 300.769 463.357C330.15 421.206 350.044 394.437 361.42 378.194C373.494 360.967 378.078 354.226 402.849 348.698C416.986 345.579 431.428 344.055 445.905 344.153C463.455 344.252 470.685 345.631 482.844 349.203C488.298 350.807 493.129 353.003 498.523 354.565C521.968 361.35 538.804 368.752 575.498 361.702C610.26 355.025 654.138 334.519 684.002 304.401C686.624 301.711 689.055 299.127 691.279 296.531C720.472 263.006 719.873 243.752 745.677 225.698C749.022 223.369 752.494 221.229 756.078 219.287C769.848 211.727 784.199 207.321 804.223 202.275C835.377 194.33 861.541 192.249 881.203 189.526C890.067 188.318 898.853 186.598 907.518 184.376C937.499 176.662 978.185 160.334 1026.75 125.711" stroke="#6C76D4" stroke-opacity="0.7" stroke-miterlimit="10"/>
<path d="M93.8897 685.309C140.571 660.327 191.651 627.22 231.294 580.497C259.71 547.012 275.709 514.221 292.332 488.46C297.195 480.929 301.598 473.175 306.439 465.718C334.718 422.31 353.2 393.38 364.335 375.194C375.808 356.397 380.873 348.118 404.998 342.644C419.02 339.535 433.403 338.366 447.743 339.17C465.238 340.149 472.273 342.56 483.721 346.772C488.943 348.703 493.605 351.117 498.988 352.773C521.735 359.742 539.665 364.88 575.272 356.077C609.592 347.594 652.06 325.5 681.299 295.812C683.892 293.139 686.303 290.565 688.524 288.009C718.586 253.745 718.62 235.393 743.159 218.108C746.478 215.792 749.917 213.654 753.462 211.701C767.386 203.943 781.735 199.464 801.178 194.612C831.072 187.059 856.781 185.015 877.603 182.105C886.402 180.907 895.131 179.239 903.752 177.108C933.588 169.699 974.439 154.105 1023.28 121.28" stroke="#6C76D4" stroke-opacity="0.7" stroke-miterlimit="10"/>
<path d="M95.9935 690.14C141 666.978 194.058 634.834 236.036 586.104C265.813 551.571 282.256 517.562 298.233 491.693C303.088 483.829 307.416 475.779 312.128 468.043C339.311 423.413 356.396 392.325 367.253 372.154C378.192 351.814 383.687 341.974 407.158 336.56C421.089 333.485 435.427 332.694 449.612 334.22C466.999 336.07 473.898 339.531 484.63 344.373C489.619 346.632 494.079 349.27 499.514 350.997C521.575 358.129 540.588 360.937 575.12 350.45C608.987 340.14 650.047 316.483 678.646 287.246C681.201 284.594 683.593 282.031 685.841 279.547C716.757 244.539 717.433 227.084 740.699 210.598C743.986 208.274 747.4 206.133 750.923 204.184C765.044 196.307 779.265 191.71 798.179 186.986C826.823 179.819 852.068 177.818 874.059 174.716C882.008 173.601 890.651 172.067 900.015 169.799C929.676 162.662 970.713 147.84 1019.81 116.809" stroke="#6C76D4" stroke-opacity="0.7" stroke-miterlimit="10"/>
<path d="M98.0228 694.837C141.327 673.559 196.359 642.393 240.696 591.656C271.749 556.123 288.702 520.834 304.047 494.862C308.884 486.67 313.152 478.328 317.726 470.293C343.85 424.419 359.563 391.173 370.081 369.065C380.453 347.124 386.4 335.785 409.226 330.426C423.082 327.38 437.385 326.952 451.398 329.165C468.701 331.887 475.392 336.448 485.455 341.871C490.212 344.457 494.494 347.317 499.889 349.154C521.255 356.431 541.372 356.97 574.798 344.765C608.225 332.561 647.869 307.394 675.819 278.614C678.345 275.977 680.717 273.425 682.946 270.951C714.726 235.194 716.044 218.637 738.07 202.919C741.318 200.608 744.691 198.476 748.173 196.534C762.476 188.444 776.623 183.801 794.957 179.32C822.356 172.524 847.132 170.58 870.287 167.277C878.196 166.158 886.777 164.647 896.072 162.48C925.556 155.614 966.775 141.555 1016.15 112.332" stroke="#6C76D4" stroke-opacity="0.7" stroke-miterlimit="10"/>
<path d="M100.029 699.47C141.713 680.045 198.641 649.85 245.343 597.114C277.764 560.568 295.104 524.004 309.839 497.968C314.663 489.433 318.875 480.809 323.329 472.465C348.372 425.348 362.737 389.967 372.874 365.868C382.777 342.411 389.122 329.454 411.231 324.2C425.913 320.713 441.484 321.624 453.112 324.025C470.33 327.593 476.91 333.227 486.218 339.277C490.723 342.202 494.837 345.279 500.226 347.219C520.896 354.615 542.061 352.854 574.428 338.97C607.346 324.882 645.647 298.204 672.947 269.88C675.435 267.264 677.789 264.722 680.008 262.254C712.636 225.744 714.587 210.088 735.33 195.175C738.549 192.872 741.889 190.742 745.335 188.794C759.768 180.507 773.883 175.807 791.719 171.487C817.868 165.078 842.151 163.192 866.475 159.697C874.34 158.565 882.867 157.095 892.073 155.015C921.396 148.424 962.797 135.128 1012.42 107.68" stroke="#6C76D4" stroke-opacity="0.7" stroke-miterlimit="10"/>
<path d="M101.995 704.052C142.025 686.485 200.79 657.156 249.943 602.512C283.547 564.866 301.459 527.113 315.587 500.973C320.373 492.096 324.565 483.184 328.842 474.562C352.872 426.239 365.858 388.641 375.657 362.629C385.077 337.611 391.747 323.151 413.283 317.9C427.418 314.488 443.143 315.814 454.862 318.815C471.995 323.229 478.354 329.985 487.008 336.619C491.29 339.866 495.206 343.152 500.599 345.19C520.599 352.754 542.805 348.61 574.149 333.137C606.59 317.112 643.517 288.976 670.163 261.099C672.628 258.504 674.959 255.974 677.156 253.51C710.667 216.265 713.241 201.492 732.72 187.373C735.904 185.075 739.208 182.948 742.618 181.001C757.21 172.527 771.288 167.759 788.572 163.617C813.456 157.59 837.321 155.784 862.803 152.053C870.633 150.928 879.083 149.475 888.223 147.481C917.376 141.172 958.958 128.638 1008.87 103.008" stroke="#6C76D4" stroke-opacity="0.7" stroke-miterlimit="10"/>
<path d="M103.924 708.567C142.279 692.844 203.019 664.493 254.507 607.842C289.44 569.179 307.772 530.12 321.315 503.939C326.074 494.74 330.205 485.536 334.353 476.61C357.35 427.067 369.026 387.265 378.387 359.317C387.34 332.719 394.352 316.698 415.2 311.537C428.793 308.185 444.686 309.931 456.489 313.56C473.556 318.811 479.704 326.708 487.669 333.931C491.676 337.542 495.467 341.01 500.839 343.146C520.224 350.798 543.994 345.245 573.769 327.21C605.072 308.248 641.285 279.654 667.292 252.228C669.725 249.65 672.034 247.133 674.217 244.676C708.654 206.748 711.794 192.802 730.009 179.477C733.165 177.189 736.438 175.067 739.814 173.118C754.571 164.466 768.631 159.595 785.304 155.639C808.926 150.068 832.397 148.341 859.007 144.365C866.797 143.237 875.19 141.815 884.245 139.918C913.237 133.884 955 122.113 1005.18 98.287" stroke="#6C76D4" stroke-opacity="0.7" stroke-miterlimit="10"/>
<path d="M105.789 713.054C142.474 699.16 205.189 671.811 259.006 613.144C295.268 573.464 313.968 533.142 326.947 506.845C331.698 497.288 335.785 487.821 339.753 478.569C361.722 427.766 372.051 385.853 381.037 355.925C389.571 327.745 396.976 310.208 417.183 305.086C430.225 301.8 446.28 303.957 458.176 308.21C475.166 314.277 481.074 323.331 488.404 331.103C492.155 335.067 495.796 338.717 501.167 340.966C519.823 348.769 544.015 339.934 573.348 321.23C604.668 301.296 639.003 270.284 664.36 243.315C666.714 240.773 669.067 238.231 671.219 235.8C706.504 197.118 710.291 184.054 727.247 171.532C730.368 169.249 733.605 167.13 736.945 165.183C751.862 156.343 765.836 151.432 782.006 147.652C804.4 142.393 827.342 140.681 855.138 136.566C862.899 135.429 871.217 133.986 880.243 132.217C909.033 126.407 951.013 115.442 1001.42 93.4405" stroke="#6C76D4" stroke-opacity="0.7" stroke-miterlimit="10"/>
<path d="M107.712 717.447C142.739 705.426 207.398 679.047 263.569 618.362C301.198 577.644 320.211 536.025 332.626 509.701C337.295 499.814 341.41 490.056 345.23 480.535C366.301 428.576 375.16 384.371 383.681 352.549C391.717 322.756 399.437 303.745 419.077 298.66C431.567 295.439 447.805 297.996 459.778 302.869C476.734 309.805 482.351 319.968 489.055 328.309C492.527 332.651 496.032 336.463 501.388 338.821C519.381 346.737 544.539 335.473 572.886 315.247C603.646 293.36 636.699 260.902 661.393 234.384C663.746 231.843 666.032 229.338 668.226 226.983C704.369 187.543 708.758 175.348 724.461 163.615C727.582 161.34 730.819 159.228 734.16 157.29C747.955 149.025 763.013 143.079 778.733 139.69C799.876 134.816 822.354 133.147 851.319 128.84C859.036 127.69 867.302 126.313 876.209 124.622C917.745 116.529 958.416 104.497 997.669 88.6877" stroke="#6C76D4" stroke-opacity="0.7" stroke-miterlimit="10"/>
<path d="M109.572 721.837C142.94 711.664 209.563 686.268 268.064 623.568C306.983 581.854 326.408 538.958 338.308 512.517C391.094 395.093 377.941 303.539 421.013 292.149C432.951 288.993 449.371 291.95 461.418 297.457C487.138 309.204 486.082 329.404 501.655 336.6C539.839 354.25 620.125 267.041 665.249 218.033C709.243 170.246 708.03 163.301 731.239 149.308C771.739 124.859 802.414 129.674 872.167 116.919C913.609 109.279 954.343 98.2 993.946 83.7963" stroke="#6C76D4" stroke-opacity="0.7" stroke-miterlimit="10"/>
<path d="M111.08 724.583C145.566 714.558 209.859 689.468 265.773 629.499C304.345 588.064 322.236 545.698 335.192 517.652C386.992 405.693 375.977 321.288 417.993 306.291C434.407 300.429 452.385 296.868 466.577 298.749C494.468 302.455 494.259 319.578 512.198 324.937C551.479 336.687 627.554 257.513 670.871 211.497C713.036 166.614 712.516 160.751 738.134 147.935C780.702 126.637 809.347 130.079 875.25 118.413C916.363 111.129 956.699 99.9901 995.724 85.1445" stroke="#6C76D4" stroke-opacity="0.7" stroke-miterlimit="10"/>
<path d="M112.651 727.445C170.371 711.105 222.54 679.328 263.539 635.537C301.769 594.389 318.058 552.566 332.133 522.893C382.743 416.299 373.777 337.742 415.041 320.534C435.982 311.811 454.867 302.141 471.798 300.156C500.826 296.715 502.05 309.914 522.804 313.391C562.441 320.008 635.04 248.092 676.56 205.062C716.809 163.13 716.94 158.247 745.095 146.662C789.514 128.371 816.391 130.685 878.395 120.023C919.165 113.091 959.094 101.899 997.527 86.6294" stroke="#6C76D4" stroke-opacity="0.7" stroke-miterlimit="10"/>
<path d="M115.445 732.534C171.751 717.155 222.676 686.433 262.538 643.797C300.411 602.932 315.108 561.646 330.298 530.361C379.475 429.103 376.732 362.926 413.302 337.01C436.181 320.799 458.409 310.094 478.247 303.776C508.216 294.219 510.79 302.641 534.637 304.056C574.115 306.4 643.821 240.983 683.463 200.859C721.925 161.933 722.501 157.905 753.265 147.612C799.421 132.167 824.638 133.505 882.768 123.845C923.206 117.278 962.743 106.029 1000.58 90.3257" stroke="#6C76D4" stroke-opacity="0.7" stroke-miterlimit="10"/>
<path d="M119.7 740.282C174.584 725.86 224.259 696.185 262.973 654.693C300.493 614.097 313.588 573.353 329.907 540.461C377.537 444.464 377.25 383.398 413.018 356.111C439.594 335.846 461.516 315.137 486.131 310.032C520.002 303.007 521.424 303.025 547.906 297.358C586.656 303.088 654.022 236.482 691.82 199.282C728.43 163.31 729.455 160.123 762.895 151.197C810.67 138.45 834.341 139 888.577 130.303C928.682 124.096 967.829 112.786 1005.07 96.6489" stroke="#6C76D4" stroke-opacity="0.7" stroke-miterlimit="10"/>
<path d="M124.055 748.214C177.519 734.757 225.963 706.154 263.568 665.839C300.747 625.53 312.215 585.304 329.678 550.809C375.631 460.019 377.544 403.645 412.828 375.499C443.251 351.246 466.162 326.695 494.182 316.546C530.31 303.458 532.14 299.804 561.341 290.919C600.18 293.625 664.313 232.169 700.271 197.991C735.029 164.973 736.46 162.525 772.618 155.069C821.996 144.853 844.149 144.8 894.489 137.042C934.263 131.196 973.026 119.823 1009.65 103.253" stroke="#6C76D4" stroke-opacity="0.7" stroke-miterlimit="10"/>
<path d="M128.494 756.299C180.515 743.789 227.704 716.249 264.184 677.11C301.015 637.08 310.836 597.383 329.469 561.284C373.673 475.641 377.66 423.726 412.782 394.944C447.025 366.882 474.671 344.105 502.247 323.178C536.295 297.335 542.865 296.69 574.79 284.596C613.799 284.311 674.683 227.999 708.867 196.758C741.773 166.694 743.578 164.928 782.487 158.998C833.322 151.256 854.103 150.706 900.502 143.876C939.945 138.383 978.328 126.945 1014.34 109.95" stroke="#6C76D4" stroke-opacity="0.7" stroke-miterlimit="10"/>
<path d="M132.992 764.49C174.419 755.203 224.603 732.185 264.891 688.482C301.457 648.81 309.53 609.548 329.342 571.864C371.688 491.327 377.699 443.712 412.752 414.531C450.974 382.723 480.538 355.905 510.404 329.909C546.166 298.764 551.61 287.739 588.332 278.374C626.38 268.668 685.132 223.974 717.478 195.667C748.526 168.547 750.709 167.424 792.365 163.06C844.746 157.631 864.092 156.769 906.622 150.788C933.061 147.069 972.031 139.794 1019.14 116.728" stroke="#6C76D4" stroke-opacity="0.7" stroke-miterlimit="10"/>
<path d="M137.568 772.824C180.141 763.645 227.966 740.973 265.663 699.993C301.886 660.608 308.262 621.829 329.288 582.578C369.697 507.116 377.583 463.758 412.805 434.247C455.083 398.811 486.597 367.85 518.625 336.78C556.221 300.303 562.191 284.979 601.937 272.29C639.841 260.227 695.603 220.012 726.172 194.705C755.382 170.519 757.926 169.872 802.331 167.26C856.22 164.078 874.157 163.015 912.768 157.861C938.921 154.374 977.401 147.367 1023.97 123.675" stroke="#6C76D4" stroke-opacity="0.7" stroke-miterlimit="10"/>
<path d="M142.197 781.255C185.972 772.216 231.382 749.858 266.492 711.609C302.374 672.513 307.028 634.216 329.293 593.398C367.705 522.97 377.473 483.814 412.906 454.074C459.348 415.091 492.777 379.902 526.905 343.756C566.417 301.916 572.961 282.539 615.601 266.313C653.434 251.914 706.159 216.203 734.915 193.853C762.219 172.614 765.197 172.416 812.347 171.571C867.781 170.565 884.287 169.4 918.971 165.04C944.854 161.788 982.847 155.1 1028.85 130.718" stroke="#6C76D4" stroke-opacity="0.7" stroke-miterlimit="10"/>
<path d="M146.894 789.811C191.767 780.881 234.87 758.852 267.385 723.341C302.92 684.522 305.817 646.69 329.361 604.333C365.71 538.911 374.135 499.631 413.081 474.011C468.292 437.685 499.055 392.064 535.247 350.847C576.719 303.632 580.658 269.678 629.328 260.45C670.004 252.776 716.708 212.473 743.731 193.112C769.163 174.837 772.538 175.02 822.429 175.983C879.416 177.098 894.481 175.95 925.238 172.334C950.846 169.333 988.354 162.923 1033.79 137.887" stroke="#6C76D4" stroke-opacity="0.7" stroke-miterlimit="10"/>
<path d="M151.745 798.645C197.775 789.843 238.492 768.111 268.472 735.404C303.65 696.869 304.75 659.474 329.614 615.604C363.893 555.13 374.58 520.719 413.43 494.289C472.56 454.038 505.561 404.551 543.784 358.27C587.255 305.659 591.657 269.362 643.25 254.919C684.177 243.47 727.546 209.11 752.722 192.712C776.276 177.367 780.12 177.881 832.693 180.745C891.264 183.928 904.876 182.864 931.699 179.959C957.028 177.224 994.041 171.073 1038.93 145.376" stroke="#6C76D4" stroke-opacity="0.7" stroke-miterlimit="10"/>
<path d="M156.901 808.035C204.078 799.366 242.431 777.97 269.797 747.923C304.628 709.666 303.881 672.685 330.114 627.326C362.202 571.829 375.262 542.264 414.036 515.014C477.05 470.73 512.339 417.487 552.564 366.158C598.065 308.096 603.434 269.894 657.414 249.853C698.46 234.614 738.557 206.175 761.97 192.758C783.622 180.345 787.958 181.163 843.213 185.953C903.377 191.173 915.559 190.258 938.403 188.05C963.469 185.609 1000.03 179.657 1044.31 153.332" stroke="#6C76D4" stroke-opacity="0.7" stroke-miterlimit="10"/>
<path d="M162.147 817.59C210.481 809.047 246.458 787.968 271.244 760.663C305.722 722.674 303.067 686.066 330.735 639.27C360.635 588.686 376.026 564.027 414.755 535.964C481.557 487.563 519.252 430.625 561.46 374.258C609.055 310.722 615.769 270.92 671.695 244.999C712.737 225.976 749.683 203.428 771.329 193.03C791.059 183.534 795.925 184.612 853.845 191.388C915.655 198.603 926.31 198.002 945.229 196.362C970.029 194.255 1006.04 188.53 1049.81 161.508" stroke="#6C76D4" stroke-opacity="0.7" stroke-miterlimit="10"/>
<path d="M167.856 827.989C217.342 819.564 250.889 798.77 273.149 774.238C307.198 736.448 302.622 700.232 331.815 652.048C359.492 606.36 377.234 586.62 415.941 557.745C486.44 505.152 526.649 444.597 570.777 383.214C620.388 314.247 631.369 276.913 686.395 241.001C725.612 215.42 761.219 201.543 781.119 194.153C798.945 187.54 804.351 188.896 864.901 197.664C928.372 206.879 937.488 206.548 952.464 205.511C977.005 203.821 1012.51 198.208 1055.73 170.532" stroke="#6C76D4" stroke-opacity="0.7" stroke-miterlimit="10"/>
<path d="M173.508 838.282C224.142 829.989 255.328 809.517 275.011 787.712C308.704 750.205 302.009 714.228 332.843 664.731C358.27 623.914 378.365 609.119 417.065 579.434C491.204 522.569 533.997 458.458 580.132 392.037C631.836 317.572 643.996 276.991 701.135 236.87C740.833 209.025 772.777 199.446 790.923 195.144C806.849 191.398 812.813 192.997 875.978 203.817C941.141 214.977 948.698 215.039 959.744 214.536C984.028 213.424 1019.01 207.748 1061.68 179.412" stroke="#6C76D4" stroke-opacity="0.7" stroke-miterlimit="10"/>
<path d="M179.166 848.586C230.922 840.426 259.83 820.242 276.863 801.192C310.171 763.984 301.244 728.107 333.871 677.414C357.028 641.43 379.486 631.623 418.199 601.119C495.878 539.911 541.334 472.275 589.435 400.876C643.236 320.923 656.631 277.014 715.822 232.755C756.181 202.585 784.3 197.306 800.698 196.15C814.692 195.165 821.223 197.115 887.026 209.986C953.897 223.095 959.863 223.606 966.971 223.577C991.005 223.49 1025.47 217.325 1067.59 188.328" stroke="#6C76D4" stroke-opacity="0.7" stroke-miterlimit="10"/>
</g>
<defs>
<clipPath id="clip0_5299_3318">
<rect width="960" height="600" fill="white"/>
</clipPath>
</defs>
</svg>
