<svg width="960" height="600" viewBox="0 0 960 600" fill="none" xmlns="http://www.w3.org/2000/svg">
<g clip-path="url(#clip0_5355_4359)">
<path d="M742.144 127.663C647.841 -58.5586 456.999 49.068 373.366 126.159C178.437 358.108 416.413 429.479 572.555 329.459C728.698 229.44 658.15 576.096 888.458 559.041C1155.51 539.266 860.022 360.441 742.144 127.663Z" stroke="#6C76D4" stroke-opacity="0.5" stroke-width="1.6"/>
<path opacity="0.95875" d="M735.156 134.69C647.409 -54.7095 452.928 46.1912 366.655 120.317C163.749 345.321 399.09 424.954 558.628 330.444C718.166 235.935 635.563 579.918 866.326 570.912C1133.91 560.468 844.839 371.44 735.156 134.69Z" stroke="#6C76D4" stroke-opacity="0.5" stroke-width="1.6"/>
<path opacity="0.9175" d="M727.927 141.468C646.844 -50.8782 448.959 43.1738 360.152 114.243C149.518 332.03 381.936 419.827 544.675 330.943C707.414 242.059 612.857 582.949 843.793 582.002C1111.57 580.904 829.28 381.902 727.927 141.468Z" stroke="#6C76D4" stroke-opacity="0.5" stroke-width="1.6"/>
<path opacity="0.87625" d="M720.465 147.99C646.145 -47.0689 445.098 40.0197 353.865 107.946C135.758 318.249 364.971 414.104 530.713 330.954C696.454 247.803 590.058 585.186 820.887 592.299C1088.54 600.547 813.366 391.814 720.465 147.99Z" stroke="#6C76D4" stroke-opacity="0.5" stroke-width="1.6"/>
<path opacity="0.835" d="M712.781 154.248C645.313 -43.2863 441.35 36.7328 347.801 101.434C122.488 303.997 348.216 407.793 516.758 330.477C685.301 253.162 567.195 586.626 797.635 601.791C1064.84 619.374 797.116 401.166 712.781 154.248Z" stroke="#6C76D4" stroke-opacity="0.5" stroke-width="1.6"/>
<path opacity="0.79375" d="M704.883 160.233C644.35 -39.535 437.718 33.3171 341.969 94.7142C109.723 289.29 331.691 400.901 502.829 329.515C673.968 258.128 544.296 587.268 774.067 610.465C1040.49 637.363 780.549 409.944 704.883 160.233Z" stroke="#6C76D4" stroke-opacity="0.5" stroke-width="1.6"/>
<path opacity="0.7525" d="M696.781 165.94C643.256 -35.8197 434.208 29.7767 336.374 87.7949C97.4796 274.147 315.417 393.436 488.943 328.066C662.468 262.696 521.388 587.109 750.209 618.312C1015.54 654.492 763.686 418.139 696.781 165.94Z" stroke="#6C76D4" stroke-opacity="0.5" stroke-width="1.6"/>
<path opacity="0.71125" d="M688.484 171.36C642.034 -32.1447 430.824 26.116 331.025 80.6845C85.772 258.586 299.414 385.408 475.115 326.134C650.816 266.86 498.5 586.152 726.093 625.321C989.996 670.738 746.547 425.74 688.484 171.36Z" stroke="#6C76D4" stroke-opacity="0.5" stroke-width="1.6"/>
<path opacity="0.67" d="M680.004 176.487C640.684 -28.5147 427.569 22.3394 325.926 73.3917C74.6145 242.626 283.7 376.827 461.363 323.72C639.025 270.614 475.659 584.396 701.747 631.484C963.904 686.084 729.154 432.739 680.004 176.487Z" stroke="#6C76D4" stroke-opacity="0.5" stroke-width="1.6"/>
<path opacity="0.62875" d="M671.348 181.315C639.206 -24.9335 424.446 18.452 321.084 65.9259C64.0189 226.286 268.293 367.702 447.701 320.829C627.109 273.955 452.892 581.844 677.198 636.794C937.29 700.51 711.525 439.126 671.348 181.315Z" stroke="#6C76D4" stroke-opacity="0.5" stroke-width="1.6"/>
<path opacity="0.5875" d="M662.53 185.838C637.606 -21.407 421.463 14.4571 316.507 58.2948C54.002 209.586 253.217 358.045 434.151 317.461C615.085 276.877 430.229 578.499 652.481 641.243C910.191 713.998 693.685 444.894 662.53 185.838Z" stroke="#6C76D4" stroke-opacity="0.5" stroke-width="1.6"/>
<path opacity="0.54625" d="M653.56 190.05C635.884 -17.9385 418.621 10.3605 312.199 50.5085C44.5739 192.546 238.486 347.867 420.727 313.623C602.967 279.378 407.697 574.365 627.624 644.827C882.638 726.531 675.655 450.036 653.56 190.05Z" stroke="#6C76D4" stroke-opacity="0.5" stroke-width="1.6"/>
<path opacity="0.505" d="M644.449 193.947C634.042 -14.5316 415.924 6.1677 308.165 42.5772C35.7463 175.188 224.12 337.182 407.444 309.319C590.769 281.455 385.323 569.447 602.657 647.542C854.664 738.096 657.457 454.545 644.449 193.947Z" stroke="#6C76D4" stroke-opacity="0.5" stroke-width="1.6"/>
<path opacity="0.46375" d="M635.207 197.525C632.082 -11.1902 413.374 1.8843 304.411 34.5109C27.5298 157.534 210.135 326.003 394.32 304.555C578.506 283.106 363.134 563.753 577.61 649.385C826.303 748.679 639.112 458.418 635.207 197.525Z" stroke="#6C76D4" stroke-opacity="0.5" stroke-width="1.6"/>
<path opacity="0.4225" d="M625.846 200.776C630.007 -7.92115 410.976 -2.48741 300.94 26.3165C19.9345 139.602 196.549 314.341 381.371 299.334C566.192 284.326 341.158 557.285 552.514 650.35C797.59 758.263 620.644 461.647 625.846 200.776Z" stroke="#6C76D4" stroke-opacity="0.5" stroke-width="1.6"/>
<path opacity="0.38125" d="M616.377 203.7C627.819 -4.72457 408.732 -6.93821 297.758 18.008C12.9696 121.417 183.378 302.214 368.611 293.666C553.844 285.117 319.42 550.057 527.4 650.441C768.561 766.841 602.074 464.23 616.377 203.7Z" stroke="#6C76D4" stroke-opacity="0.5" stroke-width="1.6"/>
<path opacity="0.34" d="M606.812 206.29C625.521 -1.60824 406.644 -11.4666 294.867 9.59152C6.64368 102.999 170.639 289.633 356.057 287.554C541.476 285.475 297.948 542.072 502.298 649.654C739.25 774.4 583.425 466.162 606.812 206.29Z" stroke="#6C76D4" stroke-opacity="0.5" stroke-width="1.6"/>
<path opacity="0.29875" d="M597.162 208.545C623.115 1.42696 404.716 -16.0641 292.272 1.08025C0.964326 84.3716 158.346 276.615 343.724 281.009C529.102 285.403 276.768 533.344 477.239 647.992C709.692 780.931 564.72 467.444 597.162 208.545Z" stroke="#6C76D4" stroke-opacity="0.5" stroke-width="1.6"/>
<path opacity="0.2575" d="M587.439 210.463C620.605 4.37635 402.949 -20.726 289.976 -7.51639C-4.06152 65.5577 146.515 263.177 331.627 274.037C516.739 284.898 255.905 523.882 452.253 645.457C679.925 786.427 545.982 468.071 587.439 210.463Z" stroke="#6C76D4" stroke-opacity="0.5" stroke-width="1.6"/>
<path opacity="0.21625" d="M577.656 212.04C617.994 7.23683 401.347 -25.4463 287.981 -16.1875C-8.42768 46.5804 135.16 249.334 319.78 266.648C504.4 283.963 235.385 513.698 427.37 642.051C649.985 790.881 527.233 468.045 577.656 212.04Z" stroke="#6C76D4" stroke-opacity="0.5" stroke-width="1.6"/>
<path opacity="0.175" d="M567.823 213.274C615.284 10.0035 399.91 -30.2207 286.29 -24.9239C-12.1289 27.4612 124.296 235.103 308.199 258.85C492.102 282.596 215.233 502.804 402.622 637.778C619.907 794.287 508.497 467.363 567.823 213.274Z" stroke="#6C76D4" stroke-opacity="0.5" stroke-width="1.6"/>
<path opacity="0.13375" d="M557.953 214.165C612.479 12.6743 398.64 -35.0418 284.904 -33.7135C-15.1606 8.22508 113.934 220.501 296.897 250.652C479.859 280.802 195.474 491.213 378.038 632.645C589.728 796.642 489.795 466.029 557.953 214.165Z" stroke="#6C76D4" stroke-opacity="0.5" stroke-width="1.6"/>
<path opacity="0.0925" d="M548.058 214.711C609.583 15.2457 397.539 -39.9042 283.827 -42.5461C-17.5191 -11.1052 104.089 205.547 285.888 242.064C467.686 278.582 176.131 478.939 353.648 626.657C559.486 797.941 471.152 464.042 548.058 214.711Z" stroke="#6C76D4" stroke-opacity="0.5" stroke-width="1.6"/>
<path opacity="0.05125" d="M538.15 214.911C606.599 17.7144 396.609 -44.8022 283.058 -51.4109C-19.2016 -30.506 94.7712 190.258 275.185 233.098C455.598 275.938 157.228 465.998 329.482 619.821C529.216 798.185 452.59 461.406 538.15 214.911Z" stroke="#6C76D4" stroke-opacity="0.5" stroke-width="1.6"/>
<path opacity="0.01" d="M528.244 214.765C603.533 20.0774 395.852 -49.7296 282.601 -60.2971C-20.204 -49.9537 85.9948 174.654 264.803 223.764C443.612 272.874 138.791 452.405 305.571 612.146C498.959 797.372 434.132 458.124 528.244 214.765Z" stroke="#6C76D4" stroke-opacity="0.5" stroke-width="1.6"/>
</g>
<defs>
<clipPath id="clip0_5355_4359">
<rect width="960" height="600" fill="white"/>
</clipPath>
</defs>
</svg>
