<svg width="960" height="600" viewBox="0 0 960 600" fill="none" xmlns="http://www.w3.org/2000/svg">
<g clip-path="url(#clip0_5355_4291)">
<path fill-rule="evenodd" clip-rule="evenodd" d="M749.821 -44.0497C805.871 -69.7046 872.552 -111.168 926.947 -82.1683C983.283 -52.1337 970.245 34.3525 1001.4 90.0762C1025.72 133.567 1084.7 157.862 1088.91 207.51C1093.12 257.132 1033.18 289.291 1022.43 337.916C1006.02 412.123 1074.46 519.576 1010.73 560.993C948.503 601.44 883.183 486.982 809.757 476.144C748.582 467.115 677.09 545.246 630.28 504.839C581.415 462.657 640.609 377.431 623.346 315.229C609.209 264.287 540.17 236.266 541.076 183.406C541.98 130.624 592.116 93.6441 627.81 54.7507C663.926 15.3972 701.252 -21.8193 749.821 -44.0497Z" stroke="#6C76D4" stroke-opacity="0.7" stroke-width="1.6"/>
<path opacity="0.95875" fill-rule="evenodd" clip-rule="evenodd" d="M751.276 -35.0827C808.188 -58.7658 876.276 -97.8768 929.625 -66.9964C984.879 -35.014 968.831 50.9644 998.023 107.742C1020.81 152.054 1078.9 178.393 1081.38 228.158C1083.86 277.896 1022.83 307.944 1010.39 356.165C991.398 429.754 1056.05 539.529 990.915 578.697C927.31 616.948 866.025 500.279 793.022 486.886C732.199 475.727 658.024 551.316 612.653 509.3C565.289 465.438 627.421 382.33 612.34 319.563C599.989 268.159 531.97 237.745 534.72 184.95C537.466 132.232 588.862 97.0235 625.892 59.3994C663.359 21.3303 701.962 -14.5609 751.276 -35.0827Z" stroke="#6C76D4" stroke-opacity="0.7" stroke-width="1.6"/>
<path opacity="0.9175" fill-rule="evenodd" clip-rule="evenodd" d="M752.418 -26.0703C810.121 -47.7528 879.533 -84.4637 931.772 -51.7403C985.876 -17.8491 966.837 67.5169 994.03 125.278C1015.25 170.359 1072.39 198.709 1073.13 248.53C1073.87 298.325 1011.84 326.225 997.719 373.982C976.171 446.863 1036.95 558.828 970.49 595.699C905.589 631.707 848.413 512.97 775.922 497.037C715.525 483.763 638.757 556.717 594.88 513.143C549.077 467.655 614.071 386.766 601.19 323.511C590.64 271.707 523.724 238.938 528.315 186.27C532.899 133.68 585.493 100.287 623.813 63.9784C662.586 27.24 702.417 -7.28206 752.418 -26.0703Z" stroke="#6C76D4" stroke-opacity="0.7" stroke-width="1.6"/>
<path opacity="0.87625" fill-rule="evenodd" clip-rule="evenodd" d="M753.245 -17.0236C811.669 -36.6791 882.32 -70.9452 933.385 -36.4186C986.273 -0.659797 964.267 83.9897 989.427 142.665C1009.06 188.459 1065.18 218.786 1064.18 268.602C1063.18 318.392 1000.21 344.111 984.435 391.345C960.356 463.431 1017.19 577.448 949.485 611.977C883.366 645.698 830.368 525.039 758.478 506.586C698.582 491.211 619.314 561.442 576.984 516.363C532.796 469.304 600.574 390.733 589.908 327.067C581.173 274.927 515.441 239.842 521.868 187.367C528.284 134.968 582.011 103.431 621.575 68.482C661.607 33.1192 702.619 0.00821135 753.245 -17.0236Z" stroke="#6C76D4" stroke-opacity="0.7" stroke-width="1.6"/>
<path opacity="0.835" fill-rule="evenodd" clip-rule="evenodd" d="M753.755 -7.95355C812.83 -25.5581 884.633 -57.3377 934.463 -21.0499C986.071 16.5329 961.123 100.363 984.221 159.88C1002.25 206.332 1057.27 238.599 1054.53 288.35C1051.8 338.075 987.969 361.58 970.552 408.235C943.973 479.436 996.791 595.367 927.924 627.513C860.669 658.906 811.914 536.47 740.711 515.519C681.388 498.064 599.718 565.485 558.987 518.957C516.468 470.385 586.947 394.226 578.509 330.227C571.599 277.814 507.132 240.456 515.386 188.237C523.627 136.095 578.422 106.452 619.181 72.9047C660.423 38.9606 702.565 7.30107 753.755 -7.95355Z" stroke="#6C76D4" stroke-opacity="0.7" stroke-width="1.6"/>
<path opacity="0.79375" fill-rule="evenodd" clip-rule="evenodd" d="M753.948 1.12879C813.602 -14.4033 886.47 -43.6577 935.003 -5.65296C985.268 33.708 957.41 116.616 978.416 176.904C994.811 223.956 1048.68 258.123 1044.2 307.749C1039.73 357.348 975.123 378.611 956.089 424.63C927.041 494.86 975.781 612.564 905.834 642.287C837.524 671.313 793.072 547.251 722.644 523.828C663.966 504.313 579.992 568.843 540.91 520.921C500.113 470.894 573.206 397.242 567.007 332.987C561.93 280.365 498.806 240.78 508.877 188.881C518.934 137.058 574.729 109.346 616.635 77.2412C659.036 44.7571 702.258 14.5876 753.948 1.12879Z" stroke="#6C76D4" stroke-opacity="0.7" stroke-width="1.6"/>
<path opacity="0.7525" fill-rule="evenodd" clip-rule="evenodd" d="M753.825 10.2121C813.984 -3.22867 887.829 -29.9221 935.006 9.75319C983.866 50.8444 953.132 132.73 972.021 193.714C986.764 241.309 1039.4 277.336 1033.2 326.775C1027 376.188 961.691 395.183 941.062 440.51C909.581 509.683 954.183 629.017 883.241 656.28C813.96 682.905 773.865 557.367 704.297 531.5C646.336 509.949 560.162 571.509 522.776 522.252C483.749 470.833 559.368 399.776 555.416 335.344C552.179 282.577 490.474 240.813 502.351 189.297C514.209 137.857 570.938 112.108 613.939 81.486C657.448 50.5014 701.696 21.8587 753.825 10.2121Z" stroke="#6C76D4" stroke-opacity="0.7" stroke-width="1.6"/>
<path opacity="0.71125" fill-rule="evenodd" clip-rule="evenodd" d="M753.384 19.2861C813.976 7.95301 888.708 -16.147 934.471 25.1506C981.868 67.9219 948.294 148.685 965.044 210.291C978.116 258.372 1029.47 296.214 1021.54 345.406C1013.62 394.573 947.688 411.277 925.49 455.856C891.614 523.889 932.025 644.706 860.175 669.477C790.006 693.668 754.317 566.807 685.694 538.528C628.521 514.967 540.25 573.482 504.606 522.951C467.398 470.201 545.451 401.826 543.749 337.296C542.356 284.447 482.147 240.556 495.813 189.486C509.46 138.491 567.053 114.738 611.096 85.6346C655.66 56.1873 700.881 29.1063 753.384 19.2861Z" stroke="#6C76D4" stroke-opacity="0.7" stroke-width="1.6"/>
<path opacity="0.67" fill-rule="evenodd" clip-rule="evenodd" d="M752.627 28.3389C813.578 19.1273 889.105 -2.34991 933.399 40.5197C979.274 84.9191 942.903 164.461 957.492 226.614C968.879 275.122 1018.88 314.733 1009.24 363.619C999.611 412.479 933.132 426.872 909.392 470.65C873.162 537.458 909.332 659.612 836.661 681.861C765.692 703.588 734.451 575.558 666.857 544.902C610.541 519.36 520.282 574.759 486.423 523.015C451.078 468.998 531.47 403.389 532.022 338.839C532.473 285.974 473.833 240.008 489.273 189.446C504.692 138.958 563.078 117.229 608.11 89.6812C653.674 61.8071 699.813 36.3208 752.627 28.3389Z" stroke="#6C76D4" stroke-opacity="0.7" stroke-width="1.6"/>
<path opacity="0.62875" fill-rule="evenodd" clip-rule="evenodd" d="M751.555 37.3597C812.789 30.281 889.02 11.4527 931.792 55.842C976.089 101.815 936.964 180.04 949.375 242.664C959.062 291.54 1007.65 332.871 996.312 381.392C984.982 429.886 918.042 441.95 892.788 484.872C854.249 550.376 886.133 673.718 812.73 693.416C741.045 712.654 714.292 583.612 647.809 550.615C592.418 523.123 500.281 575.339 468.249 522.444C434.811 467.227 517.443 404.463 520.247 339.971C522.544 287.154 465.543 239.17 482.739 189.178C499.91 139.259 559.019 119.581 604.985 93.6211C651.494 67.3542 698.494 43.4936 751.555 37.3597Z" stroke="#6C76D4" stroke-opacity="0.7" stroke-width="1.6"/>
<path opacity="0.5875" fill-rule="evenodd" clip-rule="evenodd" d="M750.168 46.3377C811.613 41.4003 888.454 25.2439 929.65 71.0988C972.316 118.59 930.485 195.401 940.703 258.421C948.678 307.605 995.792 350.607 982.769 398.702C969.754 446.771 902.433 456.492 875.697 498.506C834.895 562.625 862.456 687.005 788.41 704.129C716.098 720.853 693.864 590.956 628.573 555.66C574.176 526.252 480.273 575.22 450.106 521.239C418.615 464.888 503.388 405.047 508.441 340.692C512.579 287.988 457.287 238.043 476.218 188.682C495.12 139.392 554.88 121.789 601.724 97.4496C649.122 72.8218 696.926 50.6161 750.168 46.3377Z" stroke="#6C76D4" stroke-opacity="0.7" stroke-width="1.6"/>
<path opacity="0.54625" fill-rule="evenodd" clip-rule="evenodd" d="M748.469 55.2618C810.048 52.4718 887.407 39.0069 926.978 86.2717C967.96 135.223 923.474 210.528 931.486 273.865C937.74 323.298 983.324 367.918 968.631 415.529C953.947 463.115 886.327 470.48 858.141 511.536C815.127 574.192 838.33 699.457 763.731 713.987C690.879 728.177 673.193 597.584 609.173 560.03C555.835 528.741 460.28 574.402 432.016 519.402C402.511 461.987 489.32 405.14 496.616 341.001C502.591 288.473 449.076 236.629 469.718 187.958C490.329 139.358 550.667 123.852 598.332 101.162C646.56 78.2033 695.11 57.6794 748.469 55.2618Z" stroke="#6C76D4" stroke-opacity="0.7" stroke-width="1.6"/>
<path opacity="0.505" fill-rule="evenodd" clip-rule="evenodd" d="M746.46 64.1212C808.099 63.4819 885.88 52.725 923.777 101.342C963.026 151.694 915.939 225.4 921.736 288.978C926.261 338.599 970.26 384.783 953.915 431.852C937.578 478.896 869.743 483.898 840.141 523.945C794.966 585.061 813.783 711.06 738.723 722.978C665.42 734.617 652.302 603.486 589.633 563.72C537.419 530.589 440.329 572.888 414.001 516.934C386.517 458.524 475.258 404.742 484.788 340.897C492.592 288.609 440.92 234.929 463.247 187.009C485.542 139.158 546.384 125.766 594.812 104.754C643.812 83.4921 693.048 64.6751 746.46 64.1212Z" stroke="#6C76D4" stroke-opacity="0.7" stroke-width="1.6"/>
<path opacity="0.46375" fill-rule="evenodd" clip-rule="evenodd" d="M744.142 72.905C805.766 74.4173 883.875 66.3815 920.053 116.291C957.521 167.982 907.89 240 911.465 303.742C914.255 353.491 956.615 401.182 938.637 447.652C920.669 494.098 852.701 496.728 821.719 535.718C774.438 595.221 788.847 721.799 713.417 731.091C639.752 740.164 631.219 608.655 569.975 566.727C518.949 531.794 420.442 570.678 396.083 513.84C370.655 454.506 461.218 403.854 472.97 340.38C482.595 288.396 432.827 232.946 456.813 185.834C480.764 138.79 542.037 127.53 591.169 108.22C640.881 88.6818 690.744 71.5945 744.142 72.905Z" stroke="#6C76D4" stroke-opacity="0.7" stroke-width="1.6"/>
<path opacity="0.4225" fill-rule="evenodd" clip-rule="evenodd" d="M741.52 81.6026C803.053 85.2646 881.395 79.9597 915.809 131.102C951.45 184.069 899.336 254.311 900.684 318.139C901.736 367.954 942.407 417.095 922.818 462.909C903.239 508.699 835.221 508.956 802.898 546.841C753.569 604.657 763.551 731.662 687.843 738.315C613.906 744.812 609.968 613.085 550.224 569.045C500.449 532.353 400.645 567.775 378.284 510.122C354.942 449.937 447.218 402.476 461.178 339.451C472.611 287.835 424.809 230.681 450.425 184.435C476.003 138.256 537.631 129.141 587.407 111.558C637.771 93.7661 688.2 78.4294 741.52 81.6026Z" stroke="#6C76D4" stroke-opacity="0.7" stroke-width="1.6"/>
<path opacity="0.38125" fill-rule="evenodd" clip-rule="evenodd" d="M738.595 90.2034C799.963 96.0107 878.443 93.4431 911.051 145.755C944.822 199.934 890.288 268.314 889.407 332.15C888.721 381.972 927.651 432.502 906.475 477.605C885.311 522.684 817.325 520.567 783.699 557.3C732.383 613.36 737.926 740.636 662.032 744.642C587.914 748.555 588.575 616.771 530.405 570.673C481.94 532.266 380.96 564.184 360.626 505.785C339.398 444.822 433.274 400.61 449.426 338.111C462.653 286.925 416.875 228.138 444.089 182.814C471.263 137.555 533.172 130.597 583.531 114.762C634.485 98.7386 685.418 85.1713 738.595 90.2034Z" stroke="#6C76D4" stroke-opacity="0.7" stroke-width="1.6"/>
<path opacity="0.34" fill-rule="evenodd" clip-rule="evenodd" d="M735.372 98.6969C796.5 106.642 875.022 106.815 905.784 160.233C937.644 215.558 880.756 281.993 877.649 345.76C875.224 395.527 912.367 447.385 889.63 491.721C866.905 536.034 799.034 531.546 764.147 567.084C710.906 621.318 712.004 748.71 636.016 750.065C561.807 751.389 567.066 619.708 510.541 571.608C463.446 531.533 361.414 559.907 343.129 500.834C324.042 439.167 419.404 398.259 437.727 336.361C452.733 285.669 409.034 225.32 437.813 180.973C466.55 136.69 528.665 131.897 579.545 117.829C631.028 103.594 682.404 91.812 735.372 98.6969Z" stroke="#6C76D4" stroke-opacity="0.7" stroke-width="1.6"/>
<path opacity="0.29875" fill-rule="evenodd" clip-rule="evenodd" d="M731.855 107.073C792.669 117.147 871.136 120.06 900.015 174.519C929.925 230.921 870.753 295.331 865.422 358.95C861.262 408.603 896.573 461.725 872.302 505.241C848.045 548.734 780.372 541.88 744.266 576.178C689.164 628.522 685.816 755.874 609.827 754.577C535.616 753.31 545.468 621.893 490.656 571.849C444.988 530.155 342.028 554.951 325.817 495.276C308.893 432.981 405.625 395.425 426.097 334.205C442.862 284.067 401.296 222.229 431.606 178.914C461.871 135.661 524.114 133.039 575.455 120.754C627.403 108.325 679.159 98.3434 731.855 107.073Z" stroke="#6C76D4" stroke-opacity="0.7" stroke-width="1.6"/>
<path opacity="0.2575" fill-rule="evenodd" clip-rule="evenodd" d="M728.047 115.321C788.472 127.511 866.79 133.161 893.751 188.594C921.674 246.006 860.291 308.312 852.743 371.706C846.852 421.184 880.288 475.506 854.513 518.148C828.753 560.768 761.36 551.556 724.079 584.574C667.184 634.962 659.393 762.12 583.496 758.172C509.375 754.316 523.807 623.322 470.775 571.396C426.59 528.133 322.827 549.321 308.708 489.117C293.969 426.269 391.953 392.113 414.549 331.643C433.054 282.121 393.671 218.871 425.474 176.639C457.23 134.47 519.527 134.021 571.265 123.536C623.615 112.927 675.688 104.758 728.047 115.321Z" stroke="#6C76D4" stroke-opacity="0.7" stroke-width="1.6"/>
<path opacity="0.21625" fill-rule="evenodd" clip-rule="evenodd" d="M723.954 123.431C783.917 137.722 861.99 146.102 887 202.443C912.902 260.794 849.382 320.92 839.626 384.012C832.012 433.253 863.532 488.71 836.285 530.427C809.052 572.121 742.022 560.563 703.612 592.259C644.993 640.631 632.769 767.44 557.056 760.845C483.114 754.405 502.11 623.995 450.922 570.25C408.274 525.471 303.835 543.025 291.825 482.364C279.289 419.04 378.404 388.324 403.097 328.681C423.319 279.834 386.168 215.248 419.425 174.152C452.634 133.117 514.909 134.842 566.981 126.169C619.669 117.394 671.995 111.047 723.954 123.431Z" stroke="#6C76D4" stroke-opacity="0.7" stroke-width="1.6"/>
<path opacity="0.175" fill-rule="evenodd" clip-rule="evenodd" d="M719.581 131.393C779.008 147.769 856.741 158.868 879.77 216.047C903.62 275.267 838.04 333.139 826.088 395.852C816.76 444.798 846.325 501.321 817.639 542.061C788.968 582.78 722.382 568.89 682.889 599.226C622.617 645.523 605.976 771.828 530.538 762.594C456.867 753.578 480.402 623.91 431.121 568.411C390.062 522.172 285.073 536.07 275.188 475.027C264.87 411.304 364.997 384.066 391.756 325.32C413.67 277.209 378.796 211.366 413.467 171.456C448.087 131.604 510.264 135.502 562.607 128.652C615.57 121.72 668.086 117.203 719.581 131.393Z" stroke="#6C76D4" stroke-opacity="0.7" stroke-width="1.6"/>
<path opacity="0.13375" fill-rule="evenodd" clip-rule="evenodd" d="M714.932 139.198C773.752 157.637 851.05 171.443 872.069 229.391C893.838 289.407 826.278 344.955 812.145 407.213C801.114 455.804 828.689 513.323 798.598 553.038C768.523 592.731 702.463 576.526 661.935 605.465C600.085 649.63 579.045 775.277 503.976 763.417C430.664 751.835 458.71 623.068 411.396 565.883C371.976 518.238 266.566 528.464 258.818 467.113C250.729 403.069 351.746 379.342 380.538 321.566C404.119 274.249 371.563 207.229 407.606 168.553C443.596 129.934 505.599 135.999 558.15 130.98C611.322 125.901 663.963 123.22 714.932 139.198Z" stroke="#6C76D4" stroke-opacity="0.7" stroke-width="1.6"/>
<path opacity="0.0925" fill-rule="evenodd" clip-rule="evenodd" d="M710.013 146.836C768.154 167.317 844.923 183.811 863.907 242.458C883.568 303.197 814.111 356.353 797.814 418.08C785.094 466.256 810.644 524.703 779.186 563.344C747.744 601.963 682.29 583.462 640.777 610.969C577.422 652.949 552.011 777.785 477.401 763.313C404.538 749.179 437.061 621.469 391.771 562.667C354.038 513.676 248.336 520.217 242.733 458.633C236.884 394.346 338.668 374.158 369.459 317.423C394.677 270.958 364.48 202.842 401.851 165.447C439.167 128.108 500.92 136.333 553.614 133.151C606.931 129.931 659.634 129.088 710.013 146.836Z" stroke="#6C76D4" stroke-opacity="0.7" stroke-width="1.6"/>
<path opacity="0.05125" fill-rule="evenodd" clip-rule="evenodd" d="M704.831 154.297C762.222 176.795 838.369 195.959 855.294 255.232C872.823 316.62 801.554 367.32 783.112 428.441C768.719 476.143 792.214 535.446 759.426 572.965C726.656 610.464 661.887 589.69 619.439 615.732C554.658 655.475 524.905 779.348 450.846 762.28C378.521 745.612 415.481 619.115 372.271 558.769C336.27 508.491 230.404 511.339 226.954 449.597C223.353 385.145 325.778 368.522 358.531 312.895C385.355 267.338 357.554 198.21 396.207 162.143C434.803 126.128 496.232 136.504 549.005 135.162C602.402 133.805 655.102 134.802 704.831 154.297Z" stroke="#6C76D4" stroke-opacity="0.7" stroke-width="1.6"/>
<path opacity="0.01" fill-rule="evenodd" clip-rule="evenodd" d="M699.392 161.573C755.962 186.06 831.394 207.87 846.241 267.698C861.617 329.66 788.621 377.842 768.058 438.282C752.009 485.453 773.419 545.54 739.342 581.892C705.283 618.224 641.279 595.202 597.948 619.747C531.82 657.205 497.762 779.964 424.343 760.322C352.644 741.14 393.996 616.01 352.918 554.192C318.694 502.689 212.794 501.84 211.5 440.015C210.15 375.477 313.094 362.438 347.768 307.989C376.165 263.396 350.794 193.34 390.682 158.643C430.512 123.997 491.541 136.511 544.328 137.012C597.74 137.519 650.373 140.355 699.392 161.573Z" stroke="#6C76D4" stroke-opacity="0.7" stroke-width="1.6"/>
</g>
<defs>
<clipPath id="clip0_5355_4291">
<rect width="960" height="600" fill="white"/>
</clipPath>
</defs>
</svg>
