<svg width="901" height="600" viewBox="0 0 901 600" fill="none" xmlns="http://www.w3.org/2000/svg">
<g opacity="0.5">
<g clip-path="url(#clip0_5289_2815)">
<mask id="mask0_5289_2815" style="mask-type:luminance" maskUnits="userSpaceOnUse" x="0" y="0" width="901" height="600">
<path d="M901 0H0V600H901V0Z" fill="white"/>
</mask>
<g mask="url(#mask0_5289_2815)">
<path d="M-35.3643 -92.325C3.52891 -128.85 59.6162 -145.5 112.325 -136.35C165.033 -127.2 213.011 -92.175 238.84 -44.325C271.651 16.575 270.225 95.625 317.377 145.95C357.397 188.55 419.791 197.025 476.779 205.425C533.767 213.825 596.837 228.825 629.198 277.65C651.048 310.65 655.703 355.2 685.135 381.375C715.094 407.925 761.12 405.525 796.859 389.025C832.599 372.525 861.581 344.625 893.867 321.975C991.625 253.5 1122.8 236.4 1235.87 277.35" stroke="#884399" stroke-opacity="0.7" stroke-miterlimit="10"/>
<path d="M-40.6201 -87.675C-18.5456 -107.775 8.93489 -121.2 37.6918 -126.9C61.4181 -131.625 85.9704 -131.175 109.171 -125.475C114.502 -124.125 119.683 -122.55 124.788 -120.75C151.143 -111.225 174.869 -94.875 195.817 -74.4C210.158 -60.375 223.223 -44.775 233.584 -28.05C239.366 -18.75 244.396 -9.22504 248.901 0.449955C261.215 26.85 269.624 54.225 280.661 79.875C290.873 103.95 303.487 126.6 323.834 145.575C325.862 147.45 327.889 149.25 330.066 151.05C353.793 170.85 383.526 183.15 413.033 192.825C435.859 200.325 458.459 205.725 480.083 210.975C482.26 211.5 484.438 212.025 486.615 212.55C515.297 219.75 545.255 229.125 570.783 244.875C590.005 256.65 606.899 272.325 620.714 292.65C642.563 324.9 648.945 366.525 678.378 390.75C708.111 415.425 753.011 412.95 788.225 397.5C811.651 387.225 832.299 372.3 852.872 357.45C863.233 349.95 873.595 342.45 884.256 335.55C927.279 307.725 976.309 290.1 1026.46 283.2C1088.93 274.65 1152.83 282.75 1209.59 306.075" stroke="#884399" stroke-opacity="0.7" stroke-miterlimit="10"/>
<path d="M-45.8008 -83.025C-23.0505 -103.2 5.55622 -115.95 34.8387 -120.3C59.0156 -123.9 83.5678 -121.875 106.093 -114.525C111.274 -112.875 116.304 -110.925 121.185 -108.675C146.488 -97.275 168.112 -79.2 189.06 -57.825C203.326 -43.2 217.066 -27.6 228.554 -11.625C234.936 -2.70002 240.642 6.29999 245.823 15.225C260.014 39.675 270.525 63.825 283.139 86.55C295.002 107.925 309.043 127.95 330.442 145.425C332.544 147.15 334.722 148.8 336.974 150.45C361.827 168.675 392.536 181.575 421.142 193.125C443.292 202.125 463.94 209.475 483.462 216.525C485.414 217.2 487.366 217.95 489.393 218.625C515.297 228.15 542.402 239.7 565.453 257.025C582.797 270.075 598.114 287.1 612.38 307.65C634.229 339.15 642.413 377.7 671.771 400.125C701.429 422.775 745.127 420.375 779.816 405.975C802.866 396.45 823.364 382.65 843.787 369C854.073 362.1 864.359 355.275 874.871 349.05C917.368 323.925 965.271 309 1013.32 304.725C1073.17 299.4 1132.78 310.725 1183.61 334.725" stroke="#884399" stroke-opacity="0.7" stroke-miterlimit="10"/>
<path d="M-51.0566 -78.375C-27.5556 -98.625 2.10237 -110.775 31.9105 -113.775C56.4627 -116.25 81.09 -112.65 103.014 -103.725C108.045 -101.7 112.85 -99.375 117.581 -96.825C141.757 -83.55 161.429 -63.825 182.227 -41.55C196.418 -26.25 210.909 -10.8 223.448 4.575C230.431 13.125 236.738 21.525 242.594 29.7C258.662 52.125 271.126 73.125 285.467 93C298.907 111.6 314.374 129.075 336.899 144.975C339.151 146.55 341.404 148.125 343.732 149.625C369.786 166.575 401.546 180 429.251 193.5C450.725 204.075 469.346 213.375 486.84 222.15C488.567 223.05 490.369 223.875 492.096 224.775C515.297 236.475 539.474 250.275 560.047 269.325C575.439 283.575 589.254 302.025 603.97 322.8C625.745 353.55 635.806 389.1 665.088 409.65C694.596 430.35 737.093 427.95 771.331 414.6C794.081 405.75 814.354 393.075 834.626 380.625C844.838 374.4 854.974 368.25 865.411 362.7C907.382 340.275 954.084 328.05 1000.11 326.4C1057.4 324.375 1112.58 338.925 1157.48 363.525" stroke="#884399" stroke-opacity="0.7" stroke-miterlimit="10"/>
<path d="M-56.3125 -73.725C-32.0606 -94.05 -1.3515 -105.525 28.9822 -107.175C53.9849 -108.525 78.6123 -103.35 99.9359 -92.85C104.816 -90.45 109.471 -87.75 113.976 -84.9C137.102 -69.825 154.747 -48.3 175.395 -25.2001C189.51 -9.30005 204.752 6.14997 218.267 20.775C225.776 28.95 232.833 36.825 239.366 44.25C257.386 64.65 271.802 82.4999 287.794 99.4499C302.736 115.275 319.705 130.2 343.356 144.6C345.684 146.025 348.086 147.45 350.564 148.8C377.819 164.4 410.556 178.275 437.36 193.8C458.159 205.875 474.752 217.125 490.219 227.625C491.796 228.675 493.298 229.725 494.874 230.775C515.372 244.725 536.696 260.7 554.716 281.475C568.231 297 580.394 316.8 595.636 337.8C617.335 367.8 629.198 400.35 658.481 419.1C687.838 437.85 729.209 435.45 762.847 423.15C785.221 414.975 805.419 403.425 825.466 392.25C835.527 386.625 845.664 381.15 855.95 376.275C897.396 356.55 942.972 347.025 986.895 348C1041.56 349.2 1092.46 366.975 1131.43 392.25" stroke="#884399" stroke-opacity="0.7" stroke-miterlimit="10"/>
<path d="M-61.5684 -69.0751C-36.5656 -89.4751 -4.88044 -100.35 26.0539 -100.65C51.4321 -100.95 76.0594 -94.1251 96.7824 -82.0501C101.513 -79.2751 106.018 -76.275 110.297 -72.975C132.297 -56.025 147.989 -32.85 168.487 -8.85005C182.528 7.72495 198.445 23.0999 213.086 37.0499C221.195 44.8499 228.929 52.1249 236.137 58.7999C256.034 77.2499 272.402 91.875 290.122 105.975C306.64 119.1 325.111 131.4 349.813 144.3C352.291 145.575 354.769 146.85 357.322 148.125C385.778 162.225 419.491 176.775 445.394 194.175C465.517 207.825 480.083 220.95 493.448 233.25C494.799 234.45 496.151 235.65 497.502 236.925C515.297 253.2 533.692 271.275 549.235 293.775C560.797 310.5 571.459 331.725 587.152 352.95C608.851 382.2 622.441 411.75 651.648 428.625C680.856 445.425 721.025 443.025 754.212 431.775C776.286 424.35 796.259 413.85 816.156 403.95C826.142 399 836.128 394.125 846.264 389.925C887.185 372.975 931.634 366.075 973.455 369.6C1025.56 374.1 1072.04 395.1 1105.15 420.975" stroke="#884399" stroke-opacity="0.7" stroke-miterlimit="10"/>
<path d="M-66.8242 -64.5001C-41.1457 -84.9751 -8.33431 -95.2501 23.1256 -94.1251C48.9543 -93.3001 73.5816 -84.9001 93.7039 -71.1751C98.284 -68.0251 102.639 -64.6501 106.693 -61.0501C127.642 -42.2251 141.307 -17.3251 161.654 7.57492C175.695 24.7499 192.288 40.0499 207.981 53.3999C216.69 60.7499 225.1 67.5749 232.983 73.4999C254.758 89.9249 273.078 101.4 292.6 112.575C310.62 122.925 330.592 132.675 356.496 144C359.048 145.125 361.676 146.25 364.379 147.375C393.962 160.125 428.726 175.125 453.729 194.55C473.1 209.7 485.714 224.7 497.052 238.8C498.178 240.225 499.304 241.575 500.505 243C515.597 261.525 531.064 281.775 544.129 306C553.815 323.925 562.825 346.575 579.043 368.025C600.667 396.6 616.134 423.075 645.266 438.075C674.323 453 713.367 450.525 746.028 440.325C767.727 433.575 787.549 424.2 807.296 415.575C817.207 411.225 827.118 407.1 837.104 403.575C877.499 389.325 920.747 385.125 960.466 391.275C1009.95 399.075 1052.14 423.225 1079.32 449.775" stroke="#884399" stroke-opacity="0.7" stroke-miterlimit="10"/>
<path d="M-72.0801 -59.85C-45.6507 -80.4 -11.7882 -90 20.1973 -87.525C46.4014 -85.575 71.1038 -75.6 90.5504 -60.3C94.9803 -56.85 99.185 -53.025 103.014 -49.05C122.836 -28.35 134.549 -1.72505 154.747 23.9999C168.712 41.8499 186.056 57.0749 202.725 69.6749C211.96 76.6499 221.045 82.8749 229.605 88.0499C253.331 102.45 273.529 110.775 294.777 119.025C314.374 126.6 335.773 133.725 362.803 143.625C365.506 144.6 368.209 145.575 370.987 146.625C401.771 157.95 437.511 173.475 461.612 194.85C480.308 211.575 490.895 228.45 500.205 244.35C501.106 245.925 502.082 247.5 502.983 249.075C515.297 269.925 527.986 292.275 538.498 318.15C546.231 337.35 553.664 361.35 570.333 382.95C591.807 410.775 609.151 434.25 638.283 447.375C667.115 460.35 705.032 457.875 737.168 448.725C758.567 442.65 778.239 434.4 797.76 427.05C807.596 423.3 817.357 419.85 827.268 417C867.137 405.45 909.259 403.95 946.876 412.725C993.803 423.75 1031.64 451.2 1052.82 478.35" stroke="#884399" stroke-opacity="0.7" stroke-miterlimit="10"/>
<path d="M-77.2607 -55.2C-50.0806 -75.825 -15.1668 -84.825 17.3443 -81C43.9988 -77.925 68.7013 -66.3 87.5472 -49.5C91.8269 -45.675 95.8063 -41.55 99.4854 -37.2C118.256 -14.625 127.942 13.65 147.989 40.275C161.88 58.725 179.9 73.95 197.694 85.875C207.53 92.475 217.291 98.1 226.526 102.6C252.205 114.975 274.279 120.225 297.255 125.55C318.353 130.425 341.254 134.925 369.41 143.325C372.188 144.15 375.041 144.975 377.894 145.875C409.805 155.775 446.596 171.9 469.721 195.225C487.741 213.45 496.301 232.275 503.584 249.9C504.335 251.625 505.01 253.35 505.761 255.075C515.372 278.25 525.208 302.625 533.167 330.3C539.023 350.7 544.805 376.125 561.999 397.95C583.397 425.1 602.544 445.575 631.676 456.75C660.358 467.775 697.149 465.3 728.759 457.275C749.782 451.95 769.304 444.75 788.675 438.675C798.436 435.6 808.122 432.825 817.883 430.575C857.151 421.725 898.147 422.925 933.736 434.325C978.035 448.65 1011.52 479.25 1026.84 507.075" stroke="#884399" stroke-opacity="0.7" stroke-miterlimit="10"/>
<path d="M-82.5166 -50.55C-54.5856 -71.25 -18.6207 -79.65 14.3409 -74.4C41.3709 -70.2 66.1484 -57 84.3937 -38.625C88.5232 -34.425 92.3525 -29.925 95.8063 -25.275C113.451 -0.900019 121.109 29.175 141.157 56.7C154.972 75.75 173.743 90.975 192.589 102.225C203.025 108.45 213.462 113.55 223.373 117.3C250.928 127.65 274.955 129.825 299.658 132.15C322.258 134.325 346.735 136.2 375.942 143.025C378.87 143.7 381.799 144.45 384.802 145.2C417.839 153.75 455.681 170.325 477.905 195.6C495.25 215.4 501.782 236.1 506.963 255.525C507.488 257.475 508.014 259.35 508.539 261.225C515.372 286.65 522.355 313.2 527.836 342.6C531.815 364.2 535.945 391.125 553.664 413.1C574.988 439.575 595.936 456.975 625.069 466.275C653.6 475.425 689.19 472.875 720.35 465.9C741.073 461.25 760.369 455.175 779.59 450.375C789.201 447.9 798.812 445.8 808.497 444.3C847.24 438.15 887.11 442.05 920.597 456.075C962.343 473.625 991.475 507.525 1000.86 535.95" stroke="#884399" stroke-opacity="0.7" stroke-miterlimit="10"/>
<path d="M-87.7725 -45.9C-59.0906 -66.675 -22.1496 -74.4 11.4126 -67.8C38.8931 -62.475 63.6706 -47.7 81.2401 -27.675C85.2195 -23.1 88.8986 -18.3 92.1272 -13.2C108.721 13.05 114.352 44.775 134.249 73.2C147.989 92.925 167.511 108 187.333 118.575C198.37 124.425 209.482 128.925 220.069 131.925C249.577 140.25 275.481 139.275 301.985 138.675C326.162 138.15 352.066 137.4 382.399 142.725C385.403 143.25 388.481 143.85 391.56 144.45C425.798 151.65 464.616 168.75 485.939 195.9C502.608 217.2 507.113 239.85 510.266 261C510.567 263.1 510.867 265.2 511.242 267.225C515.297 294.975 519.502 323.625 522.43 354.75C524.532 377.55 527.01 405.9 545.255 428.1C566.429 453.825 589.254 468.3 618.386 475.65C646.693 482.85 681.231 480.3 711.865 474.375C732.213 470.4 751.434 465.45 770.43 461.85C779.966 460.05 789.501 458.55 799.037 457.725C837.254 454.275 875.997 460.8 907.382 477.525C946.501 498.375 971.353 535.425 974.732 564.525" stroke="#884399" stroke-opacity="0.7" stroke-miterlimit="10"/>
<path d="M-93.0283 -41.25C-63.6707 -62.1 -25.6035 -69.225 8.48434 -61.275C36.3403 -54.825 61.1929 -38.475 78.1617 -16.875C82.066 -11.925 85.5198 -6.74997 88.5232 -1.34997C103.99 26.775 107.669 60.225 127.416 89.475C141.081 109.8 161.279 124.875 182.227 134.775C193.79 140.25 205.653 144.225 216.841 146.475C248.225 152.775 276.081 148.725 304.313 145.2C329.991 141.975 357.397 138.6 388.857 142.425C392.01 142.8 395.164 143.25 398.392 143.775C433.756 149.625 473.626 167.175 494.048 196.35C509.966 219.225 512.519 243.75 513.645 266.7C513.72 268.95 513.87 271.2 513.945 273.45C515.297 303.45 516.648 334.2 516.949 367.125C517.174 391.2 518 420.9 536.771 443.325C557.794 468.375 582.496 479.775 611.629 485.325C639.785 490.65 673.122 488.025 703.23 483.15C723.278 479.925 742.274 476.1 761.12 473.7C770.58 472.5 779.966 471.75 789.351 471.525C827.043 470.775 864.585 480 893.867 499.35C930.433 523.425 950.855 563.775 948.378 593.475" stroke="#884399" stroke-opacity="0.7" stroke-miterlimit="10"/>
<path d="M-98.2842 -36.675C-68.1758 -57.6 -29.0573 -64.125 5.55607 -54.75C33.8625 -47.175 58.7151 -29.25 75.0082 -6.07503C78.7623 -0.750026 81.9909 4.79998 84.769 10.575C99.185 40.575 100.837 75.75 120.434 105.9C134.024 126.9 154.972 141.9 176.971 151.05C189.135 156.15 201.674 159.525 213.537 161.025C246.874 165.3 276.682 158.175 306.565 151.65C333.82 145.725 362.727 139.725 395.239 142.05C398.467 142.275 401.771 142.575 405.074 142.95C441.64 147.375 482.485 165.45 502.007 196.575C517.249 220.95 517.85 247.425 516.874 272.1C516.798 274.575 516.648 276.975 516.573 279.375C515.147 311.7 513.72 344.55 511.468 379.125C509.816 404.4 508.99 435.6 528.286 458.175C549.234 482.55 575.739 490.95 604.796 494.55C632.727 498 665.013 495.3 694.596 491.475C714.268 488.925 733.114 486.225 751.809 485.1C761.195 484.5 770.505 484.425 779.74 484.95C816.907 486.9 853.322 498.825 880.502 520.725C914.44 548.1 930.583 591.6 922.173 621.975" stroke="#884399" stroke-opacity="0.7" stroke-miterlimit="10"/>
<path d="M-103.54 -32.025C-72.6808 -53.025 -32.5112 -58.875 2.62779 -48.15C31.3096 -39.45 56.1622 -19.95 71.9297 4.8C75.5337 10.425 78.6121 16.35 81.165 22.5C94.4547 54.3 94.1543 91.2 113.601 122.25C127.116 143.85 148.815 158.775 171.791 167.325C184.555 172.05 197.694 174.825 210.308 175.65C245.597 177.825 277.283 167.7 308.893 158.175C337.65 149.55 368.058 140.925 401.696 141.675C405.074 141.75 408.453 141.9 411.832 142.2C449.524 145.2 491.345 163.875 510.041 196.95C524.607 222.825 523.256 251.25 520.102 277.725C519.802 280.35 519.501 282.9 519.201 285.525C514.921 320.1 510.792 355.125 505.986 391.425C502.457 417.9 499.905 450.6 519.802 473.325C540.6 497.025 568.981 502.425 598.039 504.075C625.819 505.65 656.904 502.875 686.036 500.1C705.333 498.225 724.103 496.65 742.574 496.8C751.809 496.875 761.045 497.4 770.205 498.6C806.845 503.25 842.059 517.875 867.212 542.4C898.597 573.075 910.31 619.8 895.969 650.775" stroke="#884399" stroke-opacity="0.7" stroke-miterlimit="10"/>
<path d="M-108.796 -27.3751C-77.1858 -48.4501 -35.9651 -53.7001 -0.300473 -41.6251C28.8319 -31.8001 53.6845 -10.7251 68.8513 15.6749C72.3051 21.6749 75.2334 27.9749 77.5609 34.4249C89.7995 68.0999 87.4719 106.725 106.768 138.6C120.208 160.875 142.583 175.725 166.685 183.6C179.975 187.95 193.865 190.125 207.155 190.2C244.321 190.35 278.033 177.225 311.295 164.7C341.629 153.375 373.464 142.125 408.228 141.375C411.682 141.3 415.211 141.3 418.74 141.45C457.633 143.1 500.43 162.225 518.225 197.25C532.115 224.7 528.737 254.925 523.556 283.275C523.03 286.05 522.505 288.825 522.054 291.6C514.996 328.5 508.164 365.625 500.731 403.65C495.4 431.4 491.12 465.45 511.543 488.4C532.191 511.5 562.524 513.825 591.506 513.525C619.062 513.225 649.095 510.375 677.627 508.65C696.623 507.45 715.169 507 733.489 508.425C742.649 509.1 751.809 510.375 760.819 512.175C796.934 519.6 831.022 536.85 854.073 564C882.83 597.9 890.263 647.85 869.991 679.5" stroke="#884399" stroke-opacity="0.7" stroke-miterlimit="10"/>
<path d="M-113.977 -22.725C-81.6907 -43.875 -39.4188 -48.45 -3.15357 -35.025C26.3542 -24.075 51.2818 -1.42505 65.7729 26.5499C69.0766 32.9249 71.8547 39.5999 73.957 46.4249C85.0694 81.9749 80.7896 122.25 99.9359 155.1C113.376 177.975 136.426 192.825 161.579 199.95C175.47 203.925 190.036 205.575 203.926 204.9C242.97 203.025 278.634 186.825 313.698 171.3C345.609 157.275 378.946 143.325 414.835 141.15C418.439 140.925 422.043 140.85 425.647 140.85C465.667 141.075 509.515 160.8 526.409 197.7C539.624 226.65 534.218 258.825 527.01 288.9C526.334 291.825 525.583 294.825 524.832 297.75C515.072 336.9 505.386 376.2 495.4 415.95C488.192 444.9 482.185 480.45 503.208 503.475C523.706 525.9 555.917 525.3 584.899 522.975C612.305 520.8 641.212 517.875 669.218 517.2C687.838 516.75 706.309 517.35 724.404 520.05C733.489 521.4 742.499 523.275 751.434 525.825C787.023 535.95 819.91 555.9 840.933 585.675C867.137 622.875 870.216 676.05 844.012 708.3" stroke="#884399" stroke-opacity="0.7" stroke-miterlimit="10"/>
<path d="M-119.232 -18.075C-86.1958 -39.3 -42.8727 -43.275 -6.08184 -28.5C30.709 -13.725 59.9164 19.575 70.353 58.275C80.4142 95.7 74.0321 137.7 93.1783 171.375C113.901 207.9 159.852 223.275 200.773 219.375C241.693 215.475 279.31 196.125 316.101 177.75C352.892 159.3 391.334 141.15 432.48 140.025C473.626 138.9 518.525 159.075 534.518 198C548.258 231.525 537.972 269.325 527.61 303.75C515.072 345.225 502.608 386.625 490.069 428.1C480.984 458.325 473.25 495.3 494.874 518.475C515.222 540.225 549.31 536.625 578.292 532.35C623.642 525.675 670.269 521.775 715.319 531.6C760.369 541.425 804.142 566.775 827.719 607.2C851.295 647.625 850.018 704.025 817.883 736.95" stroke="#884399" stroke-opacity="0.7" stroke-miterlimit="10"/>
<path d="M-92.728 -31.2751C-60.1419 -46.4251 -20.7231 -44.4751 10.4365 -27.1501C41.6711 -9.82508 63.9709 22.7999 71.0287 62.3999C77.7111 99.8999 70.8785 142.575 89.1238 177.45C108.946 215.025 154.221 232.875 195.817 229.875C235.912 227.025 272.627 208.125 308.968 191.175C347.11 173.325 387.205 156.525 429.627 155.25C470.397 154.05 514.921 173.025 531.44 211.05C545.706 243.825 536.245 281.55 526.184 315.675C514.096 356.475 501.557 397.05 489.393 437.85C480.458 468.075 473.325 504.975 494.949 528.15C515.372 550.05 549.535 546.975 578.667 542.85C623.192 536.475 668.917 532.275 713.141 541.875C757.516 551.475 800.388 576.6 823.589 616.425C846.79 656.25 845.739 711.525 814.804 744.375" stroke="#884399" stroke-opacity="0.7" stroke-miterlimit="10"/>
<path d="M-66.2988 -44.475C-34.0881 -53.625 1.27617 -45.675 26.8796 -25.8C52.5581 -5.92499 68.0253 25.95 71.7043 66.45C75.1582 104.025 67.6498 147.375 85.1443 183.45C103.915 222.075 148.74 242.325 190.862 240.3C229.98 238.425 265.945 220.125 301.835 204.6C341.404 187.35 383.075 171.9 426.848 170.55C467.243 169.35 511.392 187.05 528.436 224.25C543.228 256.35 534.593 293.85 524.832 327.825C513.194 367.95 500.58 407.775 488.792 447.825C480.007 478.05 473.55 514.875 495.099 538.05C515.597 560.1 549.91 557.55 579.193 553.5C622.891 547.35 667.641 543 711.039 552.3C754.662 561.675 796.784 586.65 819.534 625.875C842.285 665.1 841.459 719.25 811.726 752.025" stroke="#884399" stroke-opacity="0.7" stroke-miterlimit="10"/>
<path d="M-39.7944 -57.675C-8.03418 -60.75 23.2756 -46.95 43.3979 -24.525C63.4451 -2.17497 72.1548 29.025 72.3801 70.5C72.6053 108 64.4212 152.175 81.1648 189.375C98.9596 229.05 143.184 251.7 185.906 250.65C224.123 249.75 259.338 232.125 294.702 217.875C335.697 201.3 378.945 187.125 423.995 185.625C463.94 184.425 507.788 200.85 525.433 237.15C540.75 268.575 533.016 305.925 523.481 339.6C512.218 379.05 499.604 418.05 488.267 457.425C479.707 487.725 473.776 524.4 495.324 547.575C515.897 569.775 550.285 567.75 579.793 563.85C622.666 558.075 666.515 553.35 709.012 562.425C751.959 571.575 793.255 596.325 815.48 634.95C837.78 673.575 837.179 726.525 808.647 759.3" stroke="#884399" stroke-opacity="0.7" stroke-miterlimit="10"/>
<path d="M-13.29 -70.875C18.0197 -67.875 45.35 -48.3 59.9162 -23.175C74.3322 1.57501 76.3595 32.025 73.0558 74.55C70.1275 111.975 61.1926 156.975 77.1103 195.375C94.004 236.025 137.627 263.1 180.875 261.075C218.042 259.275 252.73 244.275 287.494 231.225C329.991 215.325 374.741 202.425 421.067 200.85C460.636 199.575 504.109 214.8 522.279 250.2C538.122 280.875 531.214 318.075 521.979 351.525C511.167 390.3 498.328 428.475 487.516 467.25C479.031 497.55 473.851 534.075 495.249 557.325C515.897 579.675 550.436 578.175 580.018 574.35C621.99 568.875 664.938 563.925 706.609 572.775C748.806 581.7 789.276 606.3 811.125 644.325C832.974 682.35 832.599 734.175 805.343 766.875" stroke="#884399" stroke-opacity="0.7" stroke-miterlimit="10"/>
<path d="M13.2144 -84.0751C44.0736 -75.0001 67.3494 -49.7251 76.4345 -21.9001C85.2193 5.17493 80.7143 34.9499 73.8066 78.5999C67.875 115.95 58.1142 161.775 73.2059 201.375C89.1236 243.075 132.146 272.85 175.995 271.5C212.26 270.375 246.198 256.425 280.361 244.65C324.36 229.5 370.611 217.8 418.289 216.15C457.482 214.875 500.58 228.825 519.276 263.4C535.569 293.4 529.562 330.45 520.627 363.675C510.191 401.775 497.352 439.2 486.915 477.225C478.581 507.525 474.001 543.975 495.399 567.15C516.122 589.65 550.736 588.675 580.544 584.925C621.69 579.75 663.736 574.5 704.507 583.125C746.028 591.825 785.672 616.275 807.07 653.625C828.469 690.975 828.394 741.675 802.265 774.3" stroke="#884399" stroke-opacity="0.7" stroke-miterlimit="10"/>
<path d="M39.644 -97.275C70.1279 -82.2 89.4243 -51.15 92.8781 -20.55C96.1818 8.84998 85.0695 37.95 74.4076 82.65C65.5478 119.85 54.8109 166.575 69.1518 207.375C84.0934 250.125 126.515 279.825 171.04 281.925C206.329 283.575 239.741 268.65 273.228 258C318.804 243.6 366.557 233.1 415.436 231.3C454.179 230.025 496.901 242.7 516.198 276.375C533.017 305.625 527.911 342.525 519.201 375.525C509.29 412.95 496.301 449.55 486.24 486.9C478.056 517.2 474.151 553.575 495.475 576.75C516.273 599.4 550.962 598.95 580.995 595.35C621.315 590.475 662.385 585 702.329 593.325C743.1 601.8 781.993 626.025 802.941 662.775C823.889 699.525 824.04 749.1 799.112 781.65" stroke="#884399" stroke-opacity="0.7" stroke-miterlimit="10"/>
<path d="M66.1483 -110.475C96.1816 -89.325 111.649 -52.575 109.396 -19.275C107.219 12.375 89.5743 40.95 75.1583 86.625C63.4453 123.75 51.7323 171.3 65.1722 213.3C79.2128 257.025 120.959 289.05 166.084 292.275C200.397 294.675 233.209 280.8 266.095 271.35C313.248 257.775 362.427 248.325 412.583 246.525C450.95 245.175 493.297 256.575 513.194 289.425C530.539 318 526.259 354.75 517.85 387.45C508.389 424.2 495.325 459.975 485.639 496.725C477.68 527.025 474.301 563.25 495.625 586.5C516.573 609.3 551.262 609.375 581.445 605.85C620.864 601.275 661.109 595.575 700.227 603.6C740.322 611.85 778.314 635.925 798.887 672.075C819.459 708.225 819.76 756.6 796.108 789.15" stroke="#884399" stroke-opacity="0.7" stroke-miterlimit="10"/>
<path d="M92.6526 -123.675C122.235 -96.45 133.873 -54 125.915 -17.925C118.331 16.05 94.1543 43.9499 75.834 90.7499C61.3429 127.8 48.5037 176.1 61.1927 219.375C74.2572 264.075 115.403 298.275 161.129 302.7C194.466 305.85 226.751 293.175 258.962 284.7C307.691 271.95 358.297 263.625 409.73 261.675C447.647 260.325 489.693 270.45 510.116 302.475C527.986 330.3 524.607 366.9 516.423 399.45C507.338 435.525 494.273 470.55 484.963 506.55C477.154 536.925 474.451 573 495.7 596.25C516.723 619.2 551.562 619.8 581.896 616.425C620.488 612.075 659.757 606.15 698.05 614.025C737.393 622.05 774.635 645.975 794.757 681.45C814.879 717 815.405 764.25 792.955 796.725" stroke="#884399" stroke-opacity="0.7" stroke-miterlimit="10"/>
<path d="M119.157 -136.875C148.364 -103.65 156.173 -55.425 142.433 -16.65C129.519 19.725 98.8094 47.025 76.5097 94.725C59.2405 131.775 45.3501 180.825 57.2133 225.225C69.3768 270.975 109.847 307.425 156.173 313.05C188.534 316.95 220.219 305.4 251.829 298.05C302.21 286.275 354.168 278.925 406.951 276.9C444.493 275.55 486.164 284.4 507.113 315.525C525.508 342.675 522.955 379.125 515.071 411.375C506.437 446.775 493.297 480.975 484.437 516.3C476.779 546.675 474.677 582.675 495.925 605.925C517.024 629.025 551.937 630.15 582.496 626.85C620.263 622.8 658.631 616.65 696.022 624.225C734.69 632.025 771.031 655.725 790.777 690.675C810.524 725.625 811.275 771.675 789.951 804.15" stroke="#884399" stroke-opacity="0.7" stroke-miterlimit="10"/>
<path d="M145.662 -150.075C174.419 -110.775 178.473 -56.7001 158.951 -15.3001C140.631 23.4749 103.54 50.1749 77.2607 98.8499C57.2885 135.9 42.2718 185.7 53.234 231.3C64.4965 278.1 104.291 316.725 151.218 323.55C182.678 328.125 213.762 317.925 244.697 311.475C296.654 300.675 350.038 294.3 404.098 292.125C441.265 290.7 482.561 298.35 504.109 328.65C523.03 355.05 521.303 391.35 513.72 423.375C505.536 458.1 492.321 491.475 483.837 526.2C476.404 556.575 474.902 592.5 496.075 615.675C517.249 638.925 552.238 640.575 582.947 637.425C619.813 633.6 657.279 627.225 693.845 634.575C731.762 642.15 767.352 665.7 786.648 699.975C805.944 734.25 806.92 779.25 786.873 811.575" stroke="#884399" stroke-opacity="0.7" stroke-miterlimit="10"/>
<path d="M172.091 -163.275C200.397 -117.9 200.698 -58.05 175.394 -14.025C151.743 27.15 108.195 53.325 77.8612 102.825C55.1861 139.875 39.0432 190.425 49.1794 237.225C59.5409 285 98.7344 325.725 146.262 333.825C176.746 339.075 207.305 330.225 237.563 324.75C291.173 315.075 345.909 309.525 401.245 307.275C437.961 305.85 478.956 312.225 501.031 341.625C520.478 367.35 519.577 403.5 512.293 435.3C504.485 469.35 491.27 501.975 483.161 535.95C475.878 566.4 474.977 602.1 496.151 625.35C517.399 648.75 552.538 650.85 583.397 647.85C619.437 644.325 656.003 637.725 691.668 644.85C728.909 652.275 763.672 675.6 782.518 709.275C801.364 742.95 802.566 786.75 783.72 819.075" stroke="#884399" stroke-opacity="0.7" stroke-miterlimit="10"/>
<path d="M198.595 -176.475C226.451 -125.025 222.997 -59.325 191.838 -12.675C162.78 30.9 112.925 56.55 78.4619 106.95C53.0837 144.15 35.8145 195.225 45.1248 243.3C54.5853 292.125 93.1031 334.875 141.232 344.325C170.739 350.175 200.773 342.75 230.355 338.175C285.617 329.7 341.779 324.9 398.317 322.5C434.657 321.075 475.277 326.175 497.877 354.675C517.85 379.725 517.774 415.65 510.792 447.225C503.434 480.6 490.144 512.4 482.41 545.7C475.352 576.15 475.052 611.775 496.15 635.025C517.474 658.575 552.688 661.2 583.773 658.275C618.987 654.975 654.576 648.15 689.415 655.05C725.981 662.25 759.843 685.35 778.238 718.425C796.634 751.5 798.061 794.175 780.416 826.425" stroke="#884399" stroke-opacity="0.7" stroke-miterlimit="10"/>
<path d="M225.1 -189.675C252.58 -132.225 245.222 -60.6001 208.356 -11.3251C173.893 34.7249 117.73 59.8499 79.2127 111C51.1316 148.275 32.7362 200.025 41.1455 249.3C49.705 299.1 87.6221 343.875 136.276 354.75C164.883 361.2 194.315 355.275 223.223 351.6C280.136 344.4 337.65 340.275 395.539 337.8C431.429 336.3 471.673 340.2 494.949 367.875C515.447 392.175 516.198 427.95 509.515 459.3C502.457 492 489.243 523.05 481.885 555.6C474.977 586.05 475.277 621.6 496.301 644.85C517.699 668.55 552.989 671.7 584.223 668.925C618.536 665.85 653.3 658.875 687.313 665.475C723.127 672.45 756.239 695.4 774.184 727.8C792.129 760.2 793.856 801.75 777.413 834" stroke="#884399" stroke-opacity="0.7" stroke-miterlimit="10"/>
<path d="M251.604 -202.875C278.634 -139.35 267.522 -61.95 224.874 -10.05C185.08 38.475 122.536 63.075 79.8886 114.975C49.1795 152.4 29.6578 204.75 37.1661 255.15C44.8997 305.925 82.1411 352.65 131.321 365.025C159.026 372 187.858 367.65 216.015 364.8C274.505 358.95 333.445 355.425 392.611 352.8C428.125 351.3 467.994 353.925 491.796 380.7C512.819 404.325 514.396 439.95 508.014 471.075C501.406 503.1 488.267 533.325 481.134 565.275C474.527 595.8 475.352 631.2 496.301 654.45C517.85 678.3 553.139 681.825 584.599 679.275C618.086 676.425 651.873 669.3 685.06 675.6C720.199 682.35 752.485 705.15 769.979 736.95C787.549 768.75 789.426 809.175 774.184 841.35" stroke="#884399" stroke-opacity="0.7" stroke-miterlimit="10"/>
<path d="M278.109 -216.075C304.688 -146.475 289.822 -63.1501 241.393 -8.70007C196.193 42.2999 127.341 66.5249 80.6396 119.1C47.2275 156.75 26.5045 209.625 33.262 261.225C40.0195 313.05 76.8104 361.575 126.44 375.525C153.245 383.025 181.401 380.25 208.957 378.3C269.099 373.95 329.391 370.8 389.833 368.175C424.972 366.675 464.466 368.025 488.793 393.9C510.342 416.775 512.744 452.25 506.663 483.15C500.431 514.5 487.216 543.975 480.609 575.175C474.151 605.7 475.578 640.95 496.526 664.275C518.15 688.275 553.59 692.325 585.2 689.925C617.861 687.3 650.747 679.95 683.033 686.1C717.421 692.625 748.881 715.2 766 746.4C783.119 777.6 785.222 816.825 771.181 848.925" stroke="#884399" stroke-opacity="0.7" stroke-miterlimit="10"/>
<path d="M304.538 -229.275C330.667 -153.675 311.971 -64.425 257.836 -7.42505C207.23 45.9749 132.071 69.8249 81.2398 123.075C45.1247 160.875 23.2755 214.275 29.132 267.15C34.9885 320.025 71.2537 370.275 121.409 385.875C147.313 393.9 174.869 392.775 201.749 391.575C263.467 388.8 325.186 386.025 386.904 383.325C421.593 381.75 460.786 381.9 485.639 406.95C507.638 429.15 510.942 464.475 505.16 495.075C499.379 525.75 486.089 554.4 479.857 584.925C473.625 615.45 475.578 650.625 496.526 673.875C518.225 698.025 553.739 702.6 585.5 700.275C617.26 697.95 649.245 690.375 680.705 696.225C714.418 702.525 745.052 724.95 761.72 755.55C778.389 786.15 780.716 824.25 767.952 856.275" stroke="#884399" stroke-opacity="0.7" stroke-miterlimit="10"/>
</g>
<mask id="mask1_5289_2815" style="mask-type:luminance" maskUnits="userSpaceOnUse" x="0" y="0" width="901" height="600">
<path d="M901 0H0V600H901V0Z" fill="white"/>
</mask>
<g mask="url(#mask1_5289_2815)">
<path d="M50.231 -23.1C88.3733 -19.425 123.738 5.54999 139.956 40.2C156.174 74.85 152.645 117.975 130.946 149.55C110.973 178.65 77.1108 198.375 65.0975 231.525C52.2582 267.15 71.1041 309.375 103.315 329.325C160.378 364.575 240.943 336.225 281.187 287.85C295.453 270.75 304.388 250.5 320.831 235.125C346.96 210.675 378.12 206.175 410.105 193.65C441.115 181.5 467.694 158.85 484.288 129.975C506.137 92.025 515.372 27.75 487.666 -9.975C472.575 -30.525 444.193 -42.3 420.242 -33.375L50.231 -23.1Z" fill="#1F2459"/>
</g>
<mask id="mask2_5289_2815" style="mask-type:luminance" maskUnits="userSpaceOnUse" x="0" y="0" width="901" height="600">
<path d="M901 0H0V600H901V0Z" fill="white"/>
</mask>
<g mask="url(#mask2_5289_2815)">
<path d="M1037.58 400.65C1001.39 384.6 959.715 385.5 920.822 393.15C862.482 404.625 807.296 430.65 747.379 433.95C698.575 436.65 658.18 419.55 618.311 393.15C591.957 375.675 566.429 356.4 537.146 343.875C458.459 310.275 357.321 337.2 305.814 405.45C273.453 448.35 260.389 502.275 237.113 550.65C213.837 599.025 173.067 646.05 119.382 649.05V705.675H1037.65L1037.58 400.65Z" fill="#1F2459"/>
</g>
<mask id="mask3_5289_2815" style="mask-type:luminance" maskUnits="userSpaceOnUse" x="0" y="0" width="901" height="600">
<path d="M901 0H0V600H901V0Z" fill="white"/>
</mask>
<g mask="url(#mask3_5289_2815)">
<path d="M164.132 -38.025C201.749 -54.75 246.874 -52.725 282.839 -32.7C318.879 -12.675 345.008 24.975 351.69 66.375C360.175 119.025 339.001 176.25 360.625 224.85C378.946 266.025 422.269 288 461.612 308.55C501.031 329.175 543.078 355.95 554.265 399.75C561.849 429.3 553.89 462.975 568.681 489.45C583.773 516.375 617.936 526.275 648.119 523.275C678.303 520.35 706.534 507.3 735.817 499.05C824.415 473.925 924.276 494.625 996.281 553.2" stroke="#6C76D4" stroke-opacity="0.7" stroke-miterlimit="10"/>
<path d="M160.303 -36.525C183.954 -46.8 210.609 -49.425 235.686 -44.7C250.928 -41.85 265.645 -36.3 278.859 -28.275C287.644 -22.875 295.753 -16.425 303.036 -9.15C320.456 8.40001 332.919 30.75 340.127 55.2C341.854 61.05 343.281 66.975 344.332 72.975C348.011 93.375 348.011 114.15 347.861 134.4C347.636 160.725 347.035 186.3 354.769 210.15C356.495 215.4 358.598 220.65 361.226 225.75C370.686 244.2 385.478 258.6 402.597 271.125C421.668 285.075 443.667 296.775 463.715 308.4C466.418 309.975 469.121 311.55 471.824 313.2C491.42 325.125 510.191 338.7 524.682 355.35C536.245 368.55 545.03 383.85 548.784 401.85C550.811 411.45 551.262 421.5 551.337 431.55C551.637 452.4 550.586 473.775 560.572 491.85C573.636 515.4 601.492 525.675 628.297 526.05C632.051 526.125 635.73 525.975 639.41 525.675C669.368 523.125 697.449 511.05 726.431 503.7C733.714 501.825 741.072 500.325 748.431 499.05C789.351 492.225 831.623 495.075 871.042 506.475C910.31 517.875 946.5 537.75 976.309 564" stroke="#6C76D4" stroke-opacity="0.7" stroke-miterlimit="10"/>
<path d="M156.474 -34.95C180.425 -45.075 207.305 -47.1 232.308 -41.625C247.475 -38.325 261.966 -32.25 274.805 -23.7C283.364 -18 291.173 -11.25 298.006 -3.67498C314.449 14.475 325.561 37.2 332.619 61.8C334.346 67.725 335.773 73.725 336.974 79.725C341.104 100.2 342.23 120.6 343.206 140.175C344.482 165.525 345.533 189.6 354.468 212.1C356.421 217.05 358.748 222 361.601 226.8C371.813 244.2 387.13 257.85 404.549 270.15C423.996 283.8 446.145 296.025 465.517 308.4C468.145 310.05 470.697 311.775 473.25 313.5C491.946 326.25 508.915 340.35 521.829 357.3C532.191 370.725 539.849 386.1 542.852 404.025C544.429 413.625 544.504 423.675 544.279 433.725C543.829 454.575 542.102 476.025 552.088 494.4C564.927 517.8 592.708 527.85 619.287 528.45C622.966 528.525 626.645 528.45 630.325 528.15C660.058 525.975 687.989 514.875 716.67 508.425C723.878 506.775 731.161 505.5 738.445 504.525C778.839 498.975 820.285 503.1 858.052 515.775C895.669 528.375 929.306 549.3 956.111 575.025" stroke="#6C76D4" stroke-opacity="0.7" stroke-miterlimit="10"/>
<path d="M152.72 -33.375C176.972 -43.275 204.152 -44.85 229.079 -38.625C244.171 -34.875 258.437 -28.275 270.826 -19.2C279.085 -13.2 286.593 -6.15003 293.05 1.72497C308.518 20.475 318.203 43.5 325.261 68.4C326.913 74.4 328.49 80.4 329.766 86.4C334.271 106.875 336.599 127.05 338.776 145.875C341.629 170.325 344.332 192.825 354.394 213.9C356.646 218.55 359.199 223.2 362.277 227.7C373.239 244.05 389.082 256.95 406.877 268.95C426.699 282.375 448.999 294.975 467.694 308.175C470.247 309.975 472.725 311.775 475.128 313.575C492.922 327.075 508.089 341.85 519.502 359.025C528.587 372.675 535.269 388.125 537.372 406.05C538.498 415.65 538.198 425.625 537.597 435.675C536.396 456.45 533.993 478.125 543.979 496.65C556.668 519.9 584.299 529.8 610.653 530.55C614.332 530.625 617.936 530.625 621.54 530.4C651.048 528.6 678.829 518.4 707.21 512.925C714.343 511.5 721.551 510.45 728.759 509.7C768.628 505.425 809.248 510.9 845.439 524.7C881.479 538.5 912.488 560.475 936.214 585.675" stroke="#6C76D4" stroke-opacity="0.7" stroke-miterlimit="10"/>
<path d="M148.89 -31.8C173.442 -41.55 200.923 -42.6 225.7 -35.55C240.717 -31.35 254.758 -24.15 266.771 -14.7C274.805 -8.39998 281.938 -0.974979 287.944 7.05002C302.436 26.4 310.77 49.8 317.677 74.925C319.329 81 320.906 87.075 322.408 93.075C327.363 113.625 330.817 133.5 334.196 151.575C338.626 175.05 342.981 196.05 354.243 215.775C356.721 220.125 359.574 224.4 362.803 228.675C374.591 243.975 390.884 256.125 408.979 267.9C429.176 281.025 451.551 294.15 469.646 308.1C472.049 309.975 474.451 311.85 476.779 313.875C493.673 328.2 507.038 343.5 516.949 361.05C524.832 374.925 530.464 390.45 531.74 408.375C532.416 417.975 531.74 427.95 530.764 437.925C528.887 458.625 525.658 480.525 535.719 499.275C548.108 522.45 575.739 532.05 601.868 533.025C605.472 533.175 609.151 533.175 612.68 532.95C641.962 531.525 669.593 522.3 697.674 517.725C704.732 516.6 711.865 515.7 718.923 515.175C758.266 512.175 798.061 519 832.599 534C866.987 549 895.444 572.025 916.092 596.7" stroke="#6C76D4" stroke-opacity="0.7" stroke-miterlimit="10"/>
<path d="M145.061 -30.225C169.914 -39.825 197.694 -40.35 222.397 -32.55C237.338 -27.825 251.154 -20.175 262.792 -10.2C270.6 -3.525 277.358 4.12502 282.989 12.45C296.504 32.4 303.412 56.175 310.244 81.525C311.896 87.675 313.548 93.75 315.125 99.75C320.456 120.3 325.111 139.95 329.691 157.275C335.623 179.85 341.704 199.35 354.093 217.65C356.871 221.7 359.874 225.675 363.403 229.65C375.942 243.9 392.761 255.3 411.231 266.85C431.879 279.675 454.329 293.325 471.749 308.025C474.076 309.975 476.329 312 478.506 314.1C494.499 329.25 505.987 345.15 514.396 362.925C521.078 377.025 525.658 392.7 526.109 410.55C526.334 420.15 525.283 430.125 524.007 440.1C521.379 460.725 517.474 482.85 527.536 501.75C539.774 524.775 567.255 534.225 593.158 535.35C596.762 535.5 600.366 535.5 603.895 535.425C632.953 534.375 660.433 526.125 688.214 522.45C695.197 521.55 702.179 520.875 709.237 520.575C748.055 518.85 786.948 526.95 819.91 543.225C852.721 559.425 878.625 583.5 896.12 607.65" stroke="#6C76D4" stroke-opacity="0.7" stroke-miterlimit="10"/>
<path d="M141.232 -28.65C166.385 -38.1 194.466 -38.025 219.018 -29.475C233.885 -24.3 247.475 -16.125 258.737 -5.62501C266.246 1.34999 272.703 9.3 277.959 17.85C290.423 38.475 295.979 62.475 302.736 88.125C304.388 94.35 306.04 100.425 307.767 106.5C313.548 127.125 319.255 146.4 325.111 163.05C332.619 184.65 340.353 202.65 353.943 219.6C356.946 223.35 360.25 227.025 363.929 230.7C377.219 243.9 394.563 254.55 413.334 265.875C434.357 278.475 456.957 292.575 473.701 308.025C475.953 310.125 478.131 312.225 480.158 314.4C495.25 330.3 504.936 346.8 511.843 364.875C517.249 379.2 520.853 394.95 520.403 412.8C520.178 422.4 518.751 432.375 517.099 442.275C513.72 462.825 509.14 485.175 519.201 504.3C531.215 527.25 558.62 536.4 584.299 537.75C587.903 537.975 591.432 537.975 594.961 537.9C623.717 537.225 651.123 529.875 678.603 527.175C685.511 526.5 692.419 526.125 699.401 526.05C737.694 525.6 775.761 535.05 807.071 552.525C838.231 569.925 861.582 595.05 875.998 618.675" stroke="#6C76D4" stroke-opacity="0.7" stroke-miterlimit="10"/>
<path d="M137.478 -27.15C162.856 -36.45 191.312 -35.85 215.714 -26.55C230.506 -20.925 243.871 -12.225 254.758 -1.20004C262.041 6.07496 268.123 14.325 272.928 23.175C284.416 44.4 288.62 68.775 295.303 94.65C296.879 100.875 298.681 107.1 300.483 113.175C306.64 133.8 313.548 152.85 320.606 168.75C329.691 189.45 339.001 205.875 353.793 221.4C357.021 224.85 360.55 228.225 364.53 231.6C378.57 243.75 396.515 253.725 415.586 264.675C436.985 276.975 459.735 291.525 475.803 307.875C477.98 310.05 480.008 312.3 481.96 314.55C496.151 331.275 504.034 348.3 509.365 366.675C513.57 381.15 516.048 397.05 514.846 414.825C514.171 424.425 512.369 434.325 510.341 444.3C506.287 464.85 500.956 487.275 510.942 506.625C522.805 529.425 550.06 538.425 575.514 539.925C579.043 540.15 582.572 540.225 586.1 540.225C614.632 540 641.887 533.55 669.067 531.75C675.9 531.3 682.733 531.15 689.565 531.3C727.332 532.125 764.574 542.925 794.231 561.525C823.814 580.125 844.537 606.3 855.95 629.4" stroke="#6C76D4" stroke-opacity="0.7" stroke-miterlimit="10"/>
<path d="M133.648 -25.575C159.327 -34.725 188.009 -33.6 212.411 -23.475C227.127 -17.4 240.267 -8.09998 250.778 3.30002C257.761 10.95 263.543 19.5 267.973 28.575C278.484 50.4 281.262 75.075 287.87 101.25C289.446 107.55 291.248 113.775 293.2 119.85C299.733 140.55 307.842 159.3 316.101 174.45C326.763 194.175 337.725 209.175 353.643 223.275C357.171 226.35 360.926 229.5 365.055 232.575C379.922 243.675 398.317 252.9 417.764 263.625C439.538 275.625 462.438 290.7 477.755 307.8C479.783 310.05 481.735 312.45 483.612 314.775C496.902 332.325 502.983 349.875 506.813 368.55C509.816 383.25 511.243 399.225 509.215 417C508.089 426.6 505.912 436.5 503.584 446.4C498.779 466.875 492.772 489.525 502.758 509.1C514.396 531.75 541.576 540.525 566.804 542.25C570.333 542.475 573.787 542.625 577.241 542.625C605.547 542.775 632.652 537.3 659.607 536.4C666.365 536.175 673.122 536.25 679.88 536.625C717.121 538.725 753.461 550.875 781.543 570.675C809.474 590.475 827.644 617.7 835.978 640.275" stroke="#6C76D4" stroke-opacity="0.7" stroke-miterlimit="10"/>
<path d="M129.819 -24C155.798 -33 184.78 -31.35 209.032 -20.475C223.674 -13.95 236.588 -4.12498 246.724 7.80002C253.482 15.75 258.963 24.6 262.942 33.9C272.478 56.325 273.904 81.375 280.361 107.775C281.938 114.15 283.815 120.45 285.842 126.525C292.825 147.3 302.061 165.675 311.521 180.225C323.685 199.05 336.299 212.475 353.493 225.225C357.247 228 361.301 230.85 365.581 233.625C381.198 243.675 400.119 252.15 419.866 262.65C442.016 274.425 465.066 289.95 479.708 307.8C481.66 310.2 483.537 312.6 485.189 315.15C497.577 333.45 501.857 351.6 504.11 370.575C505.912 385.5 506.287 401.625 503.434 419.325C501.857 428.925 499.304 438.825 496.601 448.725C491.045 469.125 484.363 492 494.349 511.725C505.762 534.3 532.942 542.85 557.869 544.725C561.323 545.025 564.852 545.175 568.231 545.25C596.312 545.775 623.267 541.2 649.922 541.275C656.604 541.275 663.286 541.575 669.969 542.175C706.685 545.55 742.199 558.975 768.628 580.05C794.908 601.05 810.6 629.325 815.781 651.375" stroke="#6C76D4" stroke-opacity="0.7" stroke-miterlimit="10"/>
<path d="M126.065 -22.425C152.344 -31.275 181.627 -29.1 205.803 -17.4C220.37 -10.425 233.059 -0.075007 242.744 12.375C249.202 20.625 254.382 29.775 257.986 39.375C266.546 62.4 266.546 87.825 272.928 114.45C274.505 120.9 276.382 127.2 278.559 133.275C285.917 154.05 296.354 172.2 307.016 186C320.756 203.85 335.022 215.775 353.342 227.175C357.397 229.65 361.601 232.125 366.181 234.675C382.55 243.675 401.996 251.4 422.118 261.6C444.643 273.075 467.844 289.125 481.81 307.725C483.687 310.2 485.414 312.75 486.991 315.375C498.403 334.5 500.956 353.175 501.707 372.45C502.307 387.525 501.557 403.8 497.878 421.5C495.85 431.1 492.922 441 489.844 450.825C483.537 471.15 476.178 494.175 486.165 514.2C497.427 536.625 524.457 544.95 549.159 547.05C552.613 547.35 556.067 547.575 559.446 547.65C587.302 548.55 614.107 544.95 640.461 545.925C647.068 546.15 653.675 546.675 660.283 547.575C696.473 552.15 731.161 567 755.939 589.275C780.641 611.475 793.706 640.8 795.808 662.325" stroke="#6C76D4" stroke-opacity="0.7" stroke-miterlimit="10"/>
<path d="M122.236 -20.85C148.815 -29.55 178.398 -26.775 202.425 -14.4C216.991 -6.97503 229.38 3.97495 238.69 16.8C244.922 25.35 249.727 34.875 252.881 44.7C260.464 68.325 259.113 94.05 265.345 120.975C266.846 127.5 268.874 133.875 271.126 139.95C278.935 160.8 290.498 178.65 302.286 191.7C317.603 208.65 333.445 219.075 353.042 228.975C357.322 231.15 361.827 233.325 366.557 235.575C383.751 243.525 403.648 250.5 424.071 260.475C446.971 271.65 470.247 288.15 483.612 307.575C485.414 310.2 487.066 312.825 488.492 315.525C499.004 335.475 499.755 354.675 499.004 374.25C498.403 389.55 496.601 405.9 492.096 423.6C489.619 433.2 486.315 443.025 482.861 452.925C475.878 473.175 467.769 496.425 477.755 516.6C488.793 538.875 515.748 546.975 540.225 549.3C543.603 549.6 547.057 549.9 550.436 550.05C578.067 551.325 604.721 548.7 630.775 550.575C637.308 551.025 643.84 551.85 650.297 552.9C685.886 558.75 719.824 574.95 742.95 598.35C766 621.75 776.512 652.125 775.536 673.125" stroke="#6C76D4" stroke-opacity="0.7" stroke-miterlimit="10"/>
<path d="M118.406 -19.2749C145.286 -27.8249 175.169 -24.5249 199.121 -11.3249C213.612 -3.37494 225.775 8.02507 234.71 21.3751C240.642 30.3001 245.147 40.0501 247.925 50.1001C254.532 74.4001 251.754 100.425 257.986 127.5C259.488 134.1 261.515 140.475 263.918 146.625C272.102 167.475 284.866 185.1 297.855 197.4C314.674 213.375 332.244 222.3 352.967 230.85C357.472 232.725 362.277 234.6 367.232 236.55C385.177 243.45 405.6 249.675 426.398 259.425C449.674 270.375 473.1 287.325 485.789 307.5C487.516 310.2 489.018 312.975 490.294 315.75C499.905 336.45 498.853 356.325 496.526 376.125C494.724 391.65 491.871 408.075 486.54 425.7C483.612 435.3 479.932 445.125 476.178 454.95C468.445 475.2 459.66 498.6 469.646 519C480.533 541.2 507.338 549.075 531.59 551.55C534.969 551.925 538.347 552.15 541.726 552.375C569.131 554.025 595.636 552.375 621.389 555.15C627.847 555.825 634.304 556.875 640.686 558.15C675.75 565.275 708.786 582.825 730.335 607.425C751.809 632.025 759.693 663.45 755.638 683.925" stroke="#6C76D4" stroke-opacity="0.7" stroke-miterlimit="10"/>
<path d="M114.577 -17.775C141.757 -26.1 171.941 -22.35 195.742 -8.40003C210.158 -2.47034e-05 222.096 11.925 230.656 25.8C236.362 35.025 240.492 45.075 242.895 55.425C248.526 80.325 244.396 106.65 250.478 134.025C251.98 140.7 254.082 147.15 256.56 153.225C265.194 174.15 279.01 191.4 293.275 203.025C311.671 218.1 330.817 225.45 352.817 232.65C357.622 234.225 362.577 235.8 367.758 237.375C386.454 243.225 407.477 248.7 428.501 258.225C452.152 268.875 475.728 286.35 487.741 307.275C489.318 310.05 490.745 312.975 491.946 315.9C500.656 337.425 497.878 357.825 493.973 377.925C490.97 393.6 486.99 410.175 480.834 427.8C477.455 437.475 473.4 447.225 469.271 457.05C460.786 477.225 451.326 500.775 461.312 521.4C471.974 543.45 498.703 551.1 522.73 553.8C526.109 554.175 529.413 554.475 532.791 554.775C559.971 556.875 586.326 556.05 611.779 559.8C618.161 560.7 624.543 561.975 630.85 563.55C665.388 571.95 697.599 590.775 717.496 616.65C737.318 642.45 742.649 674.925 735.591 694.875" stroke="#6C76D4" stroke-opacity="0.7" stroke-miterlimit="10"/>
<path d="M110.823 -16.2C138.229 -24.375 168.712 -20.1 192.514 -5.32497C206.855 3.52503 218.568 15.975 226.752 30.375C232.158 39.9 235.987 50.25 237.939 60.825C242.594 86.325 237.038 113.025 243.045 140.625C244.472 147.375 246.649 153.825 249.277 159.975C258.287 180.9 273.304 197.925 288.771 208.8C308.743 222.9 329.541 228.825 352.667 234.6C357.697 235.875 362.953 237.15 368.359 238.425C387.806 243.225 409.355 247.95 430.753 257.175C454.78 267.525 478.506 285.525 489.844 307.2C491.346 310.125 492.697 313.05 493.748 316.125C501.557 338.4 496.977 359.4 491.496 379.8C487.291 395.7 482.26 412.425 475.278 429.975C471.448 439.65 467.019 449.4 462.514 459.15C453.353 479.25 443.142 503.025 453.128 523.875C463.64 545.775 490.219 553.275 514.021 556.125C517.324 556.5 520.628 556.875 523.932 557.175C550.887 559.65 577.091 559.8 602.244 564.45C608.551 565.65 614.858 567.075 621.015 568.875C655.027 578.55 686.412 598.725 704.657 625.8C722.903 652.8 725.681 686.325 715.469 705.75" stroke="#6C76D4" stroke-opacity="0.7" stroke-miterlimit="10"/>
<path d="M106.994 -14.625C134.699 -22.65 165.484 -17.775 189.135 -2.32496C203.401 6.97504 214.888 20.025 222.697 34.8C227.878 44.7 231.332 55.3501 232.908 66.1501C236.587 92.2501 229.68 119.25 235.536 147.15C236.963 153.975 239.14 160.425 241.918 166.575C251.379 187.575 267.522 204.3 284.19 214.425C305.739 227.625 328.114 231.975 352.441 236.325C357.772 237.3 363.178 238.275 368.809 239.25C389.082 243 411.081 246.975 432.78 255.975C457.257 266.1 481.059 284.55 491.721 306.975C493.147 309.975 494.349 313.05 495.325 316.2C502.232 339.3 495.85 360.825 488.868 381.525C483.462 397.65 477.305 414.45 469.571 432C465.366 441.825 460.561 451.575 455.681 461.325C445.77 481.35 434.883 505.35 444.869 526.35C455.23 548.175 481.66 555.375 505.236 558.45C508.539 558.9 511.843 559.275 515.072 559.65C541.726 562.5 567.78 563.625 592.708 569.175C598.94 570.6 605.172 572.25 611.253 574.275C644.741 585.225 675.224 606.75 691.893 634.95C708.486 663.15 708.712 697.725 695.422 716.625" stroke="#6C76D4" stroke-opacity="0.7" stroke-miterlimit="10"/>
<path d="M103.165 -13.05C131.171 -20.925 162.255 -15.525 185.831 0.749977C200.022 10.5 211.285 24.075 218.718 39.375C223.598 49.575 226.827 60.525 227.953 71.625C230.656 98.325 222.322 125.7 228.178 153.825C229.605 160.725 231.857 167.25 234.711 173.4C244.546 194.4 261.891 210.825 279.761 220.275C302.811 232.5 326.913 235.425 352.441 238.35C357.997 239.025 363.704 239.625 369.56 240.375C390.584 243.075 413.109 246.3 435.183 255.075C460.036 264.9 483.987 283.8 493.973 307.05C495.325 310.125 496.376 313.35 497.202 316.575C503.209 340.5 495.024 362.55 486.465 383.55C479.858 399.9 472.65 416.775 464.09 434.325C459.36 444 454.179 453.675 448.998 463.425C438.337 483.375 426.774 507.525 436.76 528.825C446.896 550.5 473.25 557.55 496.601 560.775C499.83 561.225 503.133 561.675 506.362 562.05C532.791 565.275 558.695 567.3 583.322 573.825C589.479 575.475 595.636 577.35 601.643 579.6C634.604 591.825 664.262 614.7 679.354 644.1C694.371 673.5 691.968 709.05 675.6 727.5" stroke="#6C76D4" stroke-opacity="0.7" stroke-miterlimit="10"/>
<path d="M99.4102 -11.475C127.717 -19.2 159.101 -13.275 182.527 3.74998C196.643 13.95 207.68 28.05 214.663 43.875C219.318 54.375 222.171 65.625 222.922 76.95C224.649 104.325 214.963 132 220.67 160.35C222.096 167.325 224.349 173.85 227.352 180.075C237.639 201.15 256.109 217.275 275.18 225.975C299.808 237.3 325.486 238.725 352.216 240.225C357.997 240.6 364.004 240.9 370.011 241.35C391.785 243 414.835 245.475 437.285 253.95C462.513 263.475 486.615 282.9 495.85 306.975C497.127 310.2 498.103 313.5 498.778 316.875C503.884 341.55 493.898 364.275 483.837 385.575C476.028 402.15 467.694 419.1 458.309 436.575C453.128 446.25 447.572 455.925 442.015 465.6C430.603 485.55 418.364 509.85 428.275 531.3C438.261 552.825 464.465 559.65 487.591 563.175C490.82 563.625 494.048 564.15 497.277 564.6C523.481 568.2 549.234 571.2 573.637 578.625C579.718 580.5 585.8 582.675 591.732 585.15C624.168 598.65 653 622.8 666.439 653.475C679.804 684.075 674.849 720.675 655.402 738.6" stroke="#6C76D4" stroke-opacity="0.7" stroke-miterlimit="10"/>
<path d="M95.5811 -9.89997C124.188 -17.475 155.873 -11.025 179.149 6.82502C193.189 17.475 204.001 32.1 210.609 48.375C215.039 59.175 217.516 70.8 217.817 82.35C218.568 110.325 207.455 138.3 213.086 166.95C214.438 173.925 216.841 180.6 219.919 186.75C230.581 207.9 250.253 223.725 270.525 231.75C296.729 242.1 324.06 242.025 351.991 242.175C358.072 242.175 364.229 242.25 370.536 242.4C393.136 243 416.637 244.725 439.388 252.975C464.991 262.275 489.168 282.15 497.802 306.975C498.929 310.275 499.83 313.65 500.43 317.175C504.635 342.675 492.922 365.925 481.284 387.525C472.274 404.325 462.889 421.35 452.677 438.825C447.046 448.425 441.115 458.175 435.183 467.85C423.095 487.725 410.18 512.175 420.016 533.925C429.852 555.3 455.981 561.975 478.806 565.65C482.035 566.175 485.188 566.7 488.417 567.15C514.396 571.125 539.999 575.1 564.101 583.425C570.183 585.525 576.114 587.925 581.896 590.625C613.806 605.4 641.812 630.9 653.6 662.7C665.388 694.5 657.88 732.15 635.355 749.55" stroke="#6C76D4" stroke-opacity="0.7" stroke-miterlimit="10"/>
<path d="M91.752 -8.39995C120.659 -15.8249 152.645 -8.77496 175.845 9.75004C189.811 20.925 200.398 36.075 206.629 52.8C210.759 63.975 212.936 75.825 212.861 87.675C212.636 116.25 200.172 144.6 205.653 173.475C207.005 180.525 209.408 187.2 212.711 193.425C223.824 214.575 244.622 230.175 266.02 237.45C293.726 246.9 322.783 245.325 351.841 243.975C358.148 243.675 364.605 243.45 371.062 243.3C394.413 242.85 418.515 243.825 441.565 251.85C467.544 260.85 491.871 281.25 499.83 306.825C500.881 310.2 501.632 313.725 502.082 317.325C505.386 343.65 491.871 367.425 478.656 389.325C468.445 406.275 457.933 423.45 446.971 440.925C440.889 450.525 434.582 460.2 428.351 469.875C415.511 489.675 401.921 514.35 411.757 536.25C421.443 557.55 447.422 563.925 470.022 567.825C473.175 568.35 476.329 568.875 479.482 569.475C505.236 573.9 530.689 578.7 554.491 588C560.497 590.325 566.354 592.95 572.06 595.875C603.445 611.925 630.55 638.775 640.761 671.775C650.898 704.775 640.836 743.475 615.233 760.35" stroke="#6C76D4" stroke-opacity="0.7" stroke-miterlimit="10"/>
<path d="M87.9229 -6.82503C117.13 -14.1 149.341 -6.52502 172.467 12.825C186.357 24.45 196.719 40.125 202.575 57.375C206.479 68.85 208.281 81 207.831 93.075C206.63 122.25 192.739 150.9 198.22 180.075C199.572 187.2 202.05 193.95 205.428 200.1C216.916 221.325 238.84 236.55 261.516 243.15C290.798 251.625 321.432 248.55 351.691 245.85C358.298 245.25 364.905 244.725 371.663 244.275C395.764 242.775 420.392 243 443.743 250.8C470.097 259.5 494.574 280.35 501.857 306.75C502.833 310.275 503.509 313.875 503.809 317.55C506.212 344.625 490.895 369.075 476.179 391.2C464.766 408.375 453.203 425.625 441.34 443.1C434.808 452.7 428.201 462.375 421.518 472.05C407.928 491.775 393.662 516.6 403.498 538.8C412.959 559.95 438.862 566.175 461.237 570.225C464.391 570.825 467.544 571.35 470.623 571.95C496.151 576.75 521.454 582.525 544.955 592.725C550.887 595.275 556.668 598.125 562.299 601.275C593.159 618.6 619.438 646.725 627.997 681C636.557 715.275 623.868 754.95 595.186 771.3" stroke="#6C76D4" stroke-opacity="0.7" stroke-miterlimit="10"/>
<path d="M84.1685 -5.25C113.601 -12.375 146.187 -4.27499 169.238 15.825C192.288 35.925 205.128 67.575 202.875 98.4C200.698 128.175 185.381 157.2 190.787 186.6C196.643 218.475 226.151 241.275 257.01 248.85C287.87 256.425 320.155 251.85 351.615 247.725C383.075 243.6 415.661 240.15 445.995 249.675C476.329 259.2 503.884 285.375 505.611 317.7C507.113 345.6 489.994 370.575 473.701 393C454.104 420 434.432 447.075 414.835 474.075C400.495 493.8 385.553 518.775 395.389 541.125C404.624 562.125 430.453 568.125 452.602 572.4C487.366 579.075 522.355 588 552.613 606.525C582.947 625.125 608.4 654.6 615.308 690.075C622.216 725.55 606.974 766.275 575.213 782.1" stroke="#6C76D4" stroke-opacity="0.7" stroke-miterlimit="10"/>
<path d="M101.438 -7.42501C129.519 -11.25 158.726 -0.600014 178.173 19.8C197.619 40.275 206.779 70.2 202.5 100.875C198.445 130.05 182.753 159.375 187.408 189.225C192.514 221.475 221.27 245.55 252.205 253.725C282.313 261.675 314.073 257.175 345.008 253.8C377.143 250.275 410.405 247.875 441.415 257.625C471.523 267.15 499.079 292.425 501.331 324.45C503.283 352.05 486.69 377.1 470.547 399.45C451.251 426.15 431.804 452.775 412.508 479.475C398.317 499.2 383.676 524.25 393.512 546.6C402.822 567.675 428.576 573.975 450.8 578.325C485.038 584.925 519.502 593.55 549.46 611.85C579.418 630.15 604.496 659.4 611.253 694.425C618.011 729.45 603.144 769.65 572.06 785.7" stroke="#6C76D4" stroke-opacity="0.7" stroke-miterlimit="10"/>
<path d="M118.632 -9.675C145.286 -10.2 171.115 2.925 186.958 23.7C202.8 44.475 208.281 72.75 201.974 103.2C196.043 131.775 179.975 161.325 183.954 191.7C188.384 224.325 216.315 249.675 247.4 258.45C276.832 266.775 307.992 262.425 338.401 259.725C371.212 256.8 405.075 255.45 436.835 265.425C466.718 274.8 494.349 299.4 497.052 331.05C499.379 358.35 483.312 383.475 467.394 405.75C448.473 432.15 429.101 458.325 410.18 484.725C396.065 504.525 381.799 529.65 391.56 552C400.87 573.225 426.549 579.825 448.848 584.25C482.561 590.85 516.574 599.175 546.081 617.175C575.739 635.25 600.291 664.2 606.974 698.85C613.656 733.5 599.09 773.025 568.681 789.3" stroke="#6C76D4" stroke-opacity="0.7" stroke-miterlimit="10"/>
<path d="M135.901 -11.925C161.129 -9.22505 183.654 6.44996 195.892 27.525C208.206 48.6 210.008 75.15 201.599 105.525C193.865 133.5 177.197 163.35 180.575 194.175C184.179 227.25 211.36 253.8 242.594 263.25C271.276 271.95 301.985 267.825 331.793 265.8C365.28 263.55 399.744 263.175 432.255 273.3C461.913 282.6 489.618 306.375 492.772 337.65C495.55 364.65 479.933 389.85 464.24 412.05C445.695 438.225 426.473 463.875 407.853 489.975C393.812 509.775 379.922 534.975 389.683 557.325C398.993 578.625 424.671 585.525 447.046 590.1C480.233 596.7 513.795 604.725 542.853 622.35C572.135 640.125 596.312 668.85 602.844 703.05C609.376 737.25 595.186 776.25 565.453 792.675" stroke="#6C76D4" stroke-opacity="0.7" stroke-miterlimit="10"/>
<path d="M153.17 -14.1C176.971 -8.09998 196.118 10.05 204.827 31.5C213.537 52.875 211.735 77.7 201.223 107.925C191.763 135.225 174.569 165.375 177.272 196.8C180.125 230.25 206.554 258 237.939 268.125C265.945 277.125 296.054 273.3 325.411 271.875C359.574 270.225 394.638 270.9 427.9 281.25C457.333 290.475 485.038 313.5 488.717 344.4C491.946 371.1 476.854 396.375 461.387 418.5C443.217 444.375 424.071 469.575 405.825 495.375C391.86 515.25 378.345 540.45 388.106 562.8C397.491 584.175 423.019 591.45 445.469 596.025C478.131 602.7 511.242 610.35 539.849 627.675C568.756 645.225 592.558 673.725 598.94 707.4C605.322 741.075 591.506 779.55 562.449 796.2" stroke="#6C76D4" stroke-opacity="0.7" stroke-miterlimit="10"/>
<path d="M170.439 -16.35C192.889 -7.04998 208.582 13.5 213.763 35.4C218.868 57 213.537 80.175 200.848 110.325C189.661 137.025 171.866 167.475 173.893 199.35C176.071 233.175 201.674 262.125 233.134 272.925C260.464 282.225 290.047 276.9 318.804 277.875C353.643 279.075 389.382 278.55 423.32 289.125C452.528 298.275 480.308 320.55 484.438 351C488.042 377.4 473.476 402.75 458.234 424.8C440.439 450.375 421.368 475.05 403.498 500.625C389.608 520.5 376.468 545.85 386.229 568.2C395.614 589.725 421.143 597.3 443.668 601.95C475.803 608.625 508.465 615.975 536.621 633C565.153 650.25 588.503 678.525 594.886 711.825C601.193 745.125 587.678 782.925 559.296 799.8" stroke="#6C76D4" stroke-opacity="0.7" stroke-miterlimit="10"/>
<path d="M187.709 -18.525C208.732 -5.92502 221.121 17.025 222.622 39.3C224.124 61.125 215.264 82.65 200.473 112.65C187.633 138.675 169.163 169.425 170.514 201.825C171.941 236.025 196.794 266.175 228.404 277.65C254.983 287.25 284.116 282.075 312.272 283.875C347.711 286.125 384.127 286.2 418.815 297C447.797 306 475.653 327.525 480.233 357.675C484.288 383.85 470.172 409.2 455.155 431.25C437.736 456.525 418.74 480.75 401.321 506.025C387.505 525.975 374.741 551.325 384.427 573.675C393.812 595.275 419.266 603.15 441.941 607.95C473.551 614.625 505.762 621.6 533.542 638.4C561.774 655.425 584.674 683.4 590.906 716.25C597.138 749.1 583.923 786.375 556.293 803.4" stroke="#6C76D4" stroke-opacity="0.7" stroke-miterlimit="10"/>
<path d="M204.903 -20.775C224.499 -4.95003 233.584 20.475 231.482 43.2C229.455 65.25 217.066 85.1249 200.022 115.05C185.531 140.475 166.46 171.525 167.136 204.45C167.811 239.025 191.838 270.375 223.673 282.525C249.577 292.425 278.259 287.475 305.739 289.95C341.855 293.175 378.871 294 414.31 304.875C443.067 313.8 470.923 334.575 476.028 364.35C480.533 390.225 466.943 415.725 452.077 437.625C435.033 462.6 416.187 486.375 399.068 511.35C385.328 531.3 372.939 556.725 382.625 579.075C392.01 600.75 417.463 609 440.139 613.8C471.223 620.475 502.908 627.15 530.314 643.65C558.17 660.375 580.695 688.125 586.776 720.6C592.858 753.075 580.019 789.675 553.064 806.925" stroke="#6C76D4" stroke-opacity="0.7" stroke-miterlimit="10"/>
<path d="M222.172 -22.95C240.342 -3.82495 246.123 24 240.417 47.175C234.936 69.45 219.018 87.6751 199.647 117.525C183.579 142.35 163.832 173.625 163.757 207.075C163.757 242.025 186.958 274.575 218.868 287.475C244.096 297.675 272.252 293.1 299.132 296.1C335.848 300.225 373.615 301.8 409.73 312.9C438.261 321.75 466.192 341.7 471.749 371.1C476.629 396.675 463.64 422.25 448.923 444.075C432.255 468.825 413.484 492.075 396.74 516.75C383.15 536.775 371.062 562.275 380.748 584.55C390.208 606.375 415.511 614.85 438.337 619.8C468.895 626.475 500.13 632.85 527.085 648.975C554.566 665.475 576.715 692.925 582.647 724.95C588.578 756.975 576.114 793.05 549.835 810.525" stroke="#6C76D4" stroke-opacity="0.7" stroke-miterlimit="10"/>
<path d="M239.441 -25.2C256.185 -2.77495 258.737 27.3751 249.352 51.0751C240.417 73.5751 220.971 90.1501 199.271 119.85C181.627 144 161.129 175.65 160.453 209.55C159.703 244.875 182.152 278.55 214.213 292.2C238.69 302.625 266.246 300.75 292.75 302.025C330.442 303.9 368.509 309.375 405.375 320.7C433.682 329.475 461.688 348.675 467.694 377.7C473.025 402.975 460.486 428.625 445.995 450.375C429.702 474.825 411.082 497.625 394.638 522C381.123 542.025 369.41 567.6 379.021 589.95C388.481 611.85 413.785 620.625 436.61 625.725C466.643 632.4 497.427 638.475 523.932 654.3C551.112 670.5 572.736 697.725 578.592 729.375C584.449 760.95 572.285 796.425 546.682 814.125" stroke="#6C76D4" stroke-opacity="0.7" stroke-miterlimit="10"/>
<path d="M256.71 -27.375C272.102 -1.725 271.426 30.975 258.287 54.975C245.898 77.7 222.922 92.7 198.896 122.25C179.674 145.875 158.501 177.675 157.074 212.1C155.648 247.8 177.272 282.675 209.407 297C233.209 307.65 260.239 306.3 286.143 308.1C324.51 310.8 363.178 317.1 400.795 328.575C428.876 337.275 456.882 355.65 463.414 384.3C469.196 409.275 457.107 435 442.842 456.675C426.924 480.825 408.378 503.175 392.31 527.25C378.871 547.35 367.533 572.925 377.144 595.275C386.604 617.25 411.832 626.4 434.808 631.5C464.315 638.1 494.649 643.875 520.703 659.475C547.508 675.45 568.756 702.375 574.463 733.575C580.169 764.775 568.381 799.65 543.453 817.5" stroke="#6C76D4" stroke-opacity="0.7" stroke-miterlimit="10"/>
<path d="M273.979 -29.625C287.944 -0.675001 284.04 34.425 267.146 58.875C251.304 81.825 224.874 95.25 198.445 124.575C177.722 147.6 155.723 179.7 153.62 214.65C151.443 250.8 172.316 286.65 204.602 301.8C227.728 312.675 254.232 311.85 279.535 314.1C318.654 317.55 357.922 324.75 396.215 336.45C424.071 345 452.152 362.7 459.134 390.975C465.291 415.65 453.804 441.45 439.688 463.05C424.146 486.9 405.75 508.875 390.058 532.575C376.693 552.75 365.731 578.4 375.341 600.675C384.802 622.725 410.03 632.175 433.005 637.425C461.988 644.025 491.871 649.5 517.549 664.8C543.979 680.475 564.852 707.175 570.408 737.925C575.964 768.675 564.551 802.95 540.3 821.025" stroke="#6C76D4" stroke-opacity="0.7" stroke-miterlimit="10"/>
<path d="M291.173 -31.8C303.712 0.449949 296.579 38.025 276.006 62.85C256.71 86.1 226.827 97.9499 197.995 127.05C175.695 149.55 153.02 181.8 150.242 217.275C147.389 253.8 167.436 290.775 199.797 306.75C222.247 317.85 248.151 317.55 272.928 320.25C312.722 324.6 352.591 332.55 391.635 344.475C419.265 352.95 447.422 369.825 454.855 397.725C461.462 422.1 450.425 447.975 436.535 469.5C421.293 493.05 403.123 514.575 387.73 537.975C374.516 558.15 363.854 583.875 373.465 606.15C383 628.35 408.153 638.025 431.204 643.425C459.66 650.025 489.093 655.2 514.321 670.125C540.45 685.575 560.873 711.975 566.279 742.35C571.76 772.65 560.647 806.325 537.071 824.625" stroke="#6C76D4" stroke-opacity="0.7" stroke-miterlimit="10"/>
<path d="M308.442 -34.05C319.555 1.42495 309.268 41.5499 284.941 66.7499C262.191 90.2999 228.854 100.575 197.619 129.375C173.818 151.35 150.392 183.825 146.863 219.75C143.259 256.65 162.555 294.75 195.066 311.475C216.916 322.725 242.219 323.1 266.471 326.25C306.941 331.425 347.41 340.2 387.205 352.275C414.61 360.675 442.766 376.8 450.725 404.325C457.783 428.4 447.196 454.425 433.531 475.8C418.665 499.05 400.569 520.125 385.553 543.225C372.413 563.475 362.127 589.2 371.662 611.55C381.198 633.825 406.276 643.875 429.476 649.275C457.407 655.875 486.315 660.75 511.167 675.375C536.921 690.6 556.893 716.7 562.299 746.625C567.63 776.55 556.893 809.625 533.992 828.075" stroke="#6C76D4" stroke-opacity="0.7" stroke-miterlimit="10"/>
<path d="M325.712 -36.3C335.473 2.47495 321.882 45.075 293.876 70.575C267.672 94.425 230.881 103.125 197.244 131.7C171.941 153.15 147.689 185.775 143.56 222.3C139.28 259.575 157.825 298.725 190.336 316.275C211.51 327.75 236.287 328.725 259.939 332.25C301.159 338.4 342.155 347.85 382.7 360.15C409.955 368.475 438.111 383.775 446.521 411C453.954 434.775 443.968 460.875 430.453 482.175C415.962 505.125 398.017 525.75 383.301 548.55C370.236 568.875 360.325 594.675 369.861 616.95C379.396 639.3 404.474 649.65 427.675 655.2C455.08 661.725 483.537 666.3 507.939 680.7C533.317 695.625 552.914 721.575 558.17 751.05C563.426 780.525 552.989 813 530.764 831.675" stroke="#6C76D4" stroke-opacity="0.7" stroke-miterlimit="10"/>
<path d="M342.981 -38.475C351.315 3.60002 334.496 48.675 302.811 74.55C273.153 98.7 232.908 105.9 196.868 134.1C170.064 155.1 145.061 187.875 140.181 224.85C135.225 262.5 153.02 302.625 185.606 321.075C206.104 332.7 230.281 334.35 253.406 338.25C295.303 345.3 336.974 355.5 378.195 368.025C405.225 376.2 433.456 390.825 442.316 417.6C450.2 441.075 440.664 467.25 427.374 488.55C413.259 511.2 395.389 531.375 381.048 553.875C368.058 574.2 358.523 600.075 368.058 622.35C377.594 644.85 402.597 655.425 425.948 661.125C452.828 667.65 480.834 671.925 504.785 686.025C529.863 700.725 549.009 726.375 554.115 755.4C559.221 784.425 549.159 816.375 527.611 835.275" stroke="#6C76D4" stroke-opacity="0.7" stroke-miterlimit="10"/>
<path d="M360.25 -40.725C367.158 4.65002 347.11 52.2 311.671 78.45C278.559 102.975 234.861 108.6 196.418 136.5C168.112 157.05 142.358 189.975 136.802 227.4C131.096 265.425 148.215 306.6 180.801 325.95C200.698 337.725 224.274 340.125 246.799 344.325C289.371 352.35 331.643 363.3 373.69 375.9C400.495 384 428.726 397.875 438.111 424.275C446.446 447.45 437.361 473.7 424.296 494.925C410.556 517.275 392.836 537 378.871 559.2C366.031 579.6 356.796 605.475 366.257 627.75C375.867 650.325 400.795 661.2 424.146 667.05C450.5 673.575 478.056 677.55 501.557 691.275C526.259 705.675 545.03 731.1 549.986 759.675C554.941 788.325 545.255 819.6 524.382 838.725" stroke="#6C76D4" stroke-opacity="0.7" stroke-miterlimit="10"/>
<path d="M377.519 -42.9C383 5.69998 359.724 55.875 320.606 82.35C284.04 107.175 236.963 111.3 196.043 138.825C166.235 158.925 139.73 191.925 133.423 229.875C127.041 268.275 143.409 310.425 176.07 330.675C195.292 342.6 218.267 345.675 240.267 350.325C283.515 359.4 326.387 370.95 369.185 383.775C395.764 391.8 424.071 404.85 433.907 430.875C442.616 453.75 434.057 480.075 421.218 501.225C407.778 523.275 390.283 542.55 376.618 564.45C363.854 584.925 354.994 610.875 364.455 633.15C374.065 655.8 398.918 667.05 422.419 672.9C448.248 679.35 475.353 683.1 498.478 696.525C522.805 710.7 541.126 735.825 546.006 764.025C550.886 792.225 541.501 822.975 521.304 842.25" stroke="#6C76D4" stroke-opacity="0.7" stroke-miterlimit="10"/>
<path d="M394.713 -45.15C398.768 6.74997 372.263 59.4 329.466 86.25C289.446 111.375 238.915 114.075 195.592 141.225C164.282 160.875 137.027 194.025 129.969 232.5C122.987 271.35 138.529 314.4 171.19 335.55C189.811 347.625 212.186 351.45 233.659 356.4C277.508 366.525 321.132 378.675 364.605 391.725C390.959 399.675 419.341 411.975 429.627 437.625C438.787 460.275 430.678 486.6 418.064 507.675C405 529.425 387.655 548.325 374.291 569.85C361.677 590.4 353.192 616.35 362.578 638.625C372.188 661.425 397.041 672.9 420.542 678.9C445.845 685.35 472.5 688.8 495.175 701.925C519.201 715.8 537.071 740.7 541.801 768.45C546.532 796.2 537.522 826.35 518.075 845.85" stroke="#6C76D4" stroke-opacity="0.7" stroke-miterlimit="10"/>
<path d="M411.982 -47.325C414.685 7.87505 384.952 63.0751 338.401 90.2251C294.927 115.725 240.942 116.925 195.217 143.625C162.405 162.825 134.399 196.05 126.666 235.05C118.932 274.275 133.874 318.3 166.535 340.35C184.555 352.5 206.254 357.15 227.202 362.4C271.727 373.65 315.951 386.325 360.175 399.525C386.304 407.4 414.685 418.875 425.497 444.225C435.033 466.575 427.525 492.975 415.061 513.975C402.372 535.425 385.178 553.875 372.113 575.1C359.574 595.65 351.465 621.675 360.851 643.95C370.461 666.825 395.314 678.525 418.89 684.75C443.667 691.125 469.796 694.275 492.096 707.175C515.747 720.825 533.242 745.425 537.822 772.8C542.477 800.175 533.767 829.725 514.997 849.375" stroke="#6C76D4" stroke-opacity="0.7" stroke-miterlimit="10"/>
<path d="M429.251 -49.575C430.528 8.85005 397.491 66.6 347.26 94.125C300.333 119.925 242.895 119.7 194.766 146.025C160.378 164.85 131.696 198.15 123.212 237.6C114.802 277.2 129.068 322.125 161.654 345.15C179.074 357.45 200.097 362.85 220.52 368.475C265.645 380.925 310.545 394.05 355.52 407.475C381.423 415.2 409.88 426 421.142 450.9C431.129 472.95 424.071 499.425 411.907 520.35C399.518 541.5 382.475 559.5 369.785 580.425C357.397 601.05 349.588 627.15 358.898 649.35C368.584 672.3 393.287 684.375 417.013 690.6C441.265 696.975 466.943 699.825 488.793 712.35C512.068 725.7 529.112 750.075 533.617 777C538.122 803.925 529.788 832.875 511.693 852.75" stroke="#6C76D4" stroke-opacity="0.7" stroke-miterlimit="10"/>
<path d="M446.521 -51.75C446.37 9.975 410.105 70.2 356.195 98.025C305.739 124.125 244.922 122.475 194.391 148.35C158.501 166.8 128.993 200.1 119.908 240.15C110.748 280.125 124.413 325.95 156.999 350.025C173.818 362.475 194.166 368.625 214.063 374.55C259.713 388.2 305.364 401.775 351.09 415.425C376.768 423.075 405.3 433.05 417.013 457.65C427.449 479.4 420.842 505.95 408.904 526.8C396.891 547.65 379.997 565.2 367.683 585.9C355.369 606.6 347.936 632.7 357.247 654.975C366.932 678 391.635 690.375 415.361 696.75C439.087 703.125 464.315 705.675 485.714 717.9C508.69 731.025 525.283 755.1 529.713 781.65C534.068 808.125 526.109 836.475 508.69 856.575" stroke="#6C76D4" stroke-opacity="0.7" stroke-miterlimit="10"/>
</g>
<mask id="mask4_5289_2815" style="mask-type:luminance" maskUnits="userSpaceOnUse" x="0" y="0" width="901" height="600">
<path d="M901 0H0V600H901V0Z" fill="white"/>
</mask>
<g mask="url(#mask4_5289_2815)">
<path d="M165.934 516C166.764 516 167.436 515.328 167.436 514.5C167.436 513.672 166.764 513 165.934 513C165.105 513 164.433 513.672 164.433 514.5C164.433 515.328 165.105 516 165.934 516Z" fill="#C38BFF"/>
<path d="M165.934 498.75C166.764 498.75 167.436 498.078 167.436 497.25C167.436 496.422 166.764 495.75 165.934 495.75C165.105 495.75 164.433 496.422 164.433 497.25C164.433 498.078 165.105 498.75 165.934 498.75Z" fill="#C38BFF"/>
<path d="M165.934 481.5C166.764 481.5 167.436 480.828 167.436 480C167.436 479.172 166.764 478.5 165.934 478.5C165.105 478.5 164.433 479.172 164.433 480C164.433 480.828 165.105 481.5 165.934 481.5Z" fill="#C38BFF"/>
<path d="M165.934 464.25C166.764 464.25 167.436 463.578 167.436 462.75C167.436 461.922 166.764 461.25 165.934 461.25C165.105 461.25 164.433 461.922 164.433 462.75C164.433 463.578 165.105 464.25 165.934 464.25Z" fill="#C38BFF"/>
<path d="M165.934 447C166.764 447 167.436 446.328 167.436 445.5C167.436 444.672 166.764 444 165.934 444C165.105 444 164.433 444.672 164.433 445.5C164.433 446.328 165.105 447 165.934 447Z" fill="#C38BFF"/>
<path d="M184.705 516C185.535 516 186.207 515.328 186.207 514.5C186.207 513.672 185.535 513 184.705 513C183.876 513 183.204 513.672 183.204 514.5C183.204 515.328 183.876 516 184.705 516Z" fill="#C38BFF"/>
<path d="M184.705 498.75C185.535 498.75 186.207 498.078 186.207 497.25C186.207 496.422 185.535 495.75 184.705 495.75C183.876 495.75 183.204 496.422 183.204 497.25C183.204 498.078 183.876 498.75 184.705 498.75Z" fill="#C38BFF"/>
<path d="M184.705 481.5C185.535 481.5 186.207 480.828 186.207 480C186.207 479.172 185.535 478.5 184.705 478.5C183.876 478.5 183.204 479.172 183.204 480C183.204 480.828 183.876 481.5 184.705 481.5Z" fill="#C38BFF"/>
<path d="M184.705 464.25C185.535 464.25 186.207 463.578 186.207 462.75C186.207 461.922 185.535 461.25 184.705 461.25C183.876 461.25 183.204 461.922 183.204 462.75C183.204 463.578 183.876 464.25 184.705 464.25Z" fill="#C38BFF"/>
<path d="M184.705 447C185.535 447 186.207 446.328 186.207 445.5C186.207 444.672 185.535 444 184.705 444C183.876 444 183.204 444.672 183.204 445.5C183.204 446.328 183.876 447 184.705 447Z" fill="#C38BFF"/>
<path d="M203.476 516C204.305 516 204.977 515.328 204.977 514.5C204.977 513.672 204.305 513 203.476 513C202.646 513 201.974 513.672 201.974 514.5C201.974 515.328 202.646 516 203.476 516Z" fill="#C38BFF"/>
<path d="M203.476 498.75C204.305 498.75 204.977 498.078 204.977 497.25C204.977 496.422 204.305 495.75 203.476 495.75C202.646 495.75 201.974 496.422 201.974 497.25C201.974 498.078 202.646 498.75 203.476 498.75Z" fill="#C38BFF"/>
<path d="M203.476 481.5C204.305 481.5 204.977 480.828 204.977 480C204.977 479.172 204.305 478.5 203.476 478.5C202.646 478.5 201.974 479.172 201.974 480C201.974 480.828 202.646 481.5 203.476 481.5Z" fill="#C38BFF"/>
<path d="M203.476 464.25C204.305 464.25 204.977 463.578 204.977 462.75C204.977 461.922 204.305 461.25 203.476 461.25C202.646 461.25 201.974 461.922 201.974 462.75C201.974 463.578 202.646 464.25 203.476 464.25Z" fill="#C38BFF"/>
<path d="M203.476 447C204.305 447 204.977 446.328 204.977 445.5C204.977 444.672 204.305 444 203.476 444C202.646 444 201.974 444.672 201.974 445.5C201.974 446.328 202.646 447 203.476 447Z" fill="#C38BFF"/>
<path d="M222.247 516C223.076 516 223.748 515.328 223.748 514.5C223.748 513.672 223.076 513 222.247 513C221.417 513 220.745 513.672 220.745 514.5C220.745 515.328 221.417 516 222.247 516Z" fill="#C38BFF"/>
<path d="M222.247 498.75C223.076 498.75 223.748 498.078 223.748 497.25C223.748 496.422 223.076 495.75 222.247 495.75C221.417 495.75 220.745 496.422 220.745 497.25C220.745 498.078 221.417 498.75 222.247 498.75Z" fill="#C38BFF"/>
<path d="M222.247 481.5C223.076 481.5 223.748 480.828 223.748 480C223.748 479.172 223.076 478.5 222.247 478.5C221.417 478.5 220.745 479.172 220.745 480C220.745 480.828 221.417 481.5 222.247 481.5Z" fill="#C38BFF"/>
<path d="M222.247 464.25C223.076 464.25 223.748 463.578 223.748 462.75C223.748 461.922 223.076 461.25 222.247 461.25C221.417 461.25 220.745 461.922 220.745 462.75C220.745 463.578 221.417 464.25 222.247 464.25Z" fill="#C38BFF"/>
<path d="M222.247 447C223.076 447 223.748 446.328 223.748 445.5C223.748 444.672 223.076 444 222.247 444C221.417 444 220.745 444.672 220.745 445.5C220.745 446.328 221.417 447 222.247 447Z" fill="#C38BFF"/>
<path d="M241.018 516C241.847 516 242.519 515.328 242.519 514.5C242.519 513.672 241.847 513 241.018 513C240.188 513 239.516 513.672 239.516 514.5C239.516 515.328 240.188 516 241.018 516Z" fill="#C38BFF"/>
<path d="M241.018 498.75C241.847 498.75 242.519 498.078 242.519 497.25C242.519 496.422 241.847 495.75 241.018 495.75C240.188 495.75 239.516 496.422 239.516 497.25C239.516 498.078 240.188 498.75 241.018 498.75Z" fill="#C38BFF"/>
<path d="M241.018 481.5C241.847 481.5 242.519 480.828 242.519 480C242.519 479.172 241.847 478.5 241.018 478.5C240.188 478.5 239.516 479.172 239.516 480C239.516 480.828 240.188 481.5 241.018 481.5Z" fill="#C38BFF"/>
<path d="M241.018 464.25C241.847 464.25 242.519 463.578 242.519 462.75C242.519 461.922 241.847 461.25 241.018 461.25C240.188 461.25 239.516 461.922 239.516 462.75C239.516 463.578 240.188 464.25 241.018 464.25Z" fill="#C38BFF"/>
<path d="M241.018 447C241.847 447 242.519 446.328 242.519 445.5C242.519 444.672 241.847 444 241.018 444C240.188 444 239.516 444.672 239.516 445.5C239.516 446.328 240.188 447 241.018 447Z" fill="#C38BFF"/>
<path d="M259.788 516C260.618 516 261.29 515.328 261.29 514.5C261.29 513.672 260.618 513 259.788 513C258.959 513 258.287 513.672 258.287 514.5C258.287 515.328 258.959 516 259.788 516Z" fill="#C38BFF"/>
<path d="M259.788 498.75C260.618 498.75 261.29 498.078 261.29 497.25C261.29 496.422 260.618 495.75 259.788 495.75C258.959 495.75 258.287 496.422 258.287 497.25C258.287 498.078 258.959 498.75 259.788 498.75Z" fill="#C38BFF"/>
<path d="M259.788 481.5C260.618 481.5 261.29 480.828 261.29 480C261.29 479.172 260.618 478.5 259.788 478.5C258.959 478.5 258.287 479.172 258.287 480C258.287 480.828 258.959 481.5 259.788 481.5Z" fill="#C38BFF"/>
<path d="M259.788 464.25C260.618 464.25 261.29 463.578 261.29 462.75C261.29 461.922 260.618 461.25 259.788 461.25C258.959 461.25 258.287 461.922 258.287 462.75C258.287 463.578 258.959 464.25 259.788 464.25Z" fill="#C38BFF"/>
<path d="M259.788 447C260.618 447 261.29 446.328 261.29 445.5C261.29 444.672 260.618 444 259.788 444C258.959 444 258.287 444.672 258.287 445.5C258.287 446.328 258.959 447 259.788 447Z" fill="#C38BFF"/>
<path d="M278.559 516C279.389 516 280.061 515.328 280.061 514.5C280.061 513.672 279.389 513 278.559 513C277.73 513 277.058 513.672 277.058 514.5C277.058 515.328 277.73 516 278.559 516Z" fill="#C38BFF"/>
<path d="M278.559 498.75C279.389 498.75 280.061 498.078 280.061 497.25C280.061 496.422 279.389 495.75 278.559 495.75C277.73 495.75 277.058 496.422 277.058 497.25C277.058 498.078 277.73 498.75 278.559 498.75Z" fill="#C38BFF"/>
<path d="M278.559 481.5C279.389 481.5 280.061 480.828 280.061 480C280.061 479.172 279.389 478.5 278.559 478.5C277.73 478.5 277.058 479.172 277.058 480C277.058 480.828 277.73 481.5 278.559 481.5Z" fill="#C38BFF"/>
<path d="M278.559 464.25C279.389 464.25 280.061 463.578 280.061 462.75C280.061 461.922 279.389 461.25 278.559 461.25C277.73 461.25 277.058 461.922 277.058 462.75C277.058 463.578 277.73 464.25 278.559 464.25Z" fill="#C38BFF"/>
<path d="M278.559 447C279.389 447 280.061 446.328 280.061 445.5C280.061 444.672 279.389 444 278.559 444C277.73 444 277.058 444.672 277.058 445.5C277.058 446.328 277.73 447 278.559 447Z" fill="#C38BFF"/>
<path d="M297.33 516C298.16 516 298.832 515.328 298.832 514.5C298.832 513.672 298.16 513 297.33 513C296.501 513 295.829 513.672 295.829 514.5C295.829 515.328 296.501 516 297.33 516Z" fill="#C38BFF"/>
<path d="M297.33 498.75C298.16 498.75 298.832 498.078 298.832 497.25C298.832 496.422 298.16 495.75 297.33 495.75C296.501 495.75 295.829 496.422 295.829 497.25C295.829 498.078 296.501 498.75 297.33 498.75Z" fill="#C38BFF"/>
<path d="M297.33 481.5C298.16 481.5 298.832 480.828 298.832 480C298.832 479.172 298.16 478.5 297.33 478.5C296.501 478.5 295.829 479.172 295.829 480C295.829 480.828 296.501 481.5 297.33 481.5Z" fill="#C38BFF"/>
<path d="M297.33 464.25C298.16 464.25 298.832 463.578 298.832 462.75C298.832 461.922 298.16 461.25 297.33 461.25C296.501 461.25 295.829 461.922 295.829 462.75C295.829 463.578 296.501 464.25 297.33 464.25Z" fill="#C38BFF"/>
<path d="M297.33 447C298.16 447 298.832 446.328 298.832 445.5C298.832 444.672 298.16 444 297.33 444C296.501 444 295.829 444.672 295.829 445.5C295.829 446.328 296.501 447 297.33 447Z" fill="#C38BFF"/>
<path d="M316.101 516C316.93 516 317.602 515.328 317.602 514.5C317.602 513.672 316.93 513 316.101 513C315.271 513 314.599 513.672 314.599 514.5C314.599 515.328 315.271 516 316.101 516Z" fill="#C38BFF"/>
<path d="M316.101 498.75C316.93 498.75 317.602 498.078 317.602 497.25C317.602 496.422 316.93 495.75 316.101 495.75C315.271 495.75 314.599 496.422 314.599 497.25C314.599 498.078 315.271 498.75 316.101 498.75Z" fill="#C38BFF"/>
<path d="M316.101 481.5C316.93 481.5 317.602 480.828 317.602 480C317.602 479.172 316.93 478.5 316.101 478.5C315.271 478.5 314.599 479.172 314.599 480C314.599 480.828 315.271 481.5 316.101 481.5Z" fill="#C38BFF"/>
<path d="M316.101 464.25C316.93 464.25 317.602 463.578 317.602 462.75C317.602 461.922 316.93 461.25 316.101 461.25C315.271 461.25 314.599 461.922 314.599 462.75C314.599 463.578 315.271 464.25 316.101 464.25Z" fill="#C38BFF"/>
<path d="M316.101 447C316.93 447 317.602 446.328 317.602 445.5C317.602 444.672 316.93 444 316.101 444C315.271 444 314.599 444.672 314.599 445.5C314.599 446.328 315.271 447 316.101 447Z" fill="#C38BFF"/>
<path d="M334.872 516C335.701 516 336.373 515.328 336.373 514.5C336.373 513.672 335.701 513 334.872 513C334.042 513 333.37 513.672 333.37 514.5C333.37 515.328 334.042 516 334.872 516Z" fill="#C38BFF"/>
<path d="M334.872 498.75C335.701 498.75 336.373 498.078 336.373 497.25C336.373 496.422 335.701 495.75 334.872 495.75C334.042 495.75 333.37 496.422 333.37 497.25C333.37 498.078 334.042 498.75 334.872 498.75Z" fill="#C38BFF"/>
<path d="M334.872 481.5C335.701 481.5 336.373 480.828 336.373 480C336.373 479.172 335.701 478.5 334.872 478.5C334.042 478.5 333.37 479.172 333.37 480C333.37 480.828 334.042 481.5 334.872 481.5Z" fill="#C38BFF"/>
<path d="M334.872 464.25C335.701 464.25 336.373 463.578 336.373 462.75C336.373 461.922 335.701 461.25 334.872 461.25C334.042 461.25 333.37 461.922 333.37 462.75C333.37 463.578 334.042 464.25 334.872 464.25Z" fill="#C38BFF"/>
<path d="M334.872 447C335.701 447 336.373 446.328 336.373 445.5C336.373 444.672 335.701 444 334.872 444C334.042 444 333.37 444.672 333.37 445.5C333.37 446.328 334.042 447 334.872 447Z" fill="#C38BFF"/>
<path d="M353.643 516C354.472 516 355.144 515.328 355.144 514.5C355.144 513.672 354.472 513 353.643 513C352.813 513 352.141 513.672 352.141 514.5C352.141 515.328 352.813 516 353.643 516Z" fill="#C38BFF"/>
<path d="M353.643 498.75C354.472 498.75 355.144 498.078 355.144 497.25C355.144 496.422 354.472 495.75 353.643 495.75C352.813 495.75 352.141 496.422 352.141 497.25C352.141 498.078 352.813 498.75 353.643 498.75Z" fill="#C38BFF"/>
<path d="M353.643 481.5C354.472 481.5 355.144 480.828 355.144 480C355.144 479.172 354.472 478.5 353.643 478.5C352.813 478.5 352.141 479.172 352.141 480C352.141 480.828 352.813 481.5 353.643 481.5Z" fill="#C38BFF"/>
<path d="M353.643 464.25C354.472 464.25 355.144 463.578 355.144 462.75C355.144 461.922 354.472 461.25 353.643 461.25C352.813 461.25 352.141 461.922 352.141 462.75C352.141 463.578 352.813 464.25 353.643 464.25Z" fill="#C38BFF"/>
<path d="M353.643 447C354.472 447 355.144 446.328 355.144 445.5C355.144 444.672 354.472 444 353.643 444C352.813 444 352.141 444.672 352.141 445.5C352.141 446.328 352.813 447 353.643 447Z" fill="#C38BFF"/>
<path d="M372.413 516C373.243 516 373.915 515.328 373.915 514.5C373.915 513.672 373.243 513 372.413 513C371.584 513 370.912 513.672 370.912 514.5C370.912 515.328 371.584 516 372.413 516Z" fill="#C38BFF"/>
<path d="M372.413 498.75C373.243 498.75 373.915 498.078 373.915 497.25C373.915 496.422 373.243 495.75 372.413 495.75C371.584 495.75 370.912 496.422 370.912 497.25C370.912 498.078 371.584 498.75 372.413 498.75Z" fill="#C38BFF"/>
<path d="M372.413 481.5C373.243 481.5 373.915 480.828 373.915 480C373.915 479.172 373.243 478.5 372.413 478.5C371.584 478.5 370.912 479.172 370.912 480C370.912 480.828 371.584 481.5 372.413 481.5Z" fill="#C38BFF"/>
<path d="M372.413 464.25C373.243 464.25 373.915 463.578 373.915 462.75C373.915 461.922 373.243 461.25 372.413 461.25C371.584 461.25 370.912 461.922 370.912 462.75C370.912 463.578 371.584 464.25 372.413 464.25Z" fill="#C38BFF"/>
<path d="M372.413 447C373.243 447 373.915 446.328 373.915 445.5C373.915 444.672 373.243 444 372.413 444C371.584 444 370.912 444.672 370.912 445.5C370.912 446.328 371.584 447 372.413 447Z" fill="#C38BFF"/>
<path d="M391.184 516C392.014 516 392.686 515.328 392.686 514.5C392.686 513.672 392.014 513 391.184 513C390.355 513 389.683 513.672 389.683 514.5C389.683 515.328 390.355 516 391.184 516Z" fill="#C38BFF"/>
<path d="M391.184 498.75C392.014 498.75 392.686 498.078 392.686 497.25C392.686 496.422 392.014 495.75 391.184 495.75C390.355 495.75 389.683 496.422 389.683 497.25C389.683 498.078 390.355 498.75 391.184 498.75Z" fill="#C38BFF"/>
<path d="M391.184 481.5C392.014 481.5 392.686 480.828 392.686 480C392.686 479.172 392.014 478.5 391.184 478.5C390.355 478.5 389.683 479.172 389.683 480C389.683 480.828 390.355 481.5 391.184 481.5Z" fill="#C38BFF"/>
<path d="M391.184 464.25C392.014 464.25 392.686 463.578 392.686 462.75C392.686 461.922 392.014 461.25 391.184 461.25C390.355 461.25 389.683 461.922 389.683 462.75C389.683 463.578 390.355 464.25 391.184 464.25Z" fill="#C38BFF"/>
<path d="M391.184 447C392.014 447 392.686 446.328 392.686 445.5C392.686 444.672 392.014 444 391.184 444C390.355 444 389.683 444.672 389.683 445.5C389.683 446.328 390.355 447 391.184 447Z" fill="#C38BFF"/>
<path d="M409.955 516C410.785 516 411.457 515.328 411.457 514.5C411.457 513.672 410.785 513 409.955 513C409.126 513 408.454 513.672 408.454 514.5C408.454 515.328 409.126 516 409.955 516Z" fill="#C38BFF"/>
<path d="M409.955 498.75C410.785 498.75 411.457 498.078 411.457 497.25C411.457 496.422 410.785 495.75 409.955 495.75C409.126 495.75 408.454 496.422 408.454 497.25C408.454 498.078 409.126 498.75 409.955 498.75Z" fill="#C38BFF"/>
<path d="M409.955 481.5C410.785 481.5 411.457 480.828 411.457 480C411.457 479.172 410.785 478.5 409.955 478.5C409.126 478.5 408.454 479.172 408.454 480C408.454 480.828 409.126 481.5 409.955 481.5Z" fill="#C38BFF"/>
<path d="M409.955 464.25C410.785 464.25 411.457 463.578 411.457 462.75C411.457 461.922 410.785 461.25 409.955 461.25C409.126 461.25 408.454 461.922 408.454 462.75C408.454 463.578 409.126 464.25 409.955 464.25Z" fill="#C38BFF"/>
<path d="M409.955 447C410.785 447 411.457 446.328 411.457 445.5C411.457 444.672 410.785 444 409.955 444C409.126 444 408.454 444.672 408.454 445.5C408.454 446.328 409.126 447 409.955 447Z" fill="#C38BFF"/>
<path d="M428.726 516C429.555 516 430.227 515.328 430.227 514.5C430.227 513.672 429.555 513 428.726 513C427.896 513 427.224 513.672 427.224 514.5C427.224 515.328 427.896 516 428.726 516Z" fill="#C38BFF"/>
<path d="M428.726 498.75C429.555 498.75 430.227 498.078 430.227 497.25C430.227 496.422 429.555 495.75 428.726 495.75C427.896 495.75 427.224 496.422 427.224 497.25C427.224 498.078 427.896 498.75 428.726 498.75Z" fill="#C38BFF"/>
<path d="M428.726 481.5C429.555 481.5 430.227 480.828 430.227 480C430.227 479.172 429.555 478.5 428.726 478.5C427.896 478.5 427.224 479.172 427.224 480C427.224 480.828 427.896 481.5 428.726 481.5Z" fill="#C38BFF"/>
<path d="M428.726 464.25C429.555 464.25 430.227 463.578 430.227 462.75C430.227 461.922 429.555 461.25 428.726 461.25C427.896 461.25 427.224 461.922 427.224 462.75C427.224 463.578 427.896 464.25 428.726 464.25Z" fill="#C38BFF"/>
<path d="M428.726 447C429.555 447 430.227 446.328 430.227 445.5C430.227 444.672 429.555 444 428.726 444C427.896 444 427.224 444.672 427.224 445.5C427.224 446.328 427.896 447 428.726 447Z" fill="#C38BFF"/>
</g>
</g>
</g>
<defs>
<clipPath id="clip0_5289_2815">
<rect width="901" height="600" rx="40" fill="white"/>
</clipPath>
</defs>
</svg>
