<svg width="32" height="32" viewBox="0 0 32 32" fill="none" xmlns="http://www.w3.org/2000/svg">
<path d="M28.2934 10H3.70661C3.50494 10 3.43004 9.73536 3.60179 9.62967L15.6855 2.19351C15.8784 2.07484 16.1216 2.07484 16.3145 2.19351L28.3982 9.62967C28.57 9.73536 28.4951 10 28.2934 10Z" fill="#019DE7"/>
<path d="M27.4 11H4.6C4.26863 11 4 11.2686 4 11.6V12.4C4 12.7314 4.26863 13 4.6 13H27.4C27.7314 13 28 12.7314 28 12.4V11.6C28 11.2686 27.7314 11 27.4 11Z" fill="#8DD3F4"/>
<path d="M27.5 25H4.5C4.22386 25 4 25.2239 4 25.5C4 25.7761 4.22386 26 4.5 26H27.5C27.7761 26 28 25.7761 28 25.5C28 25.2239 27.7761 25 27.5 25Z" fill="#8DD3F4"/>
<path d="M29.4 27H2.6C2.26863 27 2 27.2686 2 27.6V28.4C2 28.7314 2.26863 29 2.6 29H29.4C29.7314 29 30 28.7314 30 28.4V27.6C30 27.2686 29.7314 27 29.4 27Z" fill="#019DE7"/>
<path d="M19.4 14H17.6C17.2686 14 17 14.2686 17 14.6V23.4C17 23.7314 17.2686 24 17.6 24H19.4C19.7314 24 20 23.7314 20 23.4V14.6C20 14.2686 19.7314 14 19.4 14Z" fill="#019DE7"/>
<path d="M9.4 14H7.6C7.26863 14 7 14.2686 7 14.6V23.4C7 23.7314 7.26863 24 7.6 24H9.4C9.73137 24 10 23.7314 10 23.4V14.6C10 14.2686 9.73137 14 9.4 14Z" fill="#019DE7"/>
<path d="M24.4 14H22.6C22.2686 14 22 14.2686 22 14.6V23.4C22 23.7314 22.2686 24 22.6 24H24.4C24.7314 24 25 23.7314 25 23.4V14.6C25 14.2686 24.7314 14 24.4 14Z" fill="#019DE7"/>
<path d="M14.4 14H12.6C12.2686 14 12 14.2686 12 14.6V23.4C12 23.7314 12.2686 24 12.6 24H14.4C14.7314 24 15 23.7314 15 23.4V14.6C15 14.2686 14.7314 14 14.4 14Z" fill="#019DE7"/>
</svg>
