<svg width="32" height="32" viewBox="0 0 32 32" fill="none" xmlns="http://www.w3.org/2000/svg">
<path d="M12 25H4C3.44772 25 3 24.5523 3 24V9L9 3H20C20.5523 3 21 3.44772 21 4V15M9 3V8C9 8.55228 8.55228 9 8 9H3" stroke="#8DD3F4" stroke-width="1.6" stroke-linecap="round"/>
<path d="M6 13H18" stroke="#8DD3F4" stroke-width="1.6" stroke-linecap="round"/>
<path d="M6 18H15" stroke="#8DD3F4" stroke-width="1.6" stroke-linecap="round"/>
<path d="M21 29H29M25 13.5806C25.3536 13.2089 25.8332 13 26.3333 13C26.581 13 26.8262 13.0513 27.0549 13.1509C27.2837 13.2505 27.4916 13.3965 27.6667 13.5806C27.8418 13.7647 27.9807 13.9832 28.0754 14.2238C28.1702 14.4643 28.219 14.7221 28.219 14.9824C28.219 15.2427 28.1702 15.5005 28.0754 15.741C27.9807 15.9815 27.8418 16.2001 27.6667 16.3842L16.5556 28.0655L13 29L13.8889 25.262L25 13.5806Z" stroke="#019DE7" stroke-width="1.6" stroke-linecap="round" stroke-linejoin="round"/>
</svg>
