<svg width="32" height="32" viewBox="0 0 32 32" fill="none" xmlns="http://www.w3.org/2000/svg">
<path d="M17.5 17H5C3.89543 17 3 16.1046 3 15V7C3 5.89543 3.89543 5 5 5H21C22.1046 5 23 5.89543 23 7V15" stroke="#019DE7" stroke-width="1.6"/>
<rect x="11" y="9" width="4" height="4" rx="2" fill="#019DE7"/>
<rect x="17" y="10" width="2" height="2" rx="1" fill="#019DE7"/>
<rect x="7" y="10" width="2" height="2" rx="1" fill="#019DE7"/>
<path d="M2 22C2 21.4477 2.44772 21 3 21H15V23H3C2.44772 23 2 22.5523 2 22Z" fill="#8DD3F4"/>
<path d="M22.5 19.5V22.5M22.5 25.5H22.5075M30 22.5C30 26.6421 26.6421 30 22.5 30C18.3579 30 15 26.6421 15 22.5C15 18.3579 18.3579 15 22.5 15C26.6421 15 30 18.3579 30 22.5Z" stroke="#0173A9" stroke-width="1.6" stroke-linecap="round" stroke-linejoin="round"/>
</svg>
