<svg width="32" height="32" viewBox="0 0 32 32" fill="none" xmlns="http://www.w3.org/2000/svg">
<path d="M16 3V6.6M8 3V6.6M3 10.2H21M21 15V6.6C21 5.60589 20.1046 4.8 19 4.8H5C3.89543 4.8 3 5.60589 3 6.6V19.2C3 20.1941 3.89543 21 5 21H15" stroke="#019DE7" stroke-width="1.6" stroke-linecap="round" stroke-linejoin="round"/>
<path d="M22.5 19.5V22.5M22.5 25.5H22.5075M30 22.5C30 26.6421 26.6421 30 22.5 30C18.3579 30 15 26.6421 15 22.5C15 18.3579 18.3579 15 22.5 15C26.6421 15 30 18.3579 30 22.5Z" stroke="#8DD3F4" stroke-width="1.6" stroke-linecap="round" stroke-linejoin="round"/>
</svg>
