<svg width="32" height="32" viewBox="0 0 32 32" fill="none" xmlns="http://www.w3.org/2000/svg">
<path d="M18.4 16V5C18.4 4.46957 18.1682 3.96086 17.7556 3.58579C17.3431 3.21071 16.7835 3 16.2 3H11.8C11.2165 3 10.6569 3.21071 10.2444 3.58579C9.83179 3.96086 9.6 4.46957 9.6 5V21M25 15.15V9C25 7.89543 24.015 7 22.8 7H5.2C3.98497 7 3 7.89543 3 9V19C3 20.1046 3.98497 21 5.2 21H15" stroke="#019DE7" stroke-width="1.6" stroke-linecap="round" stroke-linejoin="round"/>
<path d="M22.5 19.5V22.5M22.5 25.5H22.5075M30 22.5C30 26.6421 26.6421 30 22.5 30C18.3579 30 15 26.6421 15 22.5C15 18.3579 18.3579 15 22.5 15C26.6421 15 30 18.3579 30 22.5Z" stroke="#8DD3F4" stroke-width="1.6" stroke-linecap="round" stroke-linejoin="round"/>
</svg>
