<svg width="32" height="32" viewBox="0 0 32 32" fill="none" xmlns="http://www.w3.org/2000/svg">
<rect x="5.6" y="2.6" width="20.8" height="26.8" rx="1.4" stroke="#019DE7" stroke-width="1.2"/>
<path d="M22 12C22 15.3137 19.3137 18 16 18M22 12C22 8.68629 19.3137 6 16 6M22 12H10M16 18C12.6863 18 10 15.3137 10 12M16 18C17.5008 16.357 18.3537 14.2248 18.4 12C18.3537 9.77522 17.5008 7.64301 16 6M16 18C14.4992 16.357 13.6463 14.2248 13.6 12C13.6463 9.77522 14.4992 7.64301 16 6M10 12C10 8.68629 12.6863 6 16 6" stroke="#8DD3F4" stroke-width="1.6" stroke-linecap="round" stroke-linejoin="round"/>
<path d="M10 23H22" stroke="#019DE7" stroke-linecap="round"/>
<path d="M10 26H22" stroke="#019DE7" stroke-linecap="round"/>
</svg>
