<svg width="32" height="32" viewBox="0 0 32 32" fill="none" xmlns="http://www.w3.org/2000/svg">
<path d="M17 17.2222H4.9C3.85066 17.2222 3 16.3765 3 15.3333V5.88889C3 4.84568 3.85066 4 4.9 4H20.1C21.1493 4 22 4.84568 22 5.88889L22 14.5M8.7 21H15M12.5 17.2222V21" stroke="#019DE7" stroke-width="1.6" stroke-linecap="round" stroke-linejoin="round"/>
<path d="M22.5 19.5V22.5M22.5 25.5H22.5075M30 22.5C30 26.6421 26.6421 30 22.5 30C18.3579 30 15 26.6421 15 22.5C15 18.3579 18.3579 15 22.5 15C26.6421 15 30 18.3579 30 22.5Z" stroke="#8DD3F4" stroke-width="1.6" stroke-linecap="round" stroke-linejoin="round"/>
</svg>
