<svg width="20" height="20" viewBox="0 0 20 20" fill="none" xmlns="http://www.w3.org/2000/svg">
<path d="M14.1673 17.5V15.8333C14.1673 14.9493 13.8161 14.1014 13.191 13.4763C12.5659 12.8512 11.718 12.5 10.834 12.5H4.16732C3.28326 12.5 2.43542 12.8512 1.8103 13.4763C1.18517 14.1014 0.833984 14.9493 0.833984 15.8333V17.5M19.1673 17.5V15.8333C19.1668 15.0948 18.9209 14.3773 18.4685 13.7936C18.016 13.2099 17.3824 12.793 16.6673 12.6083M13.334 2.60833C14.051 2.79192 14.6865 3.20892 15.1403 3.79359C15.5942 4.37827 15.8405 5.09736 15.8405 5.8375C15.8405 6.57764 15.5942 7.29673 15.1403 7.88141C14.6865 8.46608 14.051 8.88308 13.334 9.06667M10.834 5.83333C10.834 7.67428 9.3416 9.16667 7.50065 9.16667C5.6597 9.16667 4.16732 7.67428 4.16732 5.83333C4.16732 3.99238 5.6597 2.5 7.50065 2.5C9.3416 2.5 10.834 3.99238 10.834 5.83333Z" stroke="#8DD3F4" stroke-width="1.6" stroke-linecap="round" stroke-linejoin="round"/>
</svg>
