<svg width="36" height="36" viewBox="0 0 36 36" fill="none" xmlns="http://www.w3.org/2000/svg">
<rect width="36" height="36" rx="8" fill="#1D4783"/>
<g clip-path="url(#clip0_5616_10107)">
<path d="M26.3332 17.9993C26.3332 22.6017 22.6022 26.3327 17.9998 26.3327M26.3332 17.9993C26.3332 13.397 22.6022 9.66602 17.9998 9.66602M26.3332 17.9993H9.6665M17.9998 26.3327C13.3975 26.3327 9.6665 22.6017 9.6665 17.9993M17.9998 26.3327C20.0842 24.0507 21.2688 21.0893 21.3332 17.9993C21.2688 14.9094 20.0842 11.948 17.9998 9.66602M17.9998 26.3327C15.9154 24.0507 14.7309 21.0893 14.6665 17.9993C14.7309 14.9094 15.9154 11.948 17.9998 9.66602M9.6665 17.9993C9.6665 13.397 13.3975 9.66602 17.9998 9.66602" stroke="#8DD3F4" stroke-width="1.6" stroke-linecap="round" stroke-linejoin="round"/>
</g>
<defs>
<clipPath id="clip0_5616_10107">
<rect width="20" height="20" fill="white" transform="translate(8 8)"/>
</clipPath>
</defs>
</svg>
