<svg width="32" height="32" viewBox="0 0 32 32" fill="none" xmlns="http://www.w3.org/2000/svg">
<path d="M11 7.41932L16 10.2682L21 7.41932M11 24.4908V18.8039L6 15.955M26 15.955L21 18.8039V24.4908M6.3 10.4326L16 15.966L25.7 10.4326M16 27V15.955M26 20.338V11.5721C25.9996 11.1878 25.8967 10.8104 25.7017 10.4777C25.5067 10.145 25.2264 9.86867 24.8889 9.67652L17.1111 5.2936C16.7733 5.10126 16.3901 5 16 5C15.6099 5 15.2267 5.10126 14.8889 5.2936L7.11111 9.67652C6.77363 9.86867 6.49331 10.145 6.29829 10.4777C6.10327 10.8104 6.0004 11.1878 6 11.5721V20.338C6.0004 20.7223 6.10327 21.0997 6.29829 21.4324C6.49331 21.7651 6.77363 22.0414 7.11111 22.2336L14.8889 26.6165C15.2267 26.8088 15.6099 26.9101 16 26.9101C16.3901 26.9101 16.7733 26.8088 17.1111 26.6165L24.8889 22.2336C25.2264 22.0414 25.5067 21.7651 25.7017 21.4324C25.8967 21.0997 25.9996 20.7223 26 20.338Z" stroke="#019DE7" stroke-width="1.6" stroke-linecap="round" stroke-linejoin="round"/>
</svg>
