<svg width="32" height="32" viewBox="0 0 32 32" fill="none" xmlns="http://www.w3.org/2000/svg">
<path d="M12.508 12.4C12.7901 11.598 13.347 10.9217 14.0799 10.491C14.8129 10.0602 15.6747 9.90273 16.5126 10.0465C17.3505 10.1902 18.1106 10.6258 18.6581 11.2762C19.2056 11.9266 19.5053 12.7498 19.504 13.6C19.504 16 15.904 17.2 15.904 17.2M16 22H16.012M28 16C28 22.6274 22.6274 28 16 28C9.37258 28 4 22.6274 4 16C4 9.37258 9.37258 4 16 4C22.6274 4 28 9.37258 28 16Z" stroke="#019DE7" stroke-width="1.6" stroke-linecap="round" stroke-linejoin="round"/>
</svg>
