<svg width="36" height="36" viewBox="0 0 36 36" fill="none" xmlns="http://www.w3.org/2000/svg">
<rect width="36" height="36" rx="8" fill="#1D4783"/>
<path d="M10.1741 24L9.83582 21.28C9.65257 21.2092 9.47989 21.1242 9.31779 21.025C9.15568 20.9258 8.9971 20.8196 8.84204 20.7063L6.32587 21.7688L4 17.7313L6.17786 16.0738C6.16376 15.9746 6.15672 15.879 6.15672 15.7869V15.2131C6.15672 15.121 6.16376 15.0254 6.17786 14.9262L4 13.2688L6.32587 9.23125L8.84204 10.2938C8.9971 10.1804 9.1592 10.0742 9.32836 9.975C9.49751 9.87583 9.66667 9.79083 9.83582 9.72L10.1741 7H14.8259L15.1642 9.72C15.3474 9.79083 15.5201 9.87583 15.6822 9.975C15.8443 10.0742 16.0029 10.1804 16.158 10.2938L18.6741 9.23125L21 13.2688L18.8221 14.9262C18.8362 15.0254 18.8433 15.121 18.8433 15.2131V15.7869C18.8433 15.879 18.8292 15.9746 18.801 16.0738L20.9789 17.7313L18.653 21.7688L16.158 20.7063C16.0029 20.8196 15.8408 20.9258 15.6716 21.025C15.5025 21.1242 15.3333 21.2092 15.1642 21.28L14.8259 24H10.1741ZM11.6542 22.3H13.3246L13.6206 20.0475C14.0576 19.9342 14.4629 19.7677 14.8364 19.5481C15.21 19.3285 15.5518 19.0629 15.8619 18.7513L17.9552 19.6225L18.7799 18.1775L16.9614 16.7963C17.0319 16.5979 17.0813 16.389 17.1095 16.1694C17.1376 15.9498 17.1517 15.7267 17.1517 15.5C17.1517 15.2733 17.1376 15.0502 17.1095 14.8306C17.0813 14.611 17.0319 14.4021 16.9614 14.2038L18.7799 12.8225L17.9552 11.3775L15.8619 12.27C15.5518 11.9442 15.21 11.6715 14.8364 11.4519C14.4629 11.2323 14.0576 11.0658 13.6206 10.9525L13.3458 8.7H11.6754L11.3794 10.9525C10.9424 11.0658 10.5371 11.2323 10.1636 11.4519C9.79001 11.6715 9.44818 11.9371 9.13806 12.2488L7.04478 11.3775L6.22015 12.8225L8.03856 14.1825C7.96808 14.395 7.91874 14.6075 7.89055 14.82C7.86235 15.0325 7.84826 15.2592 7.84826 15.5C7.84826 15.7267 7.86235 15.9463 7.89055 16.1588C7.91874 16.3713 7.96808 16.5838 8.03856 16.7963L6.22015 18.1775L7.04478 19.6225L9.13806 18.73C9.44818 19.0558 9.79001 19.3285 10.1636 19.5481C10.5371 19.7677 10.9424 19.9342 11.3794 20.0475L11.6542 22.3ZM12.5423 18.475C13.3599 18.475 14.0576 18.1846 14.6356 17.6038C15.2135 17.0229 15.5025 16.3217 15.5025 15.5C15.5025 14.6783 15.2135 13.9771 14.6356 13.3963C14.0576 12.8154 13.3599 12.525 12.5423 12.525C11.7106 12.525 11.0093 12.8154 10.4384 13.3963C9.86754 13.9771 9.58209 14.6783 9.58209 15.5C9.58209 16.3217 9.86754 17.0229 10.4384 17.6038C11.0093 18.1846 11.7106 18.475 12.5423 18.475Z" fill="url(#paint0_linear_5616_10133)"/>
<path d="M25.4459 31.7105L24.6506 30.1252C24.5235 30.1217 24.3998 30.1072 24.2795 30.0819C24.1592 30.0565 24.0395 30.0261 23.9204 29.9905L22.6162 31.1833L20.3237 29.225L21.2928 27.7428C21.2627 27.6854 21.2377 27.6286 21.2178 27.5724L21.0935 27.2226C21.0736 27.1664 21.0572 27.1066 21.0443 27.0431L19.3574 26.504L19.9014 23.5385L21.6657 23.6415C21.7357 23.5388 21.8115 23.4389 21.8932 23.3418C21.9748 23.2448 22.0596 23.1563 22.1474 23.0765L21.7647 21.3447L24.6011 20.3374L25.3964 21.9227C25.5234 21.9262 25.6471 21.9406 25.7674 21.966C25.8878 21.9913 26.0075 22.0218 26.1265 22.0573L27.4307 20.8646L29.7232 22.8228L28.7542 24.3051C28.7842 24.3625 28.8092 24.4193 28.8292 24.4754L28.9534 24.8253C28.9733 24.8814 28.9855 24.9428 28.9897 25.0094L30.6766 25.5484L30.1327 28.5139L28.3813 28.4064C28.3113 28.509 28.2354 28.6089 28.1538 28.706C28.0721 28.8031 27.9874 28.8916 27.8996 28.9714L28.2823 30.7032L25.4459 31.7105ZM25.9802 30.3534L26.9988 29.9917L26.6915 28.5541C26.9334 28.3904 27.1445 28.2011 27.3247 27.9863C27.5049 27.7716 27.6558 27.5356 27.7774 27.2784L29.2425 27.3564L29.4324 26.2967L28.0245 25.8482C28.0246 25.712 28.0094 25.574 27.979 25.434C27.9487 25.294 27.909 25.1549 27.8599 25.0166C27.8108 24.8784 27.7539 24.7454 27.6891 24.6177C27.6244 24.4899 27.5491 24.3731 27.4631 24.2675L28.2728 23.0315L27.4571 22.329L26.374 23.3264C26.1143 23.1949 25.8469 23.1027 25.5715 23.0497C25.2962 22.9967 25.0131 22.9829 24.7221 23.0084L24.0667 21.6945L23.0482 22.0562L23.3554 23.4938C23.1135 23.6575 22.9025 23.8467 22.7222 24.0615C22.542 24.2763 22.3911 24.5123 22.2695 24.7695L20.8045 24.6915L20.6145 25.7512L22.0178 26.1867C22.0208 26.3315 22.0368 26.4718 22.0656 26.6074C22.0944 26.7431 22.1349 26.8844 22.1871 27.0312C22.2361 27.1694 22.2923 27.3003 22.3555 27.4237C22.4187 27.5472 22.4948 27.6661 22.5838 27.7804L21.7741 29.0164L22.5898 29.7189L23.6729 28.7214C23.9326 28.8529 24.2001 28.9452 24.4754 28.9982C24.7507 29.0512 25.0339 29.065 25.3249 29.0394L25.9802 30.3534ZM25.6935 27.8288C26.192 27.6517 26.5546 27.3236 26.7812 26.8443C27.0078 26.3649 27.0322 25.8748 26.8542 25.3738C26.6763 24.8728 26.3483 24.5077 25.8701 24.2787C25.3919 24.0497 24.9036 24.0237 24.405 24.2008C23.8979 24.3809 23.5332 24.7098 23.3109 25.1876C23.0885 25.6654 23.0663 26.1548 23.2443 26.6558C23.4222 27.1568 23.7481 27.5226 24.222 27.7531C24.6958 27.9836 25.1863 28.0089 25.6935 27.8288Z" fill="url(#paint1_linear_5616_10133)"/>
<path d="M27.0226 17.4048L26.3358 16.313C26.2436 16.3193 26.153 16.3175 26.0642 16.3076C25.9753 16.2977 25.8865 16.284 25.7978 16.2667L24.9373 17.2214L23.1406 15.9645L23.7382 14.8236C23.7124 14.7842 23.6903 14.7448 23.672 14.7056L23.5575 14.461C23.5392 14.4218 23.5231 14.3796 23.5093 14.3345L22.2504 14.0625L22.4364 11.8777L23.7208 11.8286C23.7643 11.7494 23.8122 11.6718 23.8645 11.5958C23.9168 11.5198 23.9719 11.4498 24.0299 11.3859L23.6315 10.1591L25.6142 9.23116L26.301 10.323C26.3932 10.3166 26.4838 10.3184 26.5726 10.3283C26.6615 10.3383 26.7503 10.3519 26.839 10.3693L27.6995 9.41454L29.4962 10.6715L28.8986 11.8123C28.9244 11.8518 28.9464 11.8911 28.9648 11.9304L29.0793 12.1749C29.0976 12.2142 29.1107 12.2578 29.1185 12.3056L30.3773 12.5777L30.1914 14.7625L28.916 14.8073C28.8725 14.8866 28.8246 14.9642 28.7723 15.0402C28.72 15.1162 28.6648 15.1862 28.6069 15.2501L29.0052 16.4769L27.0226 17.4048ZM27.3143 16.385L28.0263 16.0518L27.7031 15.0327C27.8668 14.8972 28.0063 14.7454 28.1217 14.5773C28.2371 14.4092 28.3298 14.2278 28.3999 14.0331L29.4658 13.9869L29.5291 13.2065L28.4785 12.9805C28.469 12.8819 28.4483 12.783 28.4166 12.6838C28.3848 12.5846 28.3463 12.4867 28.3011 12.3901C28.2558 12.2935 28.2053 12.2012 28.1495 12.1132C28.0937 12.0252 28.031 11.946 27.9614 11.8756L28.4609 10.9241L27.8212 10.4727L27.107 11.2707C26.9099 11.1937 26.7098 11.1456 26.5067 11.1265C26.3037 11.1074 26.0978 11.1173 25.8889 11.1562L25.3225 10.251L24.6105 10.5842L24.9336 11.6033C24.77 11.7388 24.6305 11.8905 24.5151 12.0586C24.3996 12.2267 24.3069 12.4081 24.2369 12.6028L23.1709 12.6491L23.1077 13.4294L24.154 13.6464C24.1664 13.751 24.1877 13.8514 24.2181 13.9476C24.2485 14.0438 24.2877 14.1432 24.3357 14.2459C24.3809 14.3425 24.4308 14.4333 24.4852 14.5182C24.5396 14.6032 24.603 14.6839 24.6754 14.7604L24.1759 15.7118L24.8156 16.1632L25.5298 15.3653C25.7269 15.4423 25.927 15.4904 26.13 15.5094C26.3331 15.5285 26.539 15.5186 26.7479 15.4798L27.3143 16.385ZM26.9299 14.5775C27.2783 14.4145 27.5178 14.1515 27.6483 13.7886C27.7787 13.4258 27.762 13.0693 27.5981 12.7191C27.4342 12.3689 27.1712 12.1276 26.809 11.9953C26.4468 11.863 26.0915 11.8785 25.743 12.0415C25.3885 12.2074 25.1475 12.4711 25.0201 12.8325C24.8926 13.194 24.9108 13.5498 25.0747 13.9C25.2386 14.2502 25.5002 14.4922 25.8594 14.6259C26.2185 14.7596 26.5754 14.7434 26.9299 14.5775Z" fill="url(#paint2_linear_5616_10133)"/>
<defs>
<linearGradient id="paint0_linear_5616_10133" x1="12.5" y1="7" x2="12.5" y2="24" gradientUnits="userSpaceOnUse">
<stop stop-color="white"/>
<stop offset="1" stop-color="#2C9BCF"/>
</linearGradient>
<linearGradient id="paint1_linear_5616_10133" x1="23.1829" y1="20.8411" x2="26.8641" y2="31.2068" gradientUnits="userSpaceOnUse">
<stop stop-color="white"/>
<stop offset="1" stop-color="#2C9BCF"/>
</linearGradient>
<linearGradient id="paint2_linear_5616_10133" x1="24.6229" y1="9.6951" x2="28.0139" y2="16.9409" gradientUnits="userSpaceOnUse">
<stop stop-color="white"/>
<stop offset="1" stop-color="#2C9BCF"/>
</linearGradient>
</defs>
</svg>
