<svg width="32" height="32" viewBox="0 0 32 32" fill="none" xmlns="http://www.w3.org/2000/svg">
<path d="M10.6978 6.53075C9.2527 5.52231 6.4534 6.75627 6.4534 6.75627C6.4534 6.75627 3.42693 8.59366 4.09679 13.0421C4.10001 13.0638 4.10363 13.0854 4.10685 13.1067C4.17922 13.5581 4.35935 13.9585 4.61548 14.2938C5.37743 15.2922 6.77748 15.5568 7.92261 15.0652L9.02673 14.3774L9.55345 14.0169C10.0026 13.5198 10.4634 12.9377 10.9322 12.2685C11.0665 7.04638 10.8063 6.60657 10.6978 6.53075Z" fill="#117DCE"/>
<path d="M7.91815 15.0682L13.8573 11.3664C13.573 10.5355 13.7713 8.58591 13.0869 8.2045C10.7621 6.90904 6.16748 9.14718 6.16748 9.14718C6.16748 9.14718 8.16141 8.90542 8.94305 11.1942C9.25587 12.1098 9.15214 13.9422 7.91815 15.0682Z" fill="#0D64A0"/>
<path d="M9.23441 21.5416C9.23441 21.5416 16.3493 11.2909 21.9334 14.1274C21.3528 8.66903 14.5399 1.68499 6.45361 6.75659C12.6855 4.90836 10.9324 17.4154 9.23441 21.5416Z" fill="#03A9F4"/>
<path d="M4 27.0001C4 27.0001 14.1859 15.1375 28.9291 12.8599C25.6039 14.7054 24.4117 19.5778 23.9871 23.0874C23.7173 25.3182 21.7556 27.0001 19.4207 27.0001H4Z" fill="#03A9F4"/>
</svg>
