<svg width="32" height="32" viewBox="0 0 32 32" fill="none" xmlns="http://www.w3.org/2000/svg">
<path d="M28 16.5H4M4 16.5L8.14 8.31813C8.33869 7.92244 8.64499 7.58944 9.02445 7.35658C9.40392 7.12372 9.8415 7.00023 10.288 7H21.712C22.1585 7.00023 22.5961 7.12372 22.9755 7.35658C23.355 7.58944 23.6613 7.92244 23.86 8.31813L28 16.5V23.625C28 24.2549 27.7471 24.859 27.2971 25.3044C26.847 25.7498 26.2365 26 25.6 26H6.4C5.76348 26 5.15303 25.7498 4.70294 25.3044C4.25286 24.859 4 24.2549 4 23.625V16.5ZM8.8 21.25H8.812M13.6 21.25H13.612" stroke="#019DE7" stroke-width="1.6" stroke-linecap="round" stroke-linejoin="round"/>
</svg>
