<svg width="28" height="28" viewBox="0 0 28 28" fill="none" xmlns="http://www.w3.org/2000/svg">
<path d="M20.2196 17.5C22.1291 18.1231 23.3307 18.9228 23.3307 19.9306C23.3307 21.8099 19.1521 23.3333 13.9974 23.3333C8.84274 23.3333 4.66406 21.8099 4.66406 19.9306C4.66406 18.9228 5.86573 18.1231 7.77517 17.5" stroke="#475072" stroke-width="2.33333" stroke-linecap="round" stroke-linejoin="round"/>
<path d="M14.0049 3.5C17.2265 3.5 19.8388 6.15698 19.8389 9.43457C19.8389 12.4978 16.3416 16.3515 14.7627 17.9355C14.3398 18.3598 13.671 18.3598 13.248 17.9355C11.6692 16.3516 8.17188 12.4979 8.17188 9.43457C8.17199 6.15709 10.7834 3.50018 14.0049 3.5ZM14.0078 7.58301C13.0413 7.58301 12.2578 8.36651 12.2578 9.33301C12.2578 10.2995 13.0413 11.083 14.0078 11.083C14.9743 11.083 15.7578 10.2995 15.7578 9.33301C15.7578 8.36651 14.9743 7.58301 14.0078 7.58301Z" fill="#475072"/>
</svg>
