<svg width="228" height="64" viewBox="0 0 228 64" fill="none" xmlns="http://www.w3.org/2000/svg">
<path d="M95.223 19.7629V35.5296H86.9219V20.9913C86.9219 16.5383 84.847 14.4902 81.4951 14.4902C77.7702 14.4902 75.1632 16.7942 75.1632 21.7085V35.5296H66.8621V20.9913C66.8621 16.5383 64.8935 14.4902 61.4353 14.4902C57.7636 14.4902 55.1559 16.7942 55.1559 21.7085V35.5296H46.8555V7.98919H51.4849C53.3069 7.98919 54.7842 9.41035 54.7842 11.1633C56.9123 8.80877 60.1052 7.58035 63.7763 7.58035C67.7672 7.58035 71.1723 9.06469 73.194 12.0846C75.4824 9.26943 79.2067 7.58035 83.5169 7.58035C90.3276 7.58035 95.223 11.368 95.223 19.7629Z" fill="white"/>
<path d="M153.075 7.58035V13.1102C153.075 14.0846 152.244 14.8504 151.231 14.8485H151.213C146.636 14.8485 143.604 17.2555 143.604 22.5281V35.5296H135.303V7.98919H143.231V11.6239C145.253 8.96232 148.659 7.58035 153.075 7.58035Z" fill="white"/>
<path d="M153.923 21.7598C153.923 13.4673 160.574 7.58108 169.885 7.58108C175.899 7.58108 180.634 10.0885 182.709 14.594L177.66 17.2031C176.923 17.5842 175.998 17.4161 175.48 16.7835C173.993 14.9662 172.026 14.1327 169.833 14.1327C165.629 14.1327 162.33 16.9485 162.33 21.7598C162.33 26.5724 165.629 29.3875 169.833 29.3875C172.025 29.3875 173.991 28.5913 175.479 26.7557C175.997 26.1155 176.933 25.9462 177.673 26.3348L182.709 28.9781C180.634 33.3799 175.899 35.9391 169.885 35.9391C160.574 35.9391 153.923 30.0529 153.923 21.7598Z" fill="white"/>
<path d="M207.564 21.7598C207.564 16.9996 204.425 14.1327 200.274 14.1327C196.124 14.1327 192.931 16.9996 192.931 21.7598C192.931 26.5212 196.124 29.3875 200.274 29.3875C204.425 29.3875 207.564 26.5212 207.564 21.7598ZM184.524 21.7598C184.524 13.4673 191.176 7.58108 200.274 7.58108C209.373 7.58108 215.97 13.4673 215.97 21.7598C215.97 30.0529 209.373 35.9391 200.274 35.9391C191.176 35.9391 184.524 30.0529 184.524 21.7598Z" fill="white"/>
<path d="M122.534 7.98993V10.9081C120.459 8.65596 117.479 7.58108 113.967 7.58108C105.88 7.58108 99.6543 13.1096 99.6543 21.7598C99.6543 30.4112 105.88 35.9391 113.967 35.9391C116.366 35.9366 118.328 34.046 118.328 31.7395V28.8397C117.437 29.198 116.45 29.3875 115.404 29.3875C111.253 29.3875 108.061 26.5212 108.061 21.7598C108.061 16.9996 111.253 14.1327 115.404 14.1327C119.441 14.1327 122.593 16.92 122.685 21.5557H122.692V21.7029C122.692 21.7225 122.694 21.7402 122.694 21.7598C122.694 21.7794 122.692 21.7977 122.692 21.8167V35.5303H130.835V7.98993H122.534Z" fill="white"/>
<path d="M10.9414 2.50084C8.58076 0.853465 4.00785 2.86925 4.00785 2.86925C4.00785 2.86925 -0.93617 5.8708 0.158123 13.1377C0.163377 13.1731 0.169289 13.2085 0.174543 13.2433C0.292774 13.9807 0.587038 14.6347 1.00544 15.1826C2.25015 16.8135 4.53726 17.2458 6.40794 16.4426L8.21161 15.3191L9.07207 14.7301C9.80576 13.9181 10.5585 12.9671 11.3244 11.8739C11.5438 3.34318 11.1188 2.6247 10.9414 2.50084Z" fill="#117DCE"/>
<path d="M6.40089 16.4473L16.103 10.4C15.6387 9.04262 15.9625 5.85781 14.8445 5.23475C11.0467 3.11849 3.54102 6.7747 3.54102 6.7747C3.54102 6.7747 6.79827 6.37976 8.07517 10.1188C8.58619 11.6145 8.41672 14.6078 6.40089 16.4473Z" fill="#0D64A0"/>
<path d="M8.5505 27.0221C8.5505 27.0221 20.1733 10.2766 29.2954 14.9103C28.3469 5.99351 17.2175 -5.41557 4.00781 2.86936C14.1881 -0.149891 11.3243 20.2815 8.5505 27.0221Z" fill="#03A9F4"/>
<path d="M0 35.9391C0 35.9391 16.6397 16.5605 40.724 12.8398C35.2919 15.8546 33.3444 23.8141 32.6508 29.5474C32.21 33.1916 29.0053 35.9391 25.1911 35.9391H0Z" fill="#03A9F4"/>
<rect x="216.471" y="0.5" width="11" height="11" rx="5.5" stroke="white"/>
<path d="M219.666 9V3.27344H222.1C222.712 3.27344 223.156 3.32552 223.432 3.42969C223.71 3.53125 223.933 3.71354 224.1 3.97656C224.266 4.23958 224.35 4.54036 224.35 4.87891C224.35 5.30859 224.223 5.66406 223.971 5.94531C223.718 6.22396 223.34 6.39974 222.838 6.47266C223.088 6.61849 223.294 6.77865 223.455 6.95312C223.619 7.1276 223.839 7.4375 224.115 7.88281L224.814 9H223.432L222.596 7.75391C222.299 7.30859 222.096 7.02865 221.986 6.91406C221.877 6.79688 221.761 6.71745 221.639 6.67578C221.516 6.63151 221.322 6.60938 221.057 6.60938H220.822V9H219.666ZM220.822 5.69531H221.678C222.232 5.69531 222.579 5.67188 222.717 5.625C222.855 5.57812 222.963 5.4974 223.041 5.38281C223.119 5.26823 223.158 5.125 223.158 4.95312C223.158 4.76042 223.106 4.60547 223.002 4.48828C222.9 4.36849 222.756 4.29297 222.568 4.26172C222.475 4.2487 222.193 4.24219 221.725 4.24219H220.822V5.69531Z" fill="white"/>
<path d="M13.6394 60.1311C12.7434 60.1311 11.9274 59.9551 11.1914 59.6031C10.466 59.2405 9.9007 58.7391 9.49537 58.0991L11.2714 56.6111C11.5487 57.0271 11.906 57.3578 12.3434 57.6031C12.7914 57.8378 13.2554 57.9551 13.7354 57.9551C14.194 57.9551 14.562 57.8538 14.8394 57.6511C15.1167 57.4485 15.2554 57.1818 15.2554 56.8511C15.2554 56.5311 15.1327 56.2538 14.8874 56.0191C14.642 55.7845 14.2367 55.5711 13.6714 55.3791L12.7114 55.0431C10.8447 54.3925 9.91137 53.3098 9.91137 51.7951C9.91137 50.7498 10.2687 49.9231 10.9834 49.3151C11.698 48.6965 12.6207 48.3871 13.7514 48.3871C15.202 48.3871 16.3967 48.9098 17.3354 49.9551L15.7994 51.5391C15.2554 50.8885 14.578 50.5631 13.7674 50.5631C13.3514 50.5631 12.994 50.6538 12.6954 50.8351C12.3967 51.0058 12.2474 51.2511 12.2474 51.5711C12.2474 51.9018 12.3754 52.1631 12.6314 52.3551C12.898 52.5471 13.3567 52.7605 14.0074 52.9951L14.9194 53.3311C16.722 54.0031 17.6234 55.1285 17.6234 56.7071C17.6234 57.7205 17.25 58.5471 16.5034 59.1871C15.7674 59.8165 14.8127 60.1311 13.6394 60.1311ZM20.7855 50.6271C20.4122 50.6271 20.0868 50.4938 19.8095 50.2271C19.5322 49.9498 19.3935 49.6191 19.3935 49.2351C19.3935 48.8511 19.5322 48.5258 19.8095 48.2591C20.0868 47.9818 20.4122 47.8431 20.7855 47.8431C21.1802 47.8431 21.5108 47.9818 21.7775 48.2591C22.0548 48.5258 22.1935 48.8511 22.1935 49.2351C22.1935 49.6191 22.0548 49.9498 21.7775 50.2271C21.5108 50.4938 21.1802 50.6271 20.7855 50.6271ZM19.6975 59.9391V51.9391H21.8895V59.9391H19.6975ZM34.5744 59.9391V55.6671C34.5744 54.3978 34.1584 53.7631 33.3264 53.7631C32.8464 53.7631 32.4624 53.9445 32.1744 54.3071C31.897 54.6698 31.7477 55.2085 31.7264 55.9231V59.9391H29.5344V55.6671C29.5344 54.3978 29.1184 53.7631 28.2864 53.7631C27.7957 53.7631 27.4064 53.9551 27.1184 54.3391C26.8304 54.7231 26.6864 55.2885 26.6864 56.0351V59.9391H24.4944V51.9391H26.6864V52.8511C27.1877 52.1258 27.897 51.7631 28.8144 51.7631C29.9344 51.7631 30.761 52.2538 31.2944 53.2351C31.529 52.7765 31.881 52.4191 32.3504 52.1631C32.8197 51.8965 33.2944 51.7631 33.7744 51.7631C34.7237 51.7631 35.4597 52.0778 35.9824 52.7071C36.505 53.3365 36.7664 54.2005 36.7664 55.2991V59.9391H34.5744ZM41.4676 63.2831H39.2756V51.9391H41.4676V52.8351C41.6703 52.5471 41.9796 52.2965 42.3956 52.0831C42.8116 51.8698 43.2756 51.7631 43.7876 51.7631C44.8436 51.7631 45.7343 52.1738 46.4596 52.9951C47.185 53.8165 47.5476 54.7978 47.5476 55.9391C47.5476 57.0805 47.185 58.0618 46.4596 58.8831C45.7343 59.7045 44.8436 60.1151 43.7876 60.1151C43.2756 60.1151 42.8116 60.0085 42.3956 59.7951C41.9796 59.5818 41.6703 59.3311 41.4676 59.0431V63.2831ZM41.8356 57.5071C42.209 57.9125 42.6996 58.1151 43.3076 58.1151C43.9156 58.1151 44.401 57.9125 44.7636 57.5071C45.137 57.1018 45.3236 56.5791 45.3236 55.9391C45.3236 55.2991 45.137 54.7765 44.7636 54.3711C44.401 53.9658 43.9156 53.7631 43.3076 53.7631C42.6996 53.7631 42.209 53.9658 41.8356 54.3711C41.473 54.7765 41.2916 55.2991 41.2916 55.9391C41.2916 56.5791 41.473 57.1018 41.8356 57.5071ZM49.6506 59.9391V47.9391H51.8426V59.9391H49.6506ZM55.5355 50.6271C55.1622 50.6271 54.8368 50.4938 54.5595 50.2271C54.2822 49.9498 54.1435 49.6191 54.1435 49.2351C54.1435 48.8511 54.2822 48.5258 54.5595 48.2591C54.8368 47.9818 55.1622 47.8431 55.5355 47.8431C55.9302 47.8431 56.2608 47.9818 56.5275 48.2591C56.8048 48.5258 56.9435 48.8511 56.9435 49.2351C56.9435 49.6191 56.8048 49.9498 56.5275 50.2271C56.2608 50.4938 55.9302 50.6271 55.5355 50.6271ZM54.4475 59.9391V51.9391H56.6395V59.9391H54.4475ZM60.0924 59.9391V53.8591H58.4764V51.9391H60.0924V50.8991C60.0924 49.9498 60.3804 49.2031 60.9564 48.6591C61.5324 48.1151 62.263 47.8431 63.1484 47.8431C63.6924 47.8431 64.1564 47.9018 64.5404 48.0191V49.9551C64.2844 49.8591 63.9857 49.8111 63.6444 49.8111C63.1644 49.8111 62.8177 49.9178 62.6044 50.1311C62.391 50.3338 62.2844 50.6805 62.2844 51.1711V51.9391H64.5404V53.8591H62.2844V59.9391H60.0924ZM69.3781 63.2831H66.9941L68.6741 59.4911L65.3141 51.9391H67.7141L69.8581 57.1231L71.9861 51.9391H74.4021L69.3781 63.2831ZM85.4564 60.1311C83.6964 60.1311 82.2297 59.5711 81.0564 58.4511C79.883 57.3205 79.2964 55.9231 79.2964 54.2591C79.2964 52.6165 79.8564 51.2298 80.9764 50.0991C82.107 48.9578 83.5364 48.3871 85.2644 48.3871C87.1417 48.3871 88.667 49.0058 89.8404 50.2431L88.2244 51.8431C87.435 51.0325 86.4484 50.6271 85.2644 50.6271C84.1977 50.6271 83.323 50.9791 82.6404 51.6831C81.9684 52.3871 81.6324 53.2458 81.6324 54.2591C81.6324 55.3045 81.979 56.1738 82.6724 56.8671C83.3657 57.5498 84.2884 57.8911 85.4404 57.8911C86.507 57.8911 87.3017 57.6885 87.8244 57.2831V55.3151H85.3764V53.1391H90.0804V58.4671C89.579 59.0005 88.9124 59.4111 88.0804 59.6991C87.259 59.9871 86.3844 60.1311 85.4564 60.1311ZM92.3694 59.9391V47.9391H94.5614V59.9391H92.3694ZM103.822 58.9151C103.001 59.7151 102.009 60.1151 100.846 60.1151C99.6836 60.1151 98.6916 59.7151 97.8702 58.9151C97.0489 58.1045 96.6382 57.1125 96.6382 55.9391C96.6382 54.7765 97.0489 53.7898 97.8702 52.9791C98.6916 52.1685 99.6836 51.7631 100.846 51.7631C102.009 51.7631 103.001 52.1685 103.822 52.9791C104.644 53.7898 105.054 54.7765 105.054 55.9391C105.054 57.1125 104.644 58.1045 103.822 58.9151ZM100.846 58.0671C101.412 58.0671 101.881 57.8698 102.254 57.4751C102.638 57.0698 102.83 56.5578 102.83 55.9391C102.83 55.3205 102.638 54.8138 102.254 54.4191C101.881 54.0138 101.412 53.8111 100.846 53.8111C100.27 53.8111 99.7902 54.0138 99.4062 54.4191C99.0329 54.8138 98.8462 55.3205 98.8462 55.9391C98.8462 56.5578 99.0329 57.0698 99.4062 57.4751C99.7902 57.8698 100.27 58.0671 100.846 58.0671ZM111.647 60.1151C111.135 60.1151 110.671 60.0085 110.255 59.7951C109.839 59.5818 109.53 59.3311 109.327 59.0431V59.9391H107.135V47.9391H109.327V52.8351C109.53 52.5471 109.839 52.2965 110.255 52.0831C110.671 51.8698 111.135 51.7631 111.647 51.7631C112.703 51.7631 113.594 52.1738 114.319 52.9951C115.044 53.8165 115.407 54.7978 115.407 55.9391C115.407 57.0805 115.044 58.0618 114.319 58.8831C113.594 59.7045 112.703 60.1151 111.647 60.1151ZM109.695 57.5071C110.068 57.9125 110.559 58.1151 111.167 58.1151C111.775 58.1151 112.26 57.9125 112.623 57.5071C112.996 57.1018 113.183 56.5791 113.183 55.9391C113.183 55.2991 112.996 54.7765 112.623 54.3711C112.26 53.9658 111.775 53.7631 111.167 53.7631C110.559 53.7631 110.068 53.9658 109.695 54.3711C109.332 54.7765 109.151 55.2991 109.151 55.9391C109.151 56.5791 109.332 57.1018 109.695 57.5071ZM120.758 60.1151C119.702 60.1151 118.811 59.7045 118.086 58.8831C117.361 58.0618 116.998 57.0805 116.998 55.9391C116.998 54.7978 117.361 53.8165 118.086 52.9951C118.811 52.1738 119.702 51.7631 120.758 51.7631C121.27 51.7631 121.729 51.8698 122.134 52.0831C122.539 52.2965 122.849 52.5471 123.062 52.8351V51.9391H125.254V59.9391H123.062V59.0431C122.849 59.3311 122.539 59.5818 122.134 59.7951C121.729 60.0085 121.27 60.1151 120.758 60.1151ZM119.75 57.5071C120.123 57.9125 120.614 58.1151 121.222 58.1151C121.83 58.1151 122.315 57.9125 122.678 57.5071C123.051 57.1018 123.238 56.5791 123.238 55.9391C123.238 55.2991 123.051 54.7765 122.678 54.3711C122.315 53.9658 121.83 53.7631 121.222 53.7631C120.614 53.7631 120.123 53.9658 119.75 54.3711C119.387 54.7765 119.206 55.2991 119.206 55.9391C119.206 56.5791 119.387 57.1018 119.75 57.5071ZM127.885 59.9391V47.9391H130.077V59.9391H127.885ZM145.662 59.9391L143.166 53.9071L140.67 59.9391H138.494L135.758 48.5791H138.222L139.95 56.1311L143.166 48.3871L146.382 56.1311L148.11 48.5791H150.574L147.838 59.9391H145.662ZM158.4 58.9151C157.579 59.7151 156.587 60.1151 155.424 60.1151C154.262 60.1151 153.27 59.7151 152.448 58.9151C151.627 58.1045 151.216 57.1125 151.216 55.9391C151.216 54.7765 151.627 53.7898 152.448 52.9791C153.27 52.1685 154.262 51.7631 155.424 51.7631C156.587 51.7631 157.579 52.1685 158.4 52.9791C159.222 53.7898 159.632 54.7765 159.632 55.9391C159.632 57.1125 159.222 58.1045 158.4 58.9151ZM155.424 58.0671C155.99 58.0671 156.459 57.8698 156.832 57.4751C157.216 57.0698 157.408 56.5578 157.408 55.9391C157.408 55.3205 157.216 54.8138 156.832 54.4191C156.459 54.0138 155.99 53.8111 155.424 53.8111C154.848 53.8111 154.368 54.0138 153.984 54.4191C153.611 54.8138 153.424 55.3205 153.424 55.9391C153.424 56.5578 153.611 57.0698 153.984 57.4751C154.368 57.8698 154.848 58.0671 155.424 58.0671ZM161.713 59.9391V51.9391H163.905V53.2191C164.044 52.8245 164.294 52.4991 164.657 52.2431C165.03 51.9765 165.441 51.8431 165.889 51.8431C166.166 51.8431 166.412 51.8751 166.625 51.9391V54.1631C166.273 54.0458 165.942 53.9871 165.633 53.9871C165.11 53.9871 164.689 54.1791 164.369 54.5631C164.06 54.9365 163.905 55.4538 163.905 56.1151V59.9391H161.713ZM173.982 59.9391L170.718 56.2591V59.9391H168.526V47.9391H170.718V54.8831L173.31 51.9391H175.95L172.782 55.5391L176.686 59.9391H173.982ZM178.764 59.9391V53.8591H177.148V51.9391H178.764V50.8991C178.764 49.9498 179.052 49.2031 179.628 48.6591C180.204 48.1151 180.935 47.8431 181.82 47.8431C182.364 47.8431 182.828 47.9018 183.212 48.0191V49.9551C182.956 49.8591 182.658 49.8111 182.316 49.8111C181.836 49.8111 181.49 49.9178 181.276 50.1311C181.063 50.3338 180.956 50.6805 180.956 51.1711V51.9391H183.212V53.8591H180.956V59.9391H178.764ZM191.447 58.9151C190.626 59.7151 189.634 60.1151 188.471 60.1151C187.309 60.1151 186.317 59.7151 185.495 58.9151C184.674 58.1045 184.263 57.1125 184.263 55.9391C184.263 54.7765 184.674 53.7898 185.495 52.9791C186.317 52.1685 187.309 51.7631 188.471 51.7631C189.634 51.7631 190.626 52.1685 191.447 52.9791C192.269 53.7898 192.679 54.7765 192.679 55.9391C192.679 57.1125 192.269 58.1045 191.447 58.9151ZM188.471 58.0671C189.037 58.0671 189.506 57.8698 189.879 57.4751C190.263 57.0698 190.455 56.5578 190.455 55.9391C190.455 55.3205 190.263 54.8138 189.879 54.4191C189.506 54.0138 189.037 53.8111 188.471 53.8111C187.895 53.8111 187.415 54.0138 187.031 54.4191C186.658 54.8138 186.471 55.3205 186.471 55.9391C186.471 56.5578 186.658 57.0698 187.031 57.4751C187.415 57.8698 187.895 58.0671 188.471 58.0671ZM194.76 59.9391V51.9391H196.952V53.2191C197.091 52.8245 197.341 52.4991 197.704 52.2431C198.077 51.9765 198.488 51.8431 198.936 51.8431C199.213 51.8431 199.459 51.8751 199.672 51.9391V54.1631C199.32 54.0458 198.989 53.9871 198.68 53.9871C198.157 53.9871 197.736 54.1791 197.416 54.5631C197.107 54.9365 196.952 55.4538 196.952 56.1151V59.9391H194.76ZM205.019 60.1151C203.825 60.1151 202.817 59.7205 201.995 58.9311C201.185 58.1311 200.779 57.1338 200.779 55.9391C200.779 54.7445 201.185 53.7525 201.995 52.9631C202.817 52.1631 203.825 51.7631 205.019 51.7631C205.841 51.7631 206.587 51.9765 207.259 52.4031C207.942 52.8191 208.459 53.3738 208.811 54.0671L206.907 55.0911C206.737 54.7071 206.486 54.3978 206.155 54.1631C205.835 53.9285 205.457 53.8111 205.019 53.8111C204.443 53.8111 203.958 54.0138 203.563 54.4191C203.179 54.8245 202.987 55.3311 202.987 55.9391C202.987 56.5471 203.179 57.0538 203.563 57.4591C203.958 57.8645 204.443 58.0671 205.019 58.0671C205.457 58.0671 205.835 57.9498 206.155 57.7151C206.486 57.4805 206.737 57.1711 206.907 56.7871L208.811 57.8111C208.459 58.5045 207.942 59.0645 207.259 59.4911C206.587 59.9071 205.841 60.1151 205.019 60.1151ZM214.441 60.1151C213.225 60.1151 212.212 59.7311 211.401 58.9631C210.601 58.1951 210.201 57.1871 210.201 55.9391C210.201 54.7445 210.601 53.7525 211.401 52.9631C212.201 52.1631 213.204 51.7631 214.409 51.7631C215.518 51.7631 216.452 52.1098 217.209 52.8031C217.966 53.4858 218.345 54.4511 218.345 55.6991C218.345 56.0511 218.334 56.3018 218.313 56.4511H212.329C212.393 56.9738 212.622 57.3845 213.017 57.6831C213.422 57.9711 213.902 58.1151 214.457 58.1151C215.396 58.1151 216.084 57.7791 216.521 57.1071L218.153 58.3231C217.332 59.5178 216.094 60.1151 214.441 60.1151ZM212.409 54.9631H216.153C216.057 54.5045 215.838 54.1578 215.497 53.9231C215.166 53.6885 214.782 53.5711 214.345 53.5711C213.897 53.5711 213.486 53.6885 213.113 53.9231C212.74 54.1578 212.505 54.5045 212.409 54.9631Z" fill="#B2B6C8"/>
</svg>
