<svg width="228" height="36" viewBox="0 0 228 36" fill="none" xmlns="http://www.w3.org/2000/svg">
<path d="M95.223 19.7629V35.5296H86.9219V20.9913C86.9219 16.5383 84.847 14.4903 81.4951 14.4903C77.7702 14.4903 75.1632 16.7942 75.1632 21.7085V35.5296H66.8621V20.9913C66.8621 16.5383 64.8935 14.4903 61.4353 14.4903C57.7636 14.4903 55.1559 16.7942 55.1559 21.7085V35.5296H46.8555V7.98922H51.4849C53.3069 7.98922 54.7842 9.41038 54.7842 11.1633C56.9123 8.8088 60.1052 7.58038 63.7763 7.58038C67.7672 7.58038 71.1723 9.06472 73.194 12.0846C75.4824 9.26946 79.2067 7.58038 83.5169 7.58038C90.3276 7.58038 95.223 11.368 95.223 19.7629Z" fill="white"/>
<path d="M153.075 7.58038V13.1102C153.075 14.0846 152.244 14.8505 151.231 14.8486H151.213C146.636 14.8486 143.604 17.2555 143.604 22.5281V35.5296H135.303V7.98922H143.231V11.6239C145.253 8.96235 148.659 7.58038 153.075 7.58038Z" fill="white"/>
<path d="M153.923 21.7598C153.923 13.4673 160.574 7.58108 169.885 7.58108C175.899 7.58108 180.634 10.0885 182.709 14.594L177.66 17.2031C176.923 17.5842 175.998 17.4161 175.48 16.7835C173.993 14.9662 172.026 14.1327 169.833 14.1327C165.629 14.1327 162.33 16.9485 162.33 21.7598C162.33 26.5724 165.629 29.3875 169.833 29.3875C172.025 29.3875 173.991 28.5913 175.479 26.7557C175.997 26.1155 176.933 25.9462 177.673 26.3348L182.709 28.9781C180.634 33.3799 175.899 35.9391 169.885 35.9391C160.574 35.9391 153.923 30.0529 153.923 21.7598Z" fill="white"/>
<path d="M207.564 21.7598C207.564 16.9996 204.425 14.1327 200.274 14.1327C196.124 14.1327 192.931 16.9996 192.931 21.7598C192.931 26.5212 196.124 29.3875 200.274 29.3875C204.425 29.3875 207.564 26.5212 207.564 21.7598ZM184.524 21.7598C184.524 13.4673 191.176 7.58108 200.274 7.58108C209.373 7.58108 215.97 13.4673 215.97 21.7598C215.97 30.0529 209.373 35.9391 200.274 35.9391C191.176 35.9391 184.524 30.0529 184.524 21.7598Z" fill="white"/>
<path d="M122.534 7.98993V10.9081C120.459 8.65596 117.479 7.58108 113.967 7.58108C105.88 7.58108 99.6543 13.1096 99.6543 21.7598C99.6543 30.4112 105.88 35.9391 113.967 35.9391C116.366 35.9366 118.328 34.046 118.328 31.7395V28.8397C117.437 29.198 116.45 29.3875 115.404 29.3875C111.253 29.3875 108.061 26.5212 108.061 21.7598C108.061 16.9996 111.253 14.1327 115.404 14.1327C119.441 14.1327 122.593 16.92 122.685 21.5557H122.692V21.7029C122.692 21.7225 122.694 21.7402 122.694 21.7598C122.694 21.7794 122.692 21.7977 122.692 21.8167V35.5303H130.835V7.98993H122.534Z" fill="white"/>
<path d="M10.9414 2.50081C8.58076 0.853435 4.00785 2.86922 4.00785 2.86922C4.00785 2.86922 -0.93617 5.87077 0.158123 13.1377C0.163377 13.1731 0.169289 13.2085 0.174543 13.2432C0.292774 13.9807 0.587038 14.6347 1.00544 15.1825C2.25015 16.8135 4.53726 17.2457 6.40794 16.4426L8.21161 15.319L9.07207 14.7301C9.80576 13.9181 10.5585 12.9671 11.3244 11.8739C11.5438 3.34315 11.1188 2.62467 10.9414 2.50081Z" fill="#117DCE"/>
<path d="M6.40089 16.4473L16.103 10.4C15.6387 9.04265 15.9625 5.85784 14.8445 5.23478C11.0467 3.11852 3.54102 6.77473 3.54102 6.77473C3.54102 6.77473 6.79827 6.37979 8.07517 10.1188C8.58619 11.6145 8.41672 14.6078 6.40089 16.4473Z" fill="#0D64A0"/>
<path d="M8.5505 27.0221C8.5505 27.0221 20.1733 10.2766 29.2954 14.9103C28.3469 5.99351 17.2175 -5.41557 4.00781 2.86936C14.1881 -0.149891 11.3243 20.2815 8.5505 27.0221Z" fill="#03A9F4"/>
<path d="M0 35.9391C0 35.9391 16.6397 16.5605 40.724 12.8398C35.2919 15.8546 33.3444 23.8141 32.6508 29.5474C32.21 33.1916 29.0053 35.9391 25.1911 35.9391H0Z" fill="#03A9F4"/>
<rect x="216.471" y="0.5" width="11" height="11" rx="5.5" stroke="white"/>
<path d="M219.666 9V3.27344H222.1C222.712 3.27344 223.156 3.32552 223.432 3.42969C223.71 3.53125 223.933 3.71354 224.1 3.97656C224.266 4.23958 224.35 4.54036 224.35 4.87891C224.35 5.30859 224.223 5.66406 223.971 5.94531C223.718 6.22396 223.34 6.39974 222.838 6.47266C223.088 6.61849 223.294 6.77865 223.455 6.95312C223.619 7.1276 223.839 7.4375 224.115 7.88281L224.814 9H223.432L222.596 7.75391C222.299 7.30859 222.096 7.02865 221.986 6.91406C221.877 6.79688 221.761 6.71745 221.639 6.67578C221.516 6.63151 221.322 6.60938 221.057 6.60938H220.822V9H219.666ZM220.822 5.69531H221.678C222.232 5.69531 222.579 5.67188 222.717 5.625C222.855 5.57812 222.963 5.4974 223.041 5.38281C223.119 5.26823 223.158 5.125 223.158 4.95312C223.158 4.76042 223.106 4.60547 223.002 4.48828C222.9 4.36849 222.756 4.29297 222.568 4.26172C222.475 4.2487 222.193 4.24219 221.725 4.24219H220.822V5.69531Z" fill="white"/>
</svg>
