<svg width="40" height="40" viewBox="0 0 40 40" fill="none" xmlns="http://www.w3.org/2000/svg">
<rect x="0.5" y="0.5" width="39" height="39" rx="19.5" stroke="#646D79"/>
<g clip-path="url(#clip0_5498_4561)">
<path d="M21.5985 15.6773C22.4351 14.8374 23.7238 14.7693 24.4768 15.5252C25.2298 16.2811 25.1619 17.5748 24.3253 18.4147L23.1134 19.6313M19.0232 21C18.2702 20.2441 18.338 18.9504 19.1747 18.1105L20.25 17.0311" stroke="#3D4148" stroke-linecap="round"/>
<path d="M20.9768 19C21.7298 19.7559 21.662 21.0496 20.8253 21.8895L19.6134 23.106L18.4015 24.3227C17.5648 25.1626 16.2762 25.2306 15.5232 24.4747C14.7702 23.7188 14.838 22.4252 15.6747 21.5853L16.8866 20.3686" stroke="#3D4148" stroke-linecap="round"/>
</g>
<defs>
<clipPath id="clip0_5498_4561">
<rect width="12" height="12" fill="white" transform="translate(14 14)"/>
</clipPath>
</defs>
</svg>
