<svg width="40" height="40" viewBox="0 0 40 40" fill="none" xmlns="http://www.w3.org/2000/svg">
<rect x="0.5" y="0.5" width="39" height="39" rx="19.5" stroke="#646D79"/>
<path fill-rule="evenodd" clip-rule="evenodd" d="M26 26H23.6V21.8006C23.6 20.6486 23.0918 20.0059 22.1804 20.0059C21.1886 20.0059 20.6 20.6756 20.6 21.8006V26H18.2V18.2H20.6V19.0771C20.6 19.0771 21.353 17.7559 23.0498 17.7559C24.7472 17.7559 26 18.7917 26 20.9349V26ZM15.4652 16.9525C14.6558 16.9525 14 16.2914 14 15.476C14 14.6612 14.6558 14 15.4652 14C16.274 14 16.9298 14.6612 16.9298 15.476C16.9304 16.2914 16.274 16.9525 15.4652 16.9525ZM14 26H17V18.2H14V26Z" fill="#3D4148"/>
</svg>
