<svg width="32" height="32" viewBox="0 0 32 32" fill="none" xmlns="http://www.w3.org/2000/svg">
<path d="M28 6.66663C28 8.87576 22.6274 10.6666 16 10.6666C9.37258 10.6666 4 8.87576 4 6.66663M28 6.66663C28 4.45749 22.6274 2.66663 16 2.66663C9.37258 2.66663 4 4.45749 4 6.66663M28 6.66663V25.3333C28 27.5466 22.6667 29.3333 16 29.3333C9.33333 29.3333 4 27.5466 4 25.3333V6.66663M28 16C28 18.2133 22.6667 20 16 20C9.33333 20 4 18.2133 4 16" stroke="url(#paint0_linear_5224_551)" stroke-width="2" stroke-linecap="round" stroke-linejoin="round"/>
<defs>
<linearGradient id="paint0_linear_5224_551" x1="16" y1="2.66663" x2="16" y2="29.3333" gradientUnits="userSpaceOnUse">
<stop stop-color="white"/>
<stop offset="1" stop-color="#2C9BCF"/>
</linearGradient>
</defs>
</svg>
