<svg width="32" height="32" viewBox="0 0 32 32" fill="none" xmlns="http://www.w3.org/2000/svg">
<path d="M16 28C16 28 26 23.2 26 16V7.6L16 4L6 7.6V16C6 23.2 16 28 16 28Z" stroke="#019DE7" stroke-width="1.6" stroke-linecap="round" stroke-linejoin="round"/>
<path d="M14.3333 15.15V13.75C14.3333 13.2859 14.5089 12.8408 14.8215 12.5126C15.134 12.1844 15.558 12 16 12C16.442 12 16.866 12.1844 17.1785 12.5126C17.4911 12.8408 17.6667 13.2859 17.6667 13.75V15.15M13.6667 15.15H18.3333C18.7015 15.15 19 15.4634 19 15.85V18.3C19 18.6866 18.7015 19 18.3333 19H13.6667C13.2985 19 13 18.6866 13 18.3V15.85C13 15.4634 13.2985 15.15 13.6667 15.15Z" stroke="#8DD3F4" stroke-linecap="round" stroke-linejoin="round"/>
</svg>
