<svg width="32" height="32" viewBox="0 0 32 32" fill="none" xmlns="http://www.w3.org/2000/svg">
<path d="M26.6663 10.6666L18.6663 2.66663H7.99967C7.29243 2.66663 6.61415 2.94758 6.11406 3.44767C5.61396 3.94777 5.33301 4.62605 5.33301 5.33329V26.6666C5.33301 27.3739 5.61396 28.0521 6.11406 28.5522C6.61415 29.0523 7.29243 29.3333 7.99967 29.3333H23.9997C24.7069 29.3333 25.3852 29.0523 25.8853 28.5522C26.3854 28.0521 26.6663 27.3739 26.6663 26.6666V10.6666ZM18.6663 2.66663L18.6663 10.6666H26.6663M21.333 17.3333H10.6663M21.333 22.6666H10.6663M13.333 12H10.6663" stroke="url(#paint0_linear_5227_485)" stroke-width="2" stroke-linecap="round" stroke-linejoin="round"/>
<defs>
<linearGradient id="paint0_linear_5227_485" x1="15.9997" y1="2.66663" x2="15.9997" y2="29.3333" gradientUnits="userSpaceOnUse">
<stop stop-color="white"/>
<stop offset="1" stop-color="#2C9BCF"/>
</linearGradient>
</defs>
</svg>
