<svg width="32" height="32" viewBox="0 0 32 32" fill="none" xmlns="http://www.w3.org/2000/svg">
<path d="M20 13.5V10L14 4H6C5.46957 4 4.96086 4.21071 4.58579 4.58579C4.21071 4.96086 4 5.46957 4 6V22C4 22.5304 4.21071 23.0391 4.58579 23.4142C4.96086 23.7893 5.46957 24 6 24H13M14 4L14 10H20M15 15H8M13 19H8M10 11H8" stroke="#8DD3F4" stroke-width="1.6" stroke-linecap="round" stroke-linejoin="round"/>
<path d="M27 28L24.1 25.1M25.6667 21.3333C25.6667 24.2789 23.2789 26.6667 20.3333 26.6667C17.3878 26.6667 15 24.2789 15 21.3333C15 18.3878 17.3878 16 20.3333 16C23.2789 16 25.6667 18.3878 25.6667 21.3333Z" stroke="#019DE7" stroke-width="1.6" stroke-linecap="round" stroke-linejoin="round"/>
</svg>
