<svg width="32" height="32" viewBox="0 0 32 32" fill="none" xmlns="http://www.w3.org/2000/svg">
<path d="M29 18.8C29 19.7941 26.5376 20.6 23.5 20.6C20.4624 20.6 18 19.7941 18 18.8M29 18.8C29 17.8059 26.5376 17 23.5 17C20.4624 17 18 17.8059 18 18.8M29 18.8V27.2C29 28.196 26.5556 29 23.5 29C20.4444 29 18 28.196 18 27.2V18.8M29 23C29 23.996 26.5556 24.8 23.5 24.8C20.4444 24.8 18 23.996 18 23" stroke="#019DE7" stroke-width="1.6" stroke-linecap="round" stroke-linejoin="round"/>
<path d="M22 14V6.3L13 3L4 6.3V14C4 20.6 13 25 13 25C13 25 13.5829 24.9693 15 24" stroke="#019DE7" stroke-width="1.6" stroke-linecap="round" stroke-linejoin="round"/>
<path d="M13 14.3636C13.7531 14.3636 14.3636 13.7531 14.3636 13C14.3636 12.2469 13.7531 11.6364 13 11.6364C12.2469 11.6364 11.6364 12.2469 11.6364 13C11.6364 13.7531 12.2469 14.3636 13 14.3636Z" stroke="#8DD3F4" stroke-linecap="round" stroke-linejoin="round"/>
<path d="M16.3636 14.3636C16.3031 14.5007 16.2851 14.6528 16.3118 14.8003C16.3386 14.9477 16.4088 15.0838 16.5136 15.1909L16.5409 15.2182C16.6254 15.3026 16.6925 15.4029 16.7382 15.5132C16.784 15.6236 16.8075 15.7419 16.8075 15.8614C16.8075 15.9808 16.784 16.0991 16.7382 16.2095C16.6925 16.3199 16.6254 16.4201 16.5409 16.5045C16.4565 16.5891 16.3562 16.6561 16.2459 16.7019C16.1355 16.7476 16.0172 16.7712 15.8977 16.7712C15.7783 16.7712 15.66 16.7476 15.5496 16.7019C15.4392 16.6561 15.339 16.5891 15.2545 16.5045L15.2273 16.4773C15.1201 16.3725 14.9841 16.3022 14.8366 16.2755C14.6892 16.2487 14.5371 16.2668 14.4 16.3273C14.2656 16.3849 14.1509 16.4806 14.0701 16.6025C13.9894 16.7245 13.946 16.8674 13.9455 17.0136V17.0909C13.9455 17.332 13.8497 17.5632 13.6792 17.7337C13.5087 17.9042 13.2775 18 13.0364 18C12.7953 18 12.564 17.9042 12.3935 17.7337C12.2231 17.5632 12.1273 17.332 12.1273 17.0909V17.05C12.1238 16.8995 12.0751 16.7536 11.9875 16.6312C11.9 16.5088 11.7776 16.4156 11.6364 16.3636C11.4993 16.3031 11.3472 16.2851 11.1997 16.3118C11.0523 16.3386 10.9162 16.4088 10.8091 16.5136L10.7818 16.5409C10.6974 16.6254 10.5971 16.6925 10.4868 16.7382C10.3764 16.784 10.2581 16.8075 10.1386 16.8075C10.0192 16.8075 9.90087 16.784 9.79051 16.7382C9.68015 16.6925 9.57988 16.6254 9.49545 16.5409C9.41093 16.4565 9.34388 16.3562 9.29813 16.2459C9.25238 16.1355 9.22883 16.0172 9.22883 15.8977C9.22883 15.7783 9.25238 15.66 9.29813 15.5496C9.34388 15.4392 9.41093 15.339 9.49545 15.2545L9.52273 15.2273C9.62752 15.1201 9.69781 14.9841 9.72455 14.8366C9.75128 14.6892 9.73323 14.5371 9.67273 14.4C9.61511 14.2656 9.51943 14.1509 9.39748 14.0701C9.27553 13.9894 9.13263 13.946 8.98636 13.9455H8.90909C8.66798 13.9455 8.43675 13.8497 8.26627 13.6792C8.09578 13.5087 8 13.2775 8 13.0364C8 12.7953 8.09578 12.564 8.26627 12.3935C8.43675 12.2231 8.66798 12.1273 8.90909 12.1273H8.95C9.10045 12.1238 9.24637 12.0751 9.36877 11.9875C9.49118 11.9 9.58442 11.7776 9.63636 11.6364C9.69687 11.4993 9.71492 11.3472 9.68818 11.1997C9.66145 11.0523 9.59115 10.9162 9.48636 10.8091L9.45909 10.7818C9.37457 10.6974 9.30751 10.5971 9.26176 10.4868C9.21601 10.3764 9.19247 10.2581 9.19247 10.1386C9.19247 10.0192 9.21601 9.90087 9.26176 9.79051C9.30751 9.68015 9.37457 9.57988 9.45909 9.49545C9.54352 9.41093 9.64378 9.34388 9.75415 9.29813C9.86451 9.25238 9.9828 9.22883 10.1023 9.22883C10.2217 9.22883 10.34 9.25238 10.4504 9.29813C10.5608 9.34388 10.661 9.41093 10.7455 9.49545L10.7727 9.52273C10.8799 9.62752 11.0159 9.69781 11.1634 9.72455C11.3108 9.75128 11.4629 9.73323 11.6 9.67273H11.6364C11.7708 9.61511 11.8855 9.51943 11.9662 9.39748C12.047 9.27553 12.0903 9.13263 12.0909 8.98636V8.90909C12.0909 8.66798 12.1867 8.43675 12.3572 8.26627C12.5277 8.09578 12.7589 8 13 8C13.2411 8 13.4723 8.09578 13.6428 8.26627C13.8133 8.43675 13.9091 8.66798 13.9091 8.90909V8.95C13.9097 9.09627 13.953 9.23917 14.0338 9.36112C14.1145 9.48307 14.2292 9.57874 14.3636 9.63636C14.5007 9.69687 14.6528 9.71492 14.8003 9.68818C14.9477 9.66145 15.0838 9.59115 15.1909 9.48636L15.2182 9.45909C15.3026 9.37457 15.4029 9.30751 15.5132 9.26176C15.6236 9.21601 15.7419 9.19247 15.8614 9.19247C15.9808 9.19247 16.0991 9.21601 16.2095 9.26176C16.3199 9.30751 16.4201 9.37457 16.5045 9.45909C16.5891 9.54352 16.6561 9.64378 16.7019 9.75415C16.7476 9.86451 16.7712 9.9828 16.7712 10.1023C16.7712 10.2217 16.7476 10.34 16.7019 10.4504C16.6561 10.5608 16.5891 10.661 16.5045 10.7455L16.4773 10.7727C16.3725 10.8799 16.3022 11.0159 16.2755 11.1634C16.2487 11.3108 16.2668 11.4629 16.3273 11.6V11.6364C16.3849 11.7708 16.4806 11.8855 16.6025 11.9662C16.7245 12.047 16.8674 12.0903 17.0136 12.0909H17.0909C17.332 12.0909 17.5632 12.1867 17.7337 12.3572C17.9042 12.5277 18 12.7589 18 13C18 13.2411 17.9042 13.4723 17.7337 13.6428C17.5632 13.8133 17.332 13.9091 17.0909 13.9091H17.05C16.9037 13.9097 16.7608 13.953 16.6389 14.0338C16.5169 14.1145 16.4213 14.2292 16.3636 14.3636Z" stroke="#8DD3F4" stroke-linecap="round" stroke-linejoin="round"/>
</svg>
