<svg width="32" height="32" viewBox="0 0 32 32" fill="none" xmlns="http://www.w3.org/2000/svg">
<path d="M4 7.99996H6.66667M6.66667 7.99996H28M6.66667 7.99996L6.66667 26.6666C6.66667 27.3739 6.94762 28.0521 7.44772 28.5522C7.94781 29.0523 8.62609 29.3333 9.33333 29.3333H22.6667C23.3739 29.3333 24.0522 29.0523 24.5523 28.5522C25.0524 28.0521 25.3333 27.3739 25.3333 26.6666V7.99996M10.6667 7.99996V5.33329C10.6667 4.62605 10.9476 3.94777 11.4477 3.44767C11.9478 2.94758 12.6261 2.66663 13.3333 2.66663H18.6667C19.3739 2.66663 20.0522 2.94758 20.5523 3.44767C21.0524 3.94777 21.3333 4.62605 21.3333 5.33329V7.99996" stroke="url(#paint0_linear_5224_546)" stroke-width="2" stroke-linecap="round" stroke-linejoin="round"/>
<defs>
<linearGradient id="paint0_linear_5224_546" x1="16" y1="2.66663" x2="16" y2="29.3333" gradientUnits="userSpaceOnUse">
<stop stop-color="white"/>
<stop offset="1" stop-color="#2C9BCF"/>
</linearGradient>
</defs>
</svg>
