<svg width="20" height="20" viewBox="0 0 20 20" fill="none" xmlns="http://www.w3.org/2000/svg">
<path d="M16.6673 6.66675L11.6673 1.66675H5.00065C4.55862 1.66675 4.1347 1.84234 3.82214 2.1549C3.50958 2.46746 3.33398 2.89139 3.33398 3.33341V16.6667C3.33398 17.1088 3.50958 17.5327 3.82214 17.8453C4.1347 18.1578 4.55862 18.3334 5.00065 18.3334H15.0007C15.4427 18.3334 15.8666 18.1578 16.1792 17.8453C16.4917 17.5327 16.6673 17.1088 16.6673 16.6667V6.66675ZM11.6673 1.66675L11.6673 6.66675H16.6673M13.334 10.8334H6.66732M13.334 14.1667H6.66732M8.33398 7.50008H6.66732" stroke="#8DD3F4" stroke-width="1.6" stroke-linecap="round" stroke-linejoin="round"/>
</svg>
