<svg width="32" height="32" viewBox="0 0 32 32" fill="none" xmlns="http://www.w3.org/2000/svg">
<path d="M18 6C18 4.89543 17.1046 4 16 4C14.8954 4 14 4.89543 14 6C14 7.10457 14.8954 8 16 8C17.1046 8 18 7.10457 18 6Z" stroke="#019DE7" stroke-width="1.2"/>
<path d="M12 13C12 11.3432 13.5919 10 15.5556 10H16.4444C18.4081 10 20 11.3432 20 13" stroke="#019DE7" stroke-width="1.2" stroke-linecap="round"/>
<path d="M17 23C17 22.4477 16.5523 22 16 22C15.4477 22 15 22.4477 15 23C15 23.5523 15.4477 24 16 24C16.5523 24 17 23.5523 17 23Z" stroke="#019DE7"/>
<path d="M7 23C7 22.4477 6.55228 22 6 22C5.44772 22 5 22.4477 5 23C5 23.5523 5.44772 24 6 24C6.55228 24 7 23.5523 7 23Z" stroke="#019DE7"/>
<path d="M27 23C27 22.4477 26.5523 22 26 22C25.4477 22 25 22.4477 25 23C25 23.5523 25.4477 24 26 24C26.5523 24 27 23.5523 27 23Z" stroke="#019DE7"/>
<path d="M14 27C14 25.8954 14.796 25 15.7778 25H16.2222C17.204 25 18 25.8954 18 27" stroke="#019DE7" stroke-linecap="round"/>
<path d="M4 27C4 25.8954 4.79596 25 5.77778 25H6.22222C7.20404 25 8 25.8954 8 27" stroke="#019DE7" stroke-linecap="round"/>
<path d="M24 27C24 25.8954 24.796 25 25.7778 25H26.2222C27.204 25 28 25.8954 28 27" stroke="#019DE7" stroke-linecap="round"/>
<path d="M6 19V18C6 17.4477 6.44772 17 7 17H16M26 19V18C26 17.4477 25.5523 17 25 17H16M16 17V15M16 17V19" stroke="#8DD3F4" stroke-linecap="round"/>
</svg>
