<svg width="32" height="32" viewBox="0 0 32 32" fill="none" xmlns="http://www.w3.org/2000/svg">
<path d="M11 23.0909C11 26.2727 7 29 7 29C7 29 3 26.2727 3 23.0909C3 22.0059 3.42143 20.9654 4.17157 20.1982C4.92172 19.431 5.93913 19 7 19C8.06087 19 9.07828 19.431 9.82843 20.1982C10.5786 20.9654 11 22.0059 11 23.0909Z" stroke="#019DE7" stroke-linecap="round" stroke-linejoin="round"/>
<path d="M7 24.4545C7.73638 24.4545 8.33333 23.844 8.33333 23.0909C8.33333 22.3378 7.73638 21.7273 7 21.7273C6.26362 21.7273 5.66667 22.3378 5.66667 23.0909C5.66667 23.844 6.26362 24.4545 7 24.4545Z" stroke="#019DE7" stroke-linecap="round" stroke-linejoin="round"/>
<path d="M30 7.09091C30 10.2727 26 13 26 13C26 13 22 10.2727 22 7.09091C22 6.00593 22.4214 4.96539 23.1716 4.1982C23.9217 3.43101 24.9391 3 26 3C27.0609 3 28.0783 3.43101 28.8284 4.1982C29.5786 4.96539 30 6.00593 30 7.09091Z" stroke="#019DE7" stroke-linecap="round" stroke-linejoin="round"/>
<path d="M26 8.45455C26.7364 8.45455 27.3333 7.84402 27.3333 7.09091C27.3333 6.33779 26.7364 5.72727 26 5.72727C25.2636 5.72727 24.6667 6.33779 24.6667 7.09091C24.6667 7.84402 25.2636 8.45455 26 8.45455Z" stroke="#019DE7" stroke-linecap="round" stroke-linejoin="round"/>
<path d="M13 26H20C22.7614 26 25 23.7614 25 21C25 18.2386 22.7614 16 20 16H11C8.79086 16 7 14.2091 7 12C7 9.79086 8.79086 8 11 8H19" stroke="#8DD3F4" stroke-linecap="round"/>
</svg>
