<svg width="32" height="32" viewBox="0 0 32 32" fill="none" xmlns="http://www.w3.org/2000/svg">
<path d="M19.874 15C19.9562 15.3196 20 15.6547 20 16C20 18.2091 18.2091 20 16 20C13.7909 20 12 18.2091 12 16C12 13.7909 13.7909 12 16 12C16.3453 12 16.6804 12.0438 17 12.126" stroke="#019DE7" stroke-width="1.6" stroke-linecap="round"/>
<path d="M23.4185 13C23.7935 13.9264 24 14.9391 24 16C24 20.4183 20.4183 24 16 24C11.5817 24 8 20.4183 8 16C8 11.5817 11.5817 8 16 8C17.0609 8 18.0736 8.20651 19 8.58152" stroke="#019DE7" stroke-width="1.6" stroke-linecap="round"/>
<path d="M26.9119 11C27.6105 12.5221 28 14.2156 28 16C28 22.6274 22.6274 28 16 28C9.37258 28 4 22.6274 4 16C4 9.37258 9.37258 4 16 4C17.7844 4 19.4779 4.38949 21 5.08808" stroke="#019DE7" stroke-width="1.6" stroke-linecap="round"/>
<path d="M23 6V9H26L28.8293 6.17071C28.8923 6.10771 28.8477 6 28.7586 6H26V3.24142C26 3.15233 25.8923 3.10771 25.8293 3.17071L23 6Z" fill="#8DD3F4"/>
<path d="M16 16L23 9M23 9V6L25.8293 3.17071C25.8923 3.10771 26 3.15233 26 3.24142V6H28.7586C28.8477 6 28.8923 6.10771 28.8293 6.17071L26 9H23Z" stroke="#8DD3F4" stroke-linecap="round"/>
</svg>
