<svg width="32" height="32" viewBox="0 0 32 32" fill="none" xmlns="http://www.w3.org/2000/svg">
<path d="M26.6673 10.6666L18.6673 2.66663H8.00065C7.29341 2.66663 6.61513 2.94758 6.11503 3.44767C5.61494 3.94777 5.33398 4.62605 5.33398 5.33329V26.6666C5.33398 27.3739 5.61494 28.0521 6.11503 28.5522C6.61513 29.0523 7.29341 29.3333 8.00065 29.3333H24.0006C24.7079 29.3333 25.3862 29.0523 25.8863 28.5522C26.3864 28.0521 26.6673 27.3739 26.6673 26.6666V10.6666ZM18.6673 2.66663L18.6673 10.6666H26.6673M21.334 17.3333H10.6673M21.334 22.6666H10.6673M13.334 12H10.6673" stroke="url(#paint0_linear_5352_2998)" stroke-width="2" stroke-linecap="round" stroke-linejoin="round"/>
<defs>
<linearGradient id="paint0_linear_5352_2998" x1="16.0007" y1="2.66663" x2="16.0007" y2="29.3333" gradientUnits="userSpaceOnUse">
<stop stop-color="white"/>
<stop offset="1" stop-color="#2C9BCF"/>
</linearGradient>
</defs>
</svg>
