<svg width="32" height="32" viewBox="0 0 32 32" fill="none" xmlns="http://www.w3.org/2000/svg">
<path d="M23 14C23 19.5228 18.5228 24 13 24M23 14C23 8.47715 18.5228 4 13 4M23 14H3M13 24C7.47715 24 3 19.5228 3 14M13 24C15.5013 21.2616 16.9228 17.708 17 14C16.9228 10.292 15.5013 6.73835 13 4M13 24C10.4987 21.2616 9.07725 17.708 9 14C9.07725 10.292 10.4987 6.73835 13 4M3 14C3 8.47715 7.47715 4 13 4" stroke="#8DD3F4" stroke-width="1.6" stroke-linecap="round" stroke-linejoin="round"/>
<path d="M14.2422 29.8445L10.6041 27.6894C10.4677 27.6086 10.475 27.4087 10.6171 27.3382L11.9113 26.6954C11.9475 26.6775 11.9882 26.6709 12.0282 26.6765L14.218 26.9854L18.0601 25.0773L13.2491 20.5907C13.147 20.4955 13.1715 20.3275 13.2966 20.2653L14.6296 19.6033C14.6849 19.5759 14.7498 19.5755 14.8054 19.6022L22.0548 23.0935L26.533 20.8695C27.605 20.3371 28.7586 20.983 29.4695 21.6087C29.7127 21.8227 29.6362 22.1994 29.3461 22.3435L14.2422 29.8445Z" fill="#019DE7"/>
</svg>
