<svg width="32" height="32" viewBox="0 0 32 32" fill="none" xmlns="http://www.w3.org/2000/svg">
<rect x="19.8" y="14.8" width="6.4" height="6.4" rx="3.2" stroke="#8DD3F4" stroke-width="1.6"/>
<path d="M18 28C18 25.7909 19.7909 24 22 24H24C26.2091 24 28 25.7909 28 28" stroke="#8DD3F4" stroke-width="1.6" stroke-linecap="round"/>
<rect x="5.8" y="3.8" width="6.4" height="6.4" rx="3.2" stroke="#8DD3F4" stroke-width="1.6"/>
<path d="M4 17C4 14.7909 5.79086 13 8 13H10C12.2091 13 14 14.7909 14 17" stroke="#8DD3F4" stroke-width="1.6" stroke-linecap="round"/>
<path d="M28 11V10C28 6.68629 25.3137 4 22 4H17M4 21V22C4 25.3137 6.68629 28 10 28H15" stroke="#019DE7" stroke-width="2"/>
</svg>
