<svg width="32" height="32" viewBox="0 0 32 32" fill="none" xmlns="http://www.w3.org/2000/svg">
<rect x="6.8" y="5.8" width="8.4" height="8.4" rx="4.2" stroke="#8DD3F4" stroke-width="1.6"/>
<path d="M4 23V22C4 19.2386 6.23858 17 9 17H14.1972C15.3235 17 16.3753 17.5629 17 18.5" stroke="#8DD3F4" stroke-width="1.6" stroke-linecap="round"/>
<path d="M24.6667 28V17.3333C24.6667 16.9797 24.5262 16.6406 24.2762 16.3905C24.0261 16.1405 23.687 16 23.3334 16H20.6667C20.3131 16 19.9739 16.1405 19.7239 16.3905C19.4738 16.6406 19.3334 16.9797 19.3334 17.3333V28M16.6667 18.6667H27.3334C28.0698 18.6667 28.6667 19.2636 28.6667 20V26.6667C28.6667 27.403 28.0698 28 27.3334 28H16.6667C15.9303 28 15.3334 27.403 15.3334 26.6667V20C15.3334 19.2636 15.9303 18.6667 16.6667 18.6667Z" stroke="#019DE7" stroke-width="1.6" stroke-linecap="round" stroke-linejoin="round"/>
</svg>
