<svg width="32" height="32" viewBox="0 0 32 32" fill="none" xmlns="http://www.w3.org/2000/svg">
<path d="M20.8 26V8.22222C20.8 7.63285 20.5471 7.06762 20.0971 6.65087C19.647 6.23413 19.0365 6 18.4 6H13.6C12.9635 6 12.353 6.23413 11.9029 6.65087C11.4529 7.06762 11.2 7.63285 11.2 8.22222V26M6.4 10.4444H25.6C26.9255 10.4444 28 11.4394 28 12.6667V23.7778C28 25.0051 26.9255 26 25.6 26H6.4C5.07452 26 4 25.0051 4 23.7778V12.6667C4 11.4394 5.07452 10.4444 6.4 10.4444Z" stroke="#019DE7" stroke-width="1.6" stroke-linecap="round" stroke-linejoin="round"/>
</svg>
