<svg width="40" height="40" viewBox="0 0 40 40" fill="none" xmlns="http://www.w3.org/2000/svg">
<g clip-path="url(#clip0_5498_4548)">
<path d="M22.7121 17.9463C21.4202 18.0138 20.2968 18.4054 19.3848 19.2902C18.4633 20.1842 18.0426 21.2796 18.1576 22.6375C17.6526 22.575 17.1927 22.5061 16.7302 22.4672C16.5704 22.4537 16.3809 22.4728 16.2455 22.5492C15.7964 22.8026 15.3658 23.0888 14.8555 23.4078C14.9491 22.9843 15.0097 22.6134 15.117 22.2566C15.1959 21.9945 15.1594 21.8485 14.9178 21.6778C13.367 20.5828 12.7133 18.9442 13.2025 17.2572C13.6551 15.6965 14.7666 14.75 16.2769 14.2566C18.3383 13.5832 20.655 14.2701 21.9084 15.9068C22.3612 16.498 22.6388 17.1615 22.7121 17.9463ZM16.7663 17.4206C16.7782 17.112 16.5109 16.8341 16.1933 16.8248C15.8682 16.8152 15.6007 17.0637 15.5912 17.3841C15.5816 17.7088 15.83 17.9691 16.1575 17.9774C16.4822 17.9856 16.7543 17.7368 16.7663 17.4206ZM19.8685 16.8246C19.5497 16.8304 19.2804 17.1019 19.2861 17.4117C19.2919 17.7328 19.5561 17.984 19.8839 17.9801C20.2125 17.9761 20.4617 17.7222 20.4586 17.3944C20.4559 17.0725 20.1928 16.8186 19.8685 16.8246Z" fill="#3D4148"/>
<path d="M25.6154 25.9997C25.2063 25.8175 24.831 25.5442 24.4315 25.5025C24.0335 25.4609 23.6152 25.6905 23.1988 25.7331C21.9305 25.8629 20.7942 25.5094 19.8573 24.6429C18.0754 22.9947 18.33 20.4675 20.3916 19.1169C22.2239 17.9165 24.911 18.3166 26.2029 19.9823C27.3302 21.4357 27.1977 23.3651 25.8215 24.5861C25.4232 24.9395 25.2799 25.2303 25.5354 25.6961C25.5826 25.7821 25.588 25.891 25.6154 25.9997ZM20.9588 21.4911C21.2192 21.4914 21.4337 21.2875 21.4435 21.0303C21.454 20.758 21.2349 20.5295 20.9622 20.5284C20.6922 20.5272 20.4661 20.7588 20.4755 21.0271C20.4843 21.2834 20.7003 21.4908 20.9588 21.4911ZM23.9606 20.5295C23.708 20.5277 23.4933 20.7346 23.483 20.9899C23.472 21.2629 23.6842 21.4871 23.9544 21.4878C24.2157 21.4887 24.4222 21.2911 24.4317 21.031C24.4419 20.7573 24.2296 20.5314 23.9606 20.5295Z" fill="#3D4148"/>
</g>
<rect x="0.5" y="0.5" width="39" height="39" rx="19.5" stroke="#646D79"/>
<defs>
<clipPath id="clip0_5498_4548">
<rect width="40" height="40" rx="20" fill="white"/>
</clipPath>
</defs>
</svg>
